<svg width="42" height="42" viewBox="0 0 42 42" fill="none" xmlns="http://www.w3.org/2000/svg">
<rect width="42" height="42" rx="21" fill="white"/>
<path d="M11.3999 15.0001C11.3999 14.3636 11.6528 13.7531 12.1028 13.303C12.5529 12.853 13.1634 12.6001 13.7999 12.6001H22.1999C22.8364 12.6001 23.4469 12.853 23.897 13.303C24.347 13.7531 24.5999 14.3636 24.5999 15.0001V19.8001C24.5999 20.4366 24.347 21.0471 23.897 21.4972C23.4469 21.9472 22.8364 22.2001 22.1999 22.2001H19.7999L16.1999 25.8001V22.2001H13.7999C13.1634 22.2001 12.5529 21.9472 12.1028 21.4972C11.6528 21.0471 11.3999 20.4366 11.3999 19.8001V15.0001Z" fill="#21466D"/>
<path d="M26.9999 17.3999V19.7999C26.9999 21.0729 26.4942 22.2938 25.594 23.194C24.6939 24.0942 23.473 24.5999 22.1999 24.5999H20.7935L18.6743 26.7203C19.0103 26.8991 19.3931 26.9999 19.7999 26.9999H22.1999L25.7999 30.5999V26.9999H28.1999C28.8364 26.9999 29.4469 26.747 29.897 26.297C30.3471 25.8469 30.5999 25.2364 30.5999 24.5999V19.7999C30.5999 19.1634 30.3471 18.5529 29.897 18.1028C29.4469 17.6528 28.8364 17.3999 28.1999 17.3999H26.9999Z" fill="#21466D"/>
</svg>
