<svg width="42" height="42" viewBox="0 0 42 42" fill="none" xmlns="http://www.w3.org/2000/svg">
<rect width="42" height="42" rx="21" fill="white"/>
<path d="M11.3999 12.5999C11.3999 12.2816 11.5263 11.9764 11.7514 11.7514C11.9764 11.5263 12.2816 11.3999 12.5999 11.3999H15.1835C15.4675 11.4 15.7423 11.5009 15.959 11.6846C16.1757 11.8683 16.3201 12.1229 16.3667 12.4031L17.2547 17.7251C17.2971 17.9786 17.2571 18.239 17.1404 18.4679C17.0238 18.6969 16.8367 18.8824 16.6067 18.9971L14.7491 19.9247C15.4152 21.5755 16.4073 23.075 17.666 24.3338C18.9248 25.5925 20.4243 26.5846 22.0751 27.2507L23.0039 25.3931C23.1185 25.1633 23.3038 24.9764 23.5326 24.8598C23.7613 24.7431 24.0214 24.7029 24.2747 24.7451L29.5967 25.6331C29.8769 25.6797 30.1315 25.8242 30.3152 26.0408C30.4989 26.2575 30.5998 26.5323 30.5999 26.8163V29.3999C30.5999 29.7182 30.4735 30.0234 30.2484 30.2484C30.0234 30.4735 29.7182 30.5999 29.3999 30.5999H26.9999C18.3839 30.5999 11.3999 23.6159 11.3999 14.9999V12.5999Z" fill="#21466D"/>
</svg>
