<svg width="42" height="42" viewBox="0 0 42 42" fill="none" xmlns="http://www.w3.org/2000/svg">
<rect width="42" height="42" rx="21" fill="white"/>
<path fill-rule="evenodd" clip-rule="evenodd" d="M12.8787 14.8787C12 15.7574 12 17.1716 12 20V22C12 24.8284 12 26.2426 12.8787 27.1213C13.7574 28 15.1716 28 18 28H24C26.8284 28 28.2426 28 29.1213 27.1213C30 26.2426 30 24.8284 30 22V20C30 17.1716 30 15.7574 29.1213 14.8787C28.2426 14 26.8284 14 24 14H18C15.1716 14 13.7574 14 12.8787 14.8787ZM15.5547 17.1679C15.0952 16.8616 14.4743 16.9858 14.1679 17.4453C13.8616 17.9048 13.9858 18.5257 14.4453 18.8321L19.8906 22.4622C20.5624 22.9101 21.4376 22.9101 22.1094 22.4622L27.5547 18.8321C28.0142 18.5257 28.1384 17.9048 27.8321 17.4453C27.5257 16.9858 26.9048 16.8616 26.4453 17.1679L21 20.7982L15.5547 17.1679Z" fill="#21466D"/>
</svg>
