<svg width="42" height="42" viewBox="0 0 42 42" fill="none" xmlns="http://www.w3.org/2000/svg">
<rect width="42" height="42" rx="21" fill="white"/>
<path d="M12.2719 20.4039C14.1133 19.2398 16.1689 18.2682 18.0895 17.2916C21.3937 15.6921 24.711 14.1204 28.0618 12.657C28.7137 12.4077 29.8851 12.1639 30 13.2727C29.9371 14.8422 29.6783 16.4026 29.5009 17.9629C29.0505 21.3942 28.5298 24.8138 28.0221 28.2338C27.8472 29.3731 26.6038 29.9628 25.8081 29.2337C23.8961 27.7515 21.9693 26.2836 20.0816 24.7669C19.4633 24.0459 20.0367 23.0103 20.5889 22.4954C22.1638 20.7142 23.8339 19.2008 25.3264 17.3276C25.7291 16.2118 24.5395 17.1521 24.1471 17.4403C21.9911 19.1454 19.8879 20.9546 17.6148 22.4532C16.4538 23.1867 15.1005 22.5599 13.9399 22.1506C12.8994 21.6561 11.3745 21.1579 12.2718 20.404L12.2719 20.4039Z" fill="#21466D"/>
</svg>
