<svg width="42" height="42" viewBox="0 0 42 42" fill="none" xmlns="http://www.w3.org/2000/svg">
<rect width="42" height="42" rx="21" fill="white"/>
<path fill-rule="evenodd" clip-rule="evenodd" d="M15.0602 13.8601C16.6356 12.2847 18.7723 11.3997 21.0002 11.3997C23.2281 11.3997 25.3648 12.2847 26.9402 13.8601C28.5156 15.4355 29.4006 17.5722 29.4006 19.8001C29.4006 22.028 28.5156 24.1647 26.9402 25.7401L21.0002 31.6801L15.0602 25.7401C14.2801 24.9601 13.6613 24.034 13.2391 23.0148C12.8169 21.9956 12.5996 20.9033 12.5996 19.8001C12.5996 18.6969 12.8169 17.6045 13.2391 16.5853C13.6613 15.5662 14.2801 14.6401 15.0602 13.8601ZM21.0002 22.2001C21.6367 22.2001 22.2472 21.9472 22.6973 21.4971C23.1474 21.0471 23.4002 20.4366 23.4002 19.8001C23.4002 19.1636 23.1474 18.5531 22.6973 18.103C22.2472 17.6529 21.6367 17.4001 21.0002 17.4001C20.3637 17.4001 19.7532 17.6529 19.3032 18.103C18.8531 18.5531 18.6002 19.1636 18.6002 19.8001C18.6002 20.4366 18.8531 21.0471 19.3032 21.4971C19.7532 21.9472 20.3637 22.2001 21.0002 22.2001Z" fill="#21466D"/>
</svg>
