<?xml version="1.0" encoding="UTF-8"?>
<!DOCTYPE svg PUBLIC "-//W3C//DTD SVG 1.1//EN" "http://www.w3.org/Graphics/SVG/1.1/DTD/svg11.dtd">
<!-- Creator: CorelDRAW -->
<svg xmlns="http://www.w3.org/2000/svg" xml:space="preserve" width="210mm" height="297mm" version="1.1" style="shape-rendering:geometricPrecision; text-rendering:geometricPrecision; image-rendering:optimizeQuality; fill-rule:evenodd; clip-rule:evenodd"
viewBox="0 0 21000 29700"
 xmlns:xlink="http://www.w3.org/1999/xlink"
 xmlns:xodm="http://www.corel.com/coreldraw/odm/2003">
 <defs>
  <style type="text/css">
   <![CDATA[
    .fil1 {fill:none}
    .fil6 {fill:#F4D182}
    .fil7 {fill:#F4D182}
    .fil2 {fill:#145DA2}
    .fil5 {fill:#287EF8}
    .fil0 {fill:white}
    .fil3 {fill:#21466D;fill-rule:nonzero}
    .fil8 {fill:white;fill-rule:nonzero}
    .fil4 {fill:#21466D}
   ]]>
  </style>
    <clipPath id="id0">
     <path d="M-5.77 4.37l20997.28 0 0 29696.16 -20997.28 0 0 -29696.16z"/>
    </clipPath>
      <clipPath id="id1">
       <path d="M-5.77 29699.99l2402.57 0 0 -26297.72 -2402.57 0 0 26297.72z"/>
      </clipPath>
      <clipPath id="id2">
       <path d="M-5.77 4.37l20997.28 0 0 29696.16 -20997.28 0 0 -29696.16z"/>
      </clipPath>
      <clipPath id="id3">
       <path d="M2396.82 29699.99l18594.69 0 0 -26297.72 -18594.69 0 0 26297.72z"/>
      </clipPath>
      <clipPath id="id4">
       <path d="M-5.77 4.37l20997.28 0 0 29696.16 -20997.28 0 0 -29696.16z"/>
      </clipPath>
      <clipPath id="id5">
       <path d="M-5.77 17982.61l959.97 0 14837.43 -13564.36 0 -4413.88 -15797.4 0 0 17978.24z"/>
      </clipPath>
      <clipPath id="id6">
       <path d="M15791.62 4418.26l0 -4413.89 -15797.39 0 0 17978.24 959.97 0 14837.42 -13564.35z"/>
      </clipPath>
      <clipPath id="id7">
       <path d="M-5.77 17982.61l959.97 0 14837.43 -13564.36 0 -4413.88 -15797.4 0 0 17978.24z"/>
      </clipPath>
      <clipPath id="id8">
       <path d="M-5.77 4.37l20997.28 0 0 29696.16 -20997.28 0 0 -29696.16z"/>
      </clipPath>
    <clipPath id="id9">
     <path d="M14180.68 14748.02l-14186.45 8859.54 0 6092.44 20997.28 -13201.68 0 -3331.74 -20996.43 -13162.21 -0.85 0 0 5884.12 14186.45 8859.53z"/>
    </clipPath>
    <clipPath id="id10">
     <path d="M-5.77 5888.49l14186.45 8859.53 -14186.45 8859.54 0 6092.44 20997.28 -13201.68 0 -3331.74 -20996.43 -13162.21 -0.85 0 0 5884.12z"/>
    </clipPath>
     <clipPath id="id11">
      <path d="M-5.77 1911.49l3043.1 0 -3042.25 -1907.12 -0.85 0 0 1907.12z"/>
     </clipPath>
     <clipPath id="id12">
      <path d="M-5.77 5888.49l14186.45 8859.53 -14186.45 8859.54 0 6092.44 20997.28 -13201.68 0 -3331.74 -20996.43 -13162.21 -0.85 0 0 5884.12z"/>
     </clipPath>
    <mask id="id13">
  <linearGradient id="id14" gradientUnits="userSpaceOnUse" x1="22137.85" y1="14573.97" x2="18206.89" y2="18249.09">
   <stop offset="0" style="stop-opacity:1; stop-color:white"/>
   <stop offset="1" style="stop-opacity:0; stop-color:white"/>
  </linearGradient>
     <rect style="fill:url(#id14)" x="18711.58" y="15298.46" width="2289.93" height="2668.46"/>
    </mask>
    <mask id="id15">
  <linearGradient id="id16" gradientUnits="userSpaceOnUse" x1="-1684.84" y1="31004.2" x2="15069.84" y2="17123.09">
   <stop offset="0" style="stop-opacity:1; stop-color:white"/>
   <stop offset="1" style="stop-opacity:0; stop-color:white"/>
  </linearGradient>
     <rect style="fill:url(#id16)" x="-5.77" y="21685.78" width="10818.83" height="8014.22"/>
    </mask>
    <clipPath id="id17">
     <path d="M8446.09 24045.41l12289.84 0 0 -8583.08 -12289.84 7704.23 0 878.85z"/>
    </clipPath>
    <clipPath id="id18">
     <path d="M20735.93 24045.41l0 -8583.08 -12289.84 7704.23 0 878.85 12289.84 0z"/>
    </clipPath>
    <clipPath id="id19">
     <path d="M8446.09 24045.41l12289.84 0 0 -8583.08 -12289.84 7704.23 0 878.85z"/>
    </clipPath>
    <clipPath id="id20">
     <path d="M8367.25 5641.12l12447.52 0 0 8693.19 -12447.52 -7803.07 0 -890.12z"/>
    </clipPath>
    <mask id="id21">
  <linearGradient id="id22" gradientUnits="userSpaceOnUse" x1="23087.98" y1="15153.31" x2="17340.87" y2="11862.63">
   <stop offset="0" style="stop-opacity:1; stop-color:white"/>
   <stop offset="1" style="stop-opacity:0; stop-color:white"/>
  </linearGradient>
     <rect style="fill:url(#id22)" x="18721.58" y="11743.61" width="2269.93" height="2697.88"/>
    </mask>
    <mask id="id23">
  <linearGradient id="id24" gradientUnits="userSpaceOnUse" x1="-1638.48" y1="-813.44" x2="12335.33" y2="8687.82">
   <stop offset="0" style="stop-opacity:1; stop-color:white"/>
   <stop offset="1" style="stop-opacity:0; stop-color:white"/>
  </linearGradient>
     <rect style="fill:url(#id24)" x="-15.77" y="-9.47" width="10838.83" height="8083.65"/>
    </mask>
 </defs>
 <g id="Слой_x0020_1">
  <metadata id="CorelCorpID_0Corel-Layer"/>
  <g id="_1984229876864">
   <polygon class="fil0" points="-5.77,4.37 20991.51,4.37 20991.51,29700.53 -5.77,29700.53 "/>
   <g style="clip-path:url(#id0)">
    <g>
     <g>
     </g>
     <g style="clip-path:url(#id1)">
      <image x="-16197.89" y="3402.27" width="18594.69" height="26297.72" xlink:href="oblojka final (17 ver) kriv 2 1_Images\oblojka final (17 ver) kriv 2 1_ImgID1.png"/>
     </g>
     <g style="clip-path:url(#id2)">
     </g>
     <g style="clip-path:url(#id3)">
      <image x="2396.82" y="3402.27" width="18594.69" height="26297.72" xlink:href="oblojka final (17 ver) kriv 2 1_Images\oblojka final (17 ver) kriv 2 1_ImgID2.png"/>
     </g>
     <g style="clip-path:url(#id4)">
     </g>
     <g style="clip-path:url(#id5)">
     </g>
     <g style="clip-path:url(#id6)">
      <image x="-2803.07" y="-8315.11" width="18594.69" height="26297.73" xlink:href="oblojka final (17 ver) kriv 2 1_Images\oblojka final (17 ver) kriv 2 1_ImgID3.png"/>
     </g>
     <g style="clip-path:url(#id7)">
     </g>
     <g style="clip-path:url(#id8)">
     </g>
    </g>
   </g>
   <polygon class="fil1" points="-5.77,4.37 20991.51,4.37 20991.51,29700.53 -5.77,29700.53 "/>
   <polygon class="fil2" points="14180.68,14748.02 -5.77,23607.56 -5.77,29700 20991.51,16498.32 20991.51,13166.58 -4.92,4.37 -5.77,4.37 -5.77,5888.49 "/>
   <g style="clip-path:url(#id9)">
    <rect class="fil2" x="-36343.3" y="3.82" width="7908.52" height="29696.69"/>
   </g>
   <polygon class="fil1" points="14180.68,14748.02 -5.77,23607.56 -5.77,29700 20991.51,16498.32 20991.51,13166.58 -4.92,4.37 -5.77,4.37 -5.77,5888.49 "/>
   <path class="fil3" d="M1537.78 12450.46l-290.4 0 0 -126.23 730.85 0 0 126.23 -290.39 0 0 569.56 -150.06 0 0 -569.56zm877.75 582.48c-55.41,0 -107.06,-8.61 -154.92,-25.84 -47.85,-17.23 -89.24,-41.58 -124.15,-73.06 -34.9,-31.48 -62.25,-69.41 -82.04,-113.81 -19.79,-44.4 -29.68,-93.77 -29.68,-148.11 0,-54.33 9.89,-103.7 29.68,-148.1 19.79,-44.4 47.14,-82.34 82.04,-113.81 34.91,-31.48 76.3,-55.83 124.15,-73.06 47.86,-17.23 99.51,-25.84 154.92,-25.84 55.41,0 107.05,8.61 154.92,25.84 47.85,17.23 89.24,41.58 124.14,73.06 34.91,31.47 62.26,69.41 82.05,113.81 19.79,44.4 29.68,93.77 29.68,148.1 0,54.34 -9.89,103.71 -29.68,148.11 -19.79,44.4 -47.14,82.33 -82.05,113.81 -34.9,31.48 -76.29,55.83 -124.14,73.06 -47.87,17.23 -99.51,25.84 -154.92,25.84zm0 -126.23c34.55,0 66.57,-5.64 96.07,-16.9 29.51,-11.27 54.88,-27.17 76.11,-47.71 21.24,-20.55 37.97,-45.23 50.2,-74.06 12.24,-28.82 18.36,-60.8 18.36,-95.92 0,-35.12 -6.12,-67.09 -18.36,-95.92 -12.23,-28.82 -28.96,-53.51 -50.2,-74.05 -21.23,-20.54 -46.6,-36.45 -76.11,-47.71 -29.5,-11.27 -61.52,-16.9 -96.07,-16.9 -34.55,0 -66.58,5.63 -96.09,16.9 -29.49,11.26 -55.05,27.17 -76.64,47.71 -21.59,20.54 -38.5,45.23 -50.74,74.05 -12.23,28.83 -18.35,60.8 -18.35,95.92 0,35.12 6.12,67.1 18.35,95.92 12.24,28.83 29.15,53.51 50.74,74.06 21.59,20.54 47.15,36.44 76.64,47.71 29.51,11.26 61.54,16.9 96.09,16.9zm1417.52 113.31l-174.89 0 -187.84 -507.93 -4.32 0 -187.84 507.93 -173.8 0 -269.89 -695.79 155.45 0 198.64 518.86 4.31 0 192.16 -518.86 166.26 0 192.16 518.86 4.32 0 198.63 -518.86 155.45 0 -268.8 695.79zm809.73 0l-66.93 -148.1 -350.85 0 -66.93 148.1 -159.78 0 315.23 -695.79 173.81 0 315.22 695.79 -159.77 0zm-120.9 -271.36l-119.84 -262.41 -4.31 0 -118.75 262.41 242.9 0zm722.28 24.85l-215.9 0 0 246.51 -150.06 0 0 -695.79 431.82 0c38.14,0 73.41,4.97 105.79,14.91 32.39,9.94 60.46,24.52 84.21,43.73 23.75,19.22 42.28,42.74 55.59,70.58 13.32,27.83 19.98,59.64 19.98,95.42 0,56.32 -15.84,102.38 -47.51,138.16 -31.66,35.79 -73.41,60.31 -125.22,73.56l165.17 259.43 -167.33 0 -156.54 -246.51zm65.86 -124.25c36.7,0 65.13,-8.94 85.28,-26.84 20.16,-17.89 30.22,-42.41 30.22,-73.55 0,-31.15 -10.06,-55.66 -30.22,-73.56 -20.15,-17.89 -48.58,-26.83 -85.28,-26.83l-281.76 0 0 200.78 281.76 0zm367.11 -325.03l314.15 0c55.42,0 106.7,7.95 153.84,23.85 47.14,15.91 87.99,38.77 122.52,68.59 34.55,29.82 61.54,66.26 80.97,109.34 19.43,43.07 29.15,91.78 29.15,146.11 0,54.34 -9.72,103.05 -29.15,146.12 -19.43,43.07 -46.42,79.52 -80.97,109.34 -34.53,29.82 -75.38,52.68 -122.52,68.58 -47.14,15.91 -98.42,23.86 -153.84,23.86l-314.15 0 0 -695.79zm314.15 571.54c34.55,0 66.22,-4.97 95,-14.91 28.79,-9.94 53.8,-24.35 75.04,-43.24 21.22,-18.88 37.6,-42.24 49.11,-70.07 11.51,-27.84 17.28,-59.64 17.28,-95.43 0,-35.78 -5.77,-67.59 -17.28,-95.42 -11.51,-27.83 -27.89,-51.19 -49.11,-70.08 -21.24,-18.88 -46.25,-33.29 -75.04,-43.23 -28.78,-9.94 -60.45,-14.91 -95,-14.91l-164.08 0 0 447.29 164.08 0zm830.25 137.17c-50.37,0 -97.52,-3.81 -141.42,-11.43 -43.9,-7.62 -82.77,-20.71 -116.59,-39.26 -33.83,-18.56 -61.54,-43.41 -83.13,-74.55 -21.59,-31.15 -34.54,-69.91 -38.86,-116.3l155.45 0c5.04,23.86 14.22,43.57 27.54,59.14 13.31,15.58 29.86,28.17 49.65,37.78 19.8,9.6 42.11,16.23 66.94,19.88 24.82,3.64 51.64,5.46 80.42,5.46 21.59,0 43.01,-1.16 64.23,-3.48 21.23,-2.32 39.95,-6.62 56.14,-12.92 16.19,-6.29 29.33,-15.07 39.4,-26.34 10.08,-11.26 15.12,-25.84 15.12,-43.73 0,-21.21 -7.56,-37.78 -22.68,-49.7 -15.11,-11.93 -35.08,-21.21 -59.91,-27.84 -24.82,-6.62 -53.07,-11.92 -84.74,-15.9 -31.67,-3.98 -63.87,-8.28 -96.62,-12.92 -32.74,-4.64 -64.96,-10.93 -96.62,-18.89 -31.67,-7.95 -59.91,-19.38 -84.74,-34.29 -24.83,-14.91 -44.8,-34.62 -59.92,-59.14 -15.11,-24.52 -22.67,-55.67 -22.67,-93.44 0,-44.4 10.8,-80.01 32.39,-106.85 21.59,-26.84 48.39,-47.38 80.42,-61.63 32.03,-14.25 66.39,-23.69 103.1,-28.33 36.7,-4.64 70.16,-6.95 100.4,-6.95 46.78,0 89.96,3.97 129.55,11.92 39.57,7.95 74.3,20.71 104.17,38.27 29.87,17.56 54.34,40.42 73.41,68.59 19.07,28.16 30.77,62.12 35.08,101.88l-156.53 0c-2.88,-17.89 -9.71,-33.3 -20.51,-46.22 -10.8,-12.92 -24.47,-23.36 -41.02,-31.31 -16.56,-7.95 -35.45,-13.92 -56.68,-17.89 -21.24,-3.98 -43.73,-5.97 -67.47,-5.97 -20.87,0 -41.39,1.49 -61.54,4.48 -20.15,2.98 -37.97,7.78 -53.43,14.41 -15.48,6.63 -27.89,15.24 -37.25,25.84 -9.35,10.61 -14.04,23.86 -14.04,39.76 0,19.88 7.56,35.29 22.68,46.22 15.11,10.94 35.08,19.72 59.91,26.34 24.83,6.63 53.08,11.77 84.75,15.41 31.67,3.65 63.87,8.12 96.61,13.42 32.75,5.3 64.96,12.09 96.62,20.38 31.67,8.28 59.92,20.21 84.75,35.78 24.82,15.57 44.8,35.78 59.91,60.63 15.12,24.85 22.67,56.16 22.67,93.94 0,43.73 -9.89,79.02 -29.68,105.86 -19.79,26.83 -45.16,47.71 -76.11,62.62 -30.95,14.91 -65.68,24.85 -104.18,29.82 -38.5,4.97 -76.83,7.45 -114.97,7.45zm2017.88 2393.96l-326.03 -415.48 175.97 0 224.54 286.27 224.55 -286.27 175.96 0 -326.02 415.48 0 280.31 -148.97 0 0 -280.31zm-6972.37 -1511.15l-66.93 -148.1 -350.85 0 -66.93 148.1 -159.78 0 315.23 -695.79 173.81 0 315.22 695.79 -159.77 0zm-120.9 -271.36l-119.84 -262.41 -4.31 0 -118.75 262.41 242.9 0zm1325.76 271.36l-186.76 0 -356.26 -492.03 -4.31 0 0 492.03 -150.06 0 0 -695.79 185.68 0 357.33 492.02 4.31 0 0 -492.02 150.07 0 0 695.79zm300.19 -124.25l467.43 0 0 124.25 -617.5 0 0 -695.79 617.5 0 0 124.25 -467.43 0 0 153.07 419.94 0 0 120.27 -419.94 0 0 173.95zm1525.46 124.25l-174.89 0 -187.83 -507.93 -4.33 0 -187.83 507.93 -173.81 0 -269.89 -695.79 155.45 0 198.65 518.86 4.31 0 192.16 -518.86 166.25 0 192.16 518.86 4.32 0 198.64 -518.86 155.44 0 -268.8 695.79zm773.04 -124.25l467.43 0 0 124.25 -617.5 0 0 -695.79 617.5 0 0 124.25 -467.43 0 0 153.07 419.94 0 0 120.27 -419.94 0 0 173.95zm925.23 137.17c-56.14,0 -107.6,-8.61 -154.37,-25.84 -46.78,-17.23 -87.08,-41.58 -120.92,-73.06 -33.82,-31.48 -60.26,-69.41 -79.33,-113.81 -19.07,-44.4 -28.61,-93.77 -28.61,-148.11 0,-54.33 9.54,-103.7 28.61,-148.1 19.07,-44.4 45.51,-82.34 79.33,-113.81 33.84,-31.48 74.14,-55.83 120.92,-73.06 46.77,-17.23 98.23,-25.84 154.37,-25.84 48.22,0 93.02,6.29 134.4,18.88 41.39,12.59 78.09,30.65 110.12,54.17 32.03,23.53 59.19,52.02 81.51,85.49 22.31,33.46 38.14,71.07 47.49,112.81l-157.61 0c-16.55,-45.06 -43,-80.51 -79.35,-106.35 -36.34,-25.85 -81.86,-38.77 -136.56,-38.77 -35.26,0 -67.29,5.63 -96.07,16.9 -28.79,11.26 -53.45,27.17 -73.95,47.71 -20.52,20.54 -36.35,45.23 -47.51,74.05 -11.15,28.83 -16.72,60.8 -16.72,95.92 0,35.12 5.57,67.1 16.72,95.92 11.16,28.83 26.99,53.51 47.51,74.06 20.5,20.54 45.16,36.44 73.95,47.71 28.78,11.26 60.81,16.9 96.07,16.9 54.7,0 100.22,-12.93 136.56,-38.77 36.35,-25.84 62.8,-61.3 79.35,-106.36l157.61 0c-9.35,41.75 -25.18,79.36 -47.49,112.82 -22.32,33.46 -49.48,61.96 -81.51,85.48 -32.03,23.53 -68.73,41.59 -110.12,54.18 -41.38,12.59 -86.18,18.88 -134.4,18.88zm842.12 0c-55.41,0 -107.05,-8.61 -154.92,-25.84 -47.85,-17.23 -89.24,-41.58 -124.15,-73.06 -34.9,-31.48 -62.25,-69.41 -82.04,-113.81 -19.79,-44.4 -29.68,-93.77 -29.68,-148.11 0,-54.33 9.89,-103.7 29.68,-148.1 19.79,-44.4 47.14,-82.34 82.04,-113.81 34.91,-31.48 76.3,-55.83 124.15,-73.06 47.87,-17.23 99.51,-25.84 154.92,-25.84 55.41,0 107.05,8.61 154.92,25.84 47.85,17.23 89.24,41.58 124.15,73.06 34.9,31.47 62.25,69.41 82.04,113.81 19.79,44.4 29.68,93.77 29.68,148.1 0,54.34 -9.89,103.71 -29.68,148.11 -19.79,44.4 -47.14,82.33 -82.04,113.81 -34.91,31.48 -76.3,55.83 -124.15,73.06 -47.87,17.23 -99.51,25.84 -154.92,25.84zm0 -126.23c34.55,0 66.58,-5.64 96.07,-16.9 29.51,-11.27 54.88,-27.17 76.12,-47.71 21.23,-20.55 37.97,-45.23 50.19,-74.06 12.24,-28.82 18.36,-60.8 18.36,-95.92 0,-35.12 -6.12,-67.09 -18.36,-95.92 -12.22,-28.82 -28.96,-53.51 -50.19,-74.05 -21.24,-20.54 -46.61,-36.45 -76.12,-47.71 -29.49,-11.27 -61.52,-16.9 -96.07,-16.9 -34.55,0 -66.58,5.63 -96.08,16.9 -29.5,11.26 -55.06,27.17 -76.65,47.71 -21.59,20.54 -38.5,45.23 -50.74,74.05 -12.23,28.83 -18.34,60.8 -18.34,95.92 0,35.12 6.11,67.1 18.34,95.92 12.24,28.83 29.15,53.51 50.74,74.06 21.59,20.54 47.15,36.44 76.65,47.71 29.5,11.26 61.53,16.9 96.08,16.9zm1205.93 113.31l-186.76 0 -356.25 -492.03 -4.31 0 0 492.03 -150.07 0 0 -695.79 185.69 0 357.33 492.02 4.31 0 0 -492.02 150.06 0 0 695.79zm509.62 12.92c-55.41,0 -107.05,-8.61 -154.92,-25.84 -47.85,-17.23 -89.24,-41.58 -124.15,-73.06 -34.9,-31.48 -62.25,-69.41 -82.04,-113.81 -19.79,-44.4 -29.68,-93.77 -29.68,-148.11 0,-54.33 9.89,-103.7 29.68,-148.1 19.79,-44.4 47.14,-82.34 82.04,-113.81 34.91,-31.48 76.3,-55.83 124.15,-73.06 47.87,-17.23 99.51,-25.84 154.92,-25.84 55.41,0 107.05,8.61 154.92,25.84 47.85,17.23 89.24,41.58 124.15,73.06 34.9,31.47 62.25,69.41 82.04,113.81 19.79,44.4 29.68,93.77 29.68,148.1 0,54.34 -9.89,103.71 -29.68,148.11 -19.79,44.4 -47.14,82.33 -82.04,113.81 -34.91,31.48 -76.3,55.83 -124.15,73.06 -47.87,17.23 -99.51,25.84 -154.92,25.84zm0 -126.23c34.55,0 66.58,-5.64 96.07,-16.9 29.51,-11.27 54.88,-27.17 76.12,-47.71 21.23,-20.55 37.96,-45.23 50.19,-74.06 12.24,-28.82 18.36,-60.8 18.36,-95.92 0,-35.12 -6.12,-67.09 -18.36,-95.92 -12.23,-28.82 -28.96,-53.51 -50.19,-74.05 -21.24,-20.54 -46.61,-36.45 -76.12,-47.71 -29.49,-11.27 -61.52,-16.9 -96.07,-16.9 -34.55,0 -66.58,5.63 -96.09,16.9 -29.49,11.26 -55.05,27.17 -76.64,47.71 -21.59,20.54 -38.5,45.23 -50.74,74.05 -12.23,28.83 -18.34,60.8 -18.34,95.92 0,35.12 6.11,67.1 18.34,95.92 12.24,28.83 29.15,53.51 50.74,74.06 21.59,20.54 47.15,36.44 76.64,47.71 29.51,11.26 61.54,16.9 96.09,16.9zm1431.55 113.31l-150.05 0 0 -512.9 -4.32 0 -253.7 512.9 -106.87 0 -253.69 -512.9 -4.32 0 0 512.9 -150.06 0 0 -695.79 220.24 0 238.57 481.09 4.31 0 239.67 -481.09 220.22 0 0 695.79zm400.59 -280.31l-326.03 -415.48 175.97 0 224.54 286.27 224.55 -286.27 175.96 0 -326.02 415.48 0 280.31 -148.97 0 0 -280.31zm490.19 288.26c-20.88,-3.31 -37.6,-11.76 -50.2,-25.34 -12.6,-13.59 -18.89,-30.98 -18.89,-52.19 0,-25.18 8.09,-44.73 24.29,-58.64 16.19,-13.92 37.96,-20.88 65.31,-20.88 27.35,0 49.11,7.46 65.31,22.37 16.19,14.91 24.29,37.27 24.29,67.09 0,15.24 -1.8,29.32 -5.39,42.25 -3.61,12.92 -6.85,23.35 -9.73,31.31l-37.78 106.35 -97.16 0 39.95 -112.32zm-10029.8 656.18l0 231.6 -150.06 0 0 -695.79 431.82 0c38.15,0 73.41,5.3 105.8,15.9 32.39,10.6 60.45,25.84 84.2,45.72 23.75,19.88 42.28,44.24 55.6,73.06 13.31,28.83 19.97,61.46 19.97,97.91 0,35.78 -6.66,68.09 -19.97,96.91 -13.32,28.83 -31.85,53.18 -55.6,73.06 -23.75,19.88 -51.81,35.12 -84.2,45.73 -32.39,10.6 -67.65,15.9 -105.8,15.9l-281.76 0zm281.76 -124.25c36.7,0 65.14,-9.94 85.28,-29.82 20.16,-19.88 30.23,-45.72 30.23,-77.53 0,-31.81 -10.07,-57.82 -30.23,-78.03 -20.14,-20.21 -48.58,-30.31 -85.28,-30.31l-281.76 0 0 215.69 281.76 0zm517.18 231.6l467.44 0 0 124.25 -617.5 0 0 -695.79 617.5 0 0 124.25 -467.44 0 0 153.07 419.94 0 0 120.27 -419.94 0 0 173.95zm594.9 -571.54l314.14 0c55.43,0 106.7,7.95 153.85,23.85 47.13,15.91 87.98,38.77 122.52,68.59 34.54,29.82 61.53,66.26 80.96,109.34 19.43,43.07 29.15,91.78 29.15,146.11 0,54.34 -9.72,103.05 -29.15,146.12 -19.43,43.07 -46.42,79.52 -80.96,109.34 -34.54,29.82 -75.39,52.68 -122.52,68.58 -47.15,15.91 -98.42,23.86 -153.85,23.86l-314.14 0 0 -695.79zm314.14 571.54c34.55,0 66.22,-4.97 95,-14.91 28.79,-9.94 53.81,-24.35 75.04,-43.24 21.22,-18.88 37.6,-42.24 49.11,-70.07 11.51,-27.84 17.28,-59.64 17.28,-95.43 0,-35.78 -5.77,-67.59 -17.28,-95.42 -11.51,-27.83 -27.89,-51.19 -49.11,-70.08 -21.23,-18.88 -46.25,-33.29 -75.04,-43.23 -28.78,-9.94 -60.45,-14.91 -95,-14.91l-164.08 0 0 447.29 164.08 0zm1054.8 124.25l-66.94 -148.1 -350.84 0 -66.94 148.1 -159.77 0 315.22 -695.79 173.82 0 315.22 695.79 -159.77 0zm-120.9 -271.36l-119.84 -262.41 -4.31 0 -118.75 262.41 242.9 0zm681.26 284.28c-53.98,0 -104.18,-8.61 -150.6,-25.84 -46.42,-17.23 -86.36,-41.58 -119.82,-73.06 -33.48,-31.48 -59.74,-69.41 -78.81,-113.81 -19.07,-44.4 -28.61,-93.77 -28.61,-148.11 0,-54.33 9.54,-103.7 28.61,-148.1 19.07,-44.4 45.88,-82.34 80.42,-113.81 34.55,-31.48 75.39,-55.83 122.53,-73.06 47.14,-17.23 98.78,-25.84 154.91,-25.84 45.34,0 87.45,5.63 126.31,16.89 38.86,11.27 73.77,27.34 104.72,48.21 30.94,20.88 57.57,46.39 79.88,76.54 22.32,30.15 39.95,63.78 52.9,100.89l-163.01 0c-18.71,-36.45 -44.98,-64.94 -78.81,-85.48 -33.82,-20.55 -74.48,-30.82 -121.99,-30.82 -35.26,0 -67.47,5.63 -96.62,16.9 -29.15,11.26 -54.15,27.17 -75.02,47.71 -20.88,20.54 -37.07,45.23 -48.58,74.05 -11.51,28.83 -17.27,60.8 -17.27,95.92 0,35.12 5.76,67.1 17.27,95.92 11.51,28.83 28.06,53.51 49.65,74.06 21.59,20.54 47.51,36.44 77.73,47.71 30.23,11.26 63.7,16.9 100.4,16.9 30.22,0 58.3,-3.65 84.2,-10.94 25.92,-7.29 49.13,-17.72 69.64,-31.31 20.51,-13.58 37.79,-29.98 51.82,-49.2 14.03,-19.22 23.92,-40.76 29.68,-64.61l-260.17 0 0 -114.31 388.64 0 0 383.68 -124.15 0 0 -89.46 -4.32 0c-28.78,33.8 -64.41,59.31 -106.87,76.54 -42.46,17.23 -90.69,25.84 -144.66,25.84zm872.34 0c-55.41,0 -107.05,-8.61 -154.92,-25.84 -47.85,-17.23 -89.24,-41.58 -124.15,-73.06 -34.9,-31.48 -62.25,-69.41 -82.04,-113.81 -19.79,-44.4 -29.68,-93.77 -29.68,-148.11 0,-54.33 9.89,-103.7 29.68,-148.1 19.79,-44.4 47.14,-82.34 82.04,-113.81 34.91,-31.48 76.3,-55.83 124.15,-73.06 47.87,-17.23 99.51,-25.84 154.92,-25.84 55.41,0 107.05,8.61 154.92,25.84 47.85,17.23 89.24,41.58 124.15,73.06 34.9,31.47 62.25,69.41 82.04,113.81 19.79,44.4 29.68,93.77 29.68,148.1 0,54.34 -9.89,103.71 -29.68,148.11 -19.79,44.4 -47.14,82.33 -82.04,113.81 -34.91,31.48 -76.3,55.83 -124.15,73.06 -47.87,17.23 -99.51,25.84 -154.92,25.84zm0 -126.23c34.55,0 66.58,-5.64 96.07,-16.9 29.51,-11.27 54.88,-27.17 76.12,-47.71 21.23,-20.55 37.97,-45.23 50.19,-74.06 12.24,-28.82 18.36,-60.8 18.36,-95.92 0,-35.12 -6.12,-67.09 -18.36,-95.92 -12.22,-28.82 -28.96,-53.51 -50.19,-74.05 -21.24,-20.54 -46.61,-36.45 -76.12,-47.71 -29.49,-11.27 -61.52,-16.9 -96.07,-16.9 -34.55,0 -66.58,5.63 -96.08,16.9 -29.5,11.26 -55.06,27.17 -76.65,47.71 -21.59,20.54 -38.5,45.23 -50.74,74.05 -12.23,28.83 -18.34,60.8 -18.34,95.92 0,35.12 6.11,67.1 18.34,95.92 12.24,28.83 29.15,53.51 50.74,74.06 21.59,20.54 47.15,36.44 76.65,47.71 29.5,11.26 61.53,16.9 96.08,16.9zm855.08 126.23c-53.98,0 -104.18,-8.61 -150.6,-25.84 -46.42,-17.23 -86.36,-41.58 -119.83,-73.06 -33.47,-31.48 -59.73,-69.41 -78.8,-113.81 -19.07,-44.4 -28.61,-93.77 -28.61,-148.11 0,-54.33 9.54,-103.7 28.61,-148.1 19.07,-44.4 45.88,-82.34 80.42,-113.81 34.55,-31.48 75.39,-55.83 122.53,-73.06 47.14,-17.23 98.78,-25.84 154.91,-25.84 45.34,0 87.45,5.63 126.31,16.89 38.86,11.27 73.77,27.34 104.72,48.21 30.94,20.88 57.57,46.39 79.88,76.54 22.32,30.15 39.95,63.78 52.9,100.89l-163.01 0c-18.71,-36.45 -44.98,-64.94 -78.81,-85.48 -33.82,-20.55 -74.48,-30.82 -121.99,-30.82 -35.26,0 -67.47,5.63 -96.62,16.9 -29.15,11.26 -54.15,27.17 -75.02,47.71 -20.88,20.54 -37.07,45.23 -48.58,74.05 -11.51,28.83 -17.27,60.8 -17.27,95.92 0,35.12 5.76,67.1 17.27,95.92 11.51,28.83 28.06,53.51 49.65,74.06 21.59,20.54 47.51,36.44 77.73,47.71 30.23,11.26 63.7,16.9 100.4,16.9 30.22,0 58.3,-3.65 84.2,-10.94 25.92,-7.29 49.13,-17.72 69.64,-31.31 20.51,-13.58 37.79,-29.98 51.82,-49.2 14.03,-19.22 23.92,-40.76 29.68,-64.61l-260.17 0 0 -114.31 388.64 0 0 383.68 -124.15 0 0 -89.46 -4.32 0c-28.78,33.8 -64.41,59.31 -106.87,76.54 -42.46,17.23 -90.69,25.84 -144.66,25.84zm737.41 -293.23l-326.03 -415.48 175.96 0 224.55 286.27 224.54 -286.27 175.97 0 -326.02 415.48 0 280.31 -148.97 0 0 -280.31zm1392.68 280.31l-66.94 -148.1 -350.84 0 -66.94 148.1 -159.77 0 315.22 -695.79 173.82 0 315.22 695.79 -159.77 0zm-120.9 -271.36l-119.84 -262.41 -4.31 0 -118.75 262.41 242.9 0zm1053.7 271.36l-186.76 0 -356.25 -492.03 -4.31 0 0 492.03 -150.06 0 0 -695.79 185.68 0 357.33 492.02 4.31 0 0 -492.02 150.06 0 0 695.79zm150.13 -695.79l314.15 0c55.42,0 106.69,7.95 153.84,23.85 47.14,15.91 87.98,38.77 122.52,68.59 34.55,29.82 61.54,66.26 80.97,109.34 19.43,43.07 29.15,91.78 29.15,146.11 0,54.34 -9.72,103.05 -29.15,146.12 -19.43,43.07 -46.42,79.52 -80.97,109.34 -34.54,29.82 -75.38,52.68 -122.52,68.58 -47.15,15.91 -98.42,23.86 -153.84,23.86l-314.15 0 0 -695.79zm314.15 571.54c34.55,0 66.22,-4.97 95,-14.91 28.79,-9.94 53.8,-24.35 75.03,-43.24 21.23,-18.88 37.6,-42.24 49.12,-70.07 11.51,-27.84 17.28,-59.64 17.28,-95.43 0,-35.78 -5.77,-67.59 -17.28,-95.42 -11.52,-27.83 -27.89,-51.19 -49.12,-70.08 -21.23,-18.88 -46.24,-33.29 -75.03,-43.23 -28.78,-9.94 -60.45,-14.91 -95,-14.91l-164.09 0 0 447.29 164.09 0zm-8485.97 450.42l-290.4 0 0 -126.23 730.85 0 0 126.23 -290.39 0 0 569.56 -150.06 0 0 -569.56zm692.06 445.31l467.44 0 0 124.25 -617.5 0 0 -695.79 617.5 0 0 124.25 -467.44 0 0 153.07 419.94 0 0 120.27 -419.94 0 0 173.95zm925.24 137.17c-56.14,0 -107.6,-8.61 -154.38,-25.84 -46.77,-17.23 -87.08,-41.58 -120.91,-73.06 -33.82,-31.48 -60.26,-69.41 -79.34,-113.81 -19.07,-44.4 -28.6,-93.77 -28.6,-148.11 0,-54.33 9.53,-103.7 28.6,-148.1 19.08,-44.4 45.52,-82.34 79.34,-113.81 33.83,-31.48 74.14,-55.83 120.91,-73.06 46.78,-17.23 98.24,-25.84 154.38,-25.84 48.22,0 93.02,6.29 134.4,18.88 41.39,12.59 78.09,30.65 110.12,54.17 32.03,23.53 59.19,52.02 81.51,85.49 22.3,33.46 38.14,71.07 47.49,112.81l-157.61 0c-16.55,-45.06 -43,-80.51 -79.35,-106.35 -36.34,-25.85 -81.87,-38.77 -136.56,-38.77 -35.27,0 -67.29,5.63 -96.08,16.9 -28.79,11.26 -53.44,27.17 -73.95,47.71 -20.51,20.54 -36.35,45.23 -47.5,74.05 -11.15,28.83 -16.73,60.8 -16.73,95.92 0,35.12 5.58,67.1 16.73,95.92 11.15,28.83 26.99,53.51 47.5,74.06 20.51,20.54 45.16,36.44 73.95,47.71 28.79,11.26 60.81,16.9 96.08,16.9 54.69,0 100.22,-12.93 136.56,-38.77 36.35,-25.84 62.8,-61.3 79.35,-106.36l157.61 0c-9.35,41.75 -25.19,79.36 -47.49,112.82 -22.32,33.46 -49.48,61.96 -81.51,85.48 -32.03,23.53 -68.73,41.59 -110.12,54.18 -41.38,12.59 -86.18,18.88 -134.4,18.88zm482.63 -708.71l150.06 0 0 274.34 372.44 0 0 -274.34 150.06 0 0 695.79 -150.06 0 0 -295.22 -372.44 0 0 295.22 -150.06 0 0 -695.79zm1518.99 695.79l-186.76 0 -356.26 -492.03 -4.31 0 0 492.03 -150.06 0 0 -695.79 185.69 0 357.33 492.02 4.31 0 0 -492.02 150.06 0 0 695.79zm509.62 12.92c-55.41,0 -107.06,-8.61 -154.92,-25.84 -47.85,-17.23 -89.24,-41.58 -124.15,-73.06 -34.91,-31.48 -62.25,-69.41 -82.04,-113.81 -19.79,-44.4 -29.68,-93.77 -29.68,-148.11 0,-54.33 9.89,-103.7 29.68,-148.1 19.79,-44.4 47.13,-82.34 82.04,-113.81 34.91,-31.48 76.3,-55.83 124.15,-73.06 47.86,-17.23 99.51,-25.84 154.92,-25.84 55.41,0 107.05,8.61 154.91,25.84 47.86,17.23 89.25,41.58 124.15,73.06 34.91,31.47 62.26,69.41 82.05,113.81 19.78,44.4 29.68,93.77 29.68,148.1 0,54.34 -9.9,103.71 -29.68,148.11 -19.79,44.4 -47.14,82.33 -82.05,113.81 -34.9,31.48 -76.29,55.83 -124.15,73.06 -47.86,17.23 -99.5,25.84 -154.91,25.84zm0 -126.23c34.55,0 66.57,-5.64 96.07,-16.9 29.51,-11.27 54.88,-27.17 76.11,-47.71 21.24,-20.55 37.97,-45.23 50.2,-74.06 12.24,-28.82 18.36,-60.8 18.36,-95.92 0,-35.12 -6.12,-67.09 -18.36,-95.92 -12.23,-28.82 -28.96,-53.51 -50.2,-74.05 -21.23,-20.54 -46.6,-36.45 -76.11,-47.71 -29.5,-11.27 -61.52,-16.9 -96.07,-16.9 -34.55,0 -66.58,5.63 -96.09,16.9 -29.5,11.26 -55.05,27.17 -76.64,47.71 -21.59,20.54 -38.5,45.23 -50.74,74.05 -12.23,28.83 -18.35,60.8 -18.35,95.92 0,35.12 6.12,67.1 18.35,95.92 12.24,28.83 29.15,53.51 50.74,74.06 21.59,20.54 47.14,36.44 76.64,47.71 29.51,11.26 61.54,16.9 96.09,16.9zm508.54 -582.48l150.06 0 0 566.57 465.29 0 0 129.22 -615.35 0 0 -695.79zm1046.16 708.71c-55.41,0 -107.06,-8.61 -154.92,-25.84 -47.85,-17.23 -89.24,-41.58 -124.15,-73.06 -34.9,-31.48 -62.25,-69.41 -82.04,-113.81 -19.79,-44.4 -29.68,-93.77 -29.68,-148.11 0,-54.33 9.89,-103.7 29.68,-148.1 19.79,-44.4 47.14,-82.34 82.04,-113.81 34.91,-31.48 76.3,-55.83 124.15,-73.06 47.86,-17.23 99.51,-25.84 154.92,-25.84 55.41,0 107.05,8.61 154.92,25.84 47.85,17.23 89.24,41.58 124.15,73.06 34.9,31.47 62.25,69.41 82.04,113.81 19.79,44.4 29.68,93.77 29.68,148.1 0,54.34 -9.89,103.71 -29.68,148.11 -19.79,44.4 -47.14,82.33 -82.04,113.81 -34.91,31.48 -76.3,55.83 -124.15,73.06 -47.87,17.23 -99.51,25.84 -154.92,25.84zm0 -126.23c34.55,0 66.58,-5.64 96.07,-16.9 29.51,-11.27 54.88,-27.17 76.11,-47.71 21.24,-20.55 37.97,-45.23 50.2,-74.06 12.24,-28.82 18.36,-60.8 18.36,-95.92 0,-35.12 -6.12,-67.09 -18.36,-95.92 -12.23,-28.82 -28.96,-53.51 -50.2,-74.05 -21.23,-20.54 -46.6,-36.45 -76.11,-47.71 -29.49,-11.27 -61.52,-16.9 -96.07,-16.9 -34.55,0 -66.58,5.63 -96.09,16.9 -29.49,11.26 -55.05,27.17 -76.64,47.71 -21.59,20.54 -38.5,45.23 -50.74,74.05 -12.23,28.83 -18.35,60.8 -18.35,95.92 0,35.12 6.12,67.1 18.35,95.92 12.24,28.83 29.15,53.51 50.74,74.06 21.59,20.54 47.15,36.44 76.64,47.71 29.51,11.26 61.54,16.9 96.09,16.9zm855.07 126.23c-53.97,0 -104.17,-8.61 -150.59,-25.84 -46.42,-17.23 -86.36,-41.58 -119.83,-73.06 -33.47,-31.48 -59.73,-69.41 -78.8,-113.81 -19.07,-44.4 -28.61,-93.77 -28.61,-148.11 0,-54.33 9.54,-103.7 28.61,-148.1 19.07,-44.4 45.87,-82.34 80.42,-113.81 34.55,-31.48 75.39,-55.83 122.53,-73.06 47.14,-17.23 98.78,-25.84 154.91,-25.84 45.34,0 87.45,5.63 126.31,16.89 38.86,11.27 73.77,27.34 104.72,48.21 30.94,20.88 57.57,46.39 79.88,76.54 22.32,30.15 39.94,63.78 52.9,100.89l-163.01 0c-18.71,-36.45 -44.98,-64.94 -78.81,-85.48 -33.82,-20.55 -74.49,-30.82 -121.99,-30.82 -35.27,0 -67.47,5.63 -96.62,16.9 -29.15,11.26 -54.15,27.17 -75.02,47.71 -20.88,20.54 -37.07,45.23 -48.58,74.05 -11.52,28.83 -17.27,60.8 -17.27,95.92 0,35.12 5.75,67.1 17.27,95.92 11.51,28.83 28.06,53.51 49.65,74.06 21.59,20.54 47.51,36.44 77.73,47.71 30.23,11.26 63.7,16.9 100.4,16.9 30.22,0 58.3,-3.65 84.2,-10.94 25.91,-7.29 49.12,-17.72 69.64,-31.31 20.51,-13.58 37.78,-29.98 51.82,-49.2 14.03,-19.22 23.92,-40.76 29.68,-64.61l-260.17 0 0 -114.31 388.64 0 0 383.68 -124.15 0 0 -89.46 -4.32 0c-28.78,33.8 -64.42,59.31 -106.87,76.54 -42.47,17.23 -90.69,25.84 -144.67,25.84z"/>
   <path class="fil3" d="M1471.13 16724.47c-27.8,0 -53.81,-2.28 -78.03,-6.85 -24.22,-4.56 -45.66,-12.41 -64.33,-23.52 -18.66,-11.12 -33.95,-26.01 -45.86,-44.68 -11.91,-18.66 -19.06,-41.89 -21.44,-69.68l85.77 0c2.78,14.29 7.84,26.11 15.19,35.44 7.34,9.33 16.48,16.87 27.4,22.63 10.92,5.76 23.23,9.73 36.92,11.91 13.7,2.19 28.49,3.28 44.38,3.28 11.91,0 23.72,-0.7 35.44,-2.09 11.71,-1.39 22.04,-3.97 30.97,-7.74 8.93,-3.77 16.18,-9.03 21.74,-15.78 5.56,-6.75 8.34,-15.49 8.34,-26.21 0,-12.71 -4.17,-22.63 -12.51,-29.78 -8.34,-7.15 -19.36,-12.71 -33.06,-16.68 -13.7,-3.97 -29.28,-7.15 -46.75,-9.53 -17.47,-2.38 -35.24,-4.96 -53.31,-7.74 -18.07,-2.78 -35.84,-6.55 -53.31,-11.32 -17.47,-4.76 -33.06,-11.61 -46.75,-20.55 -13.7,-8.93 -24.72,-20.74 -33.06,-35.44 -8.34,-14.69 -12.51,-33.35 -12.51,-55.98 0,-26.61 5.96,-47.95 17.87,-64.03 11.91,-16.09 26.7,-28.4 44.37,-36.93 17.67,-8.54 36.63,-14.2 56.88,-16.98 20.26,-2.78 38.72,-4.17 55.4,-4.17 25.81,0 49.63,2.39 71.47,7.15 21.84,4.77 41,12.41 57.48,22.93 16.48,10.52 29.98,24.22 40.5,41.1 10.52,16.88 16.98,37.23 19.36,61.05l-86.37 0c-1.58,-10.72 -5.36,-19.95 -11.31,-27.7 -5.96,-7.74 -13.5,-13.99 -22.64,-18.76 -9.13,-4.76 -19.55,-8.34 -31.27,-10.72 -11.71,-2.38 -24.12,-3.57 -37.22,-3.57 -11.52,0 -22.84,0.89 -33.95,2.68 -11.12,1.78 -20.95,4.66 -29.49,8.63 -8.53,3.97 -15.38,9.14 -20.55,15.49 -5.16,6.35 -7.74,14.3 -7.74,23.83 0,11.91 4.17,21.14 12.51,27.69 8.34,6.55 19.36,11.81 33.06,15.79 13.7,3.97 29.28,7.04 46.75,9.23 17.47,2.18 35.24,4.86 53.31,8.04 18.07,3.17 35.84,7.24 53.31,12.21 17.47,4.96 33.06,12.11 46.75,21.44 13.7,9.33 24.72,21.44 33.06,36.33 8.34,14.89 12.51,33.66 12.51,56.29 0,26.21 -5.46,47.35 -16.38,63.43 -10.92,16.08 -24.92,28.59 -41.99,37.53 -17.08,8.93 -36.23,14.89 -57.48,17.87 -21.24,2.97 -42.39,4.46 -63.43,4.46zm447.91 0c-30.97,0 -59.36,-5.16 -85.18,-15.48 -25.81,-10.33 -48.04,-24.92 -66.7,-43.78 -18.67,-18.86 -33.26,-41.6 -43.78,-68.2 -10.53,-26.6 -15.79,-56.19 -15.79,-88.75 0,-32.56 5.26,-62.14 15.79,-88.74 10.52,-26.61 25.11,-49.34 43.78,-68.2 18.66,-18.86 40.89,-33.46 66.7,-43.78 25.82,-10.33 54.21,-15.49 85.18,-15.49 26.6,0 51.32,3.78 74.15,11.32 22.84,7.54 43.09,18.36 60.76,32.46 17.67,14.1 32.66,31.17 44.97,51.22 12.31,20.06 21.04,42.59 26.2,67.61l-86.96 0c-9.13,-27 -23.72,-48.25 -43.78,-63.73 -20.05,-15.49 -45.16,-23.23 -75.34,-23.23 -19.46,0 -37.13,3.37 -53.01,10.12 -15.88,6.75 -29.48,16.28 -40.8,28.59 -11.32,12.31 -20.05,27.1 -26.21,44.38 -6.15,17.27 -9.23,36.43 -9.23,57.47 0,21.05 3.08,40.21 9.23,57.48 6.16,17.27 14.89,32.06 26.21,44.37 11.32,12.31 24.92,21.84 40.8,28.59 15.88,6.75 33.55,10.13 53.01,10.13 30.18,0 55.29,-7.74 75.34,-23.23 20.06,-15.49 34.65,-36.73 43.78,-63.73l86.96 0c-5.16,25.01 -13.89,47.55 -26.2,67.6 -12.31,20.05 -27.3,37.13 -44.97,51.22 -17.67,14.1 -37.92,24.92 -60.76,32.47 -22.83,7.54 -47.55,11.31 -74.15,11.31zm282.33 -424.67l82.79 0 0 416.93 -82.79 0 0 -416.93zm263.86 342.48l257.9 0 0 74.45 -340.69 0 0 -416.93 340.69 0 0 74.45 -257.9 0 0 91.72 231.69 0 0 72.07 -231.69 0 0 104.24zm729.04 74.45l-103.05 0 -196.55 -294.83 -2.38 0 0 294.83 -82.79 0 0 -416.93 102.44 0 197.15 294.83 2.39 0 0 -294.83 82.79 0 0 416.93zm232.29 -341.29l-160.23 0 0 -75.64 403.24 0 0 75.64 -160.22 0 0 341.29 -82.79 0 0 -341.29zm315.08 -75.64l82.79 0 0 416.93 -82.79 0 0 -416.93zm263.86 416.93l-82.79 0 0 -416.93 340.69 0 0 74.45 -257.9 0 0 103.64 231.69 0 0 72.07 -231.69 0 0 166.77zm335.93 -416.93l82.79 0 0 416.93 -82.79 0 0 -416.93zm375.24 424.67c-30.97,0 -59.36,-5.16 -85.18,-15.48 -25.81,-10.33 -48.04,-24.92 -66.7,-43.78 -18.67,-18.86 -33.26,-41.6 -43.78,-68.2 -10.53,-26.6 -15.79,-56.19 -15.79,-88.75 0,-32.56 5.26,-62.14 15.79,-88.74 10.52,-26.61 25.11,-49.34 43.78,-68.2 18.66,-18.86 40.89,-33.46 66.7,-43.78 25.82,-10.33 54.21,-15.49 85.18,-15.49 26.6,0 51.32,3.78 74.15,11.32 22.84,7.54 43.09,18.36 60.76,32.46 17.67,14.1 32.66,31.17 44.97,51.22 12.31,20.06 21.04,42.59 26.2,67.61l-86.96 0c-9.13,-27 -23.72,-48.25 -43.78,-63.73 -20.05,-15.49 -45.16,-23.23 -75.34,-23.23 -19.46,0 -37.13,3.37 -53.01,10.12 -15.88,6.75 -29.48,16.28 -40.8,28.59 -11.32,12.31 -20.05,27.1 -26.21,44.38 -6.15,17.27 -9.23,36.43 -9.23,57.47 0,21.05 3.08,40.21 9.23,57.48 6.16,17.27 14.89,32.06 26.21,44.37 11.32,12.31 24.92,21.84 40.8,28.59 15.88,6.75 33.55,10.13 53.01,10.13 30.18,0 55.29,-7.74 75.34,-23.23 20.06,-15.49 34.65,-36.73 43.78,-63.73l86.96 0c-5.16,25.01 -13.89,47.55 -26.2,67.6 -12.31,20.05 -27.3,37.13 -44.97,51.22 -17.67,14.1 -37.92,24.92 -60.76,32.47 -22.83,7.54 -47.55,11.31 -74.15,11.31zm515.22 -82.19l257.9 0 0 74.45 -340.69 0 0 -416.93 340.69 0 0 74.45 -257.9 0 0 91.72 231.69 0 0 72.07 -231.69 0 0 104.24zm344.27 -342.48l82.79 0 0 339.5 256.71 0 0 77.43 -339.5 0 0 -416.93zm494.36 342.48l257.9 0 0 74.45 -340.69 0 0 -416.93 340.69 0 0 74.45 -257.9 0 0 91.72 231.69 0 0 72.07 -231.69 0 0 104.24zm526.53 82.19c-30.97,0 -59.36,-5.16 -85.18,-15.48 -25.81,-10.33 -48.04,-24.92 -66.7,-43.78 -18.67,-18.86 -33.26,-41.6 -43.78,-68.2 -10.53,-26.6 -15.79,-56.19 -15.79,-88.75 0,-32.56 5.26,-62.14 15.79,-88.74 10.52,-26.61 25.11,-49.34 43.78,-68.2 18.66,-18.86 40.89,-33.46 66.7,-43.78 25.82,-10.33 54.21,-15.49 85.18,-15.49 26.6,0 51.32,3.78 74.15,11.32 22.84,7.54 43.09,18.36 60.76,32.46 17.67,14.1 32.66,31.17 44.97,51.22 12.31,20.06 21.04,42.59 26.2,67.61l-86.96 0c-9.13,-27 -23.72,-48.25 -43.78,-63.73 -20.05,-15.49 -45.16,-23.23 -75.34,-23.23 -19.46,0 -37.13,3.37 -53.01,10.12 -15.88,6.75 -29.48,16.28 -40.8,28.59 -11.32,12.31 -20.05,27.1 -26.21,44.38 -6.15,17.27 -9.23,36.43 -9.23,57.47 0,21.05 3.08,40.21 9.23,57.48 6.16,17.27 14.89,32.06 26.21,44.37 11.32,12.31 24.92,21.84 40.8,28.59 15.88,6.75 33.55,10.13 53.01,10.13 30.18,0 55.29,-7.74 75.34,-23.23 20.06,-15.49 34.65,-36.73 43.78,-63.73l86.96 0c-5.16,25.01 -13.89,47.55 -26.2,67.6 -12.31,20.05 -27.3,37.13 -44.97,51.22 -17.67,14.1 -37.92,24.92 -60.76,32.47 -22.83,7.54 -47.55,11.31 -74.15,11.31zm402.64 -349.03l-160.23 0 0 -75.64 403.24 0 0 75.64 -160.22 0 0 341.29 -82.79 0 0 -341.29zm516.99 193.58l-119.12 0 0 147.71 -82.79 0 0 -416.93 238.24 0c21.05,0 40.51,2.97 58.38,8.93 17.86,5.96 33.35,14.69 46.45,26.21 13.11,11.51 23.33,25.61 30.68,42.29 7.34,16.67 11.02,35.73 11.02,57.18 0,33.75 -8.74,61.34 -26.21,82.79 -17.47,21.44 -40.5,36.13 -69.09,44.07l91.13 155.46 -92.32 0 -86.37 -147.71zm36.33 -74.46c20.26,0 35.94,-5.36 47.06,-16.08 11.12,-10.72 16.68,-25.41 16.68,-44.07 0,-18.67 -5.56,-33.36 -16.68,-44.08 -11.12,-10.72 -26.8,-16.08 -47.06,-16.08l-155.45 0 0 120.31 155.45 0zm415.15 229.91c-30.58,0 -59.07,-5.16 -85.47,-15.48 -26.41,-10.33 -49.24,-24.92 -68.5,-43.78 -19.26,-18.86 -34.35,-41.6 -45.27,-68.2 -10.92,-26.6 -16.38,-56.19 -16.38,-88.75 0,-32.56 5.46,-62.14 16.38,-88.74 10.92,-26.61 26.01,-49.34 45.27,-68.2 19.26,-18.86 42.09,-33.46 68.5,-43.78 26.4,-10.33 54.89,-15.49 85.47,-15.49 30.57,0 59.06,5.16 85.47,15.49 26.41,10.32 49.24,24.92 68.5,43.78 19.25,18.86 34.34,41.59 45.26,68.2 10.92,26.6 16.38,56.18 16.38,88.74 0,32.56 -5.46,62.15 -16.38,88.75 -10.92,26.6 -26.01,49.34 -45.26,68.2 -19.26,18.86 -42.09,33.45 -68.5,43.78 -26.41,10.32 -54.9,15.48 -85.47,15.48zm0 -75.64c19.06,0 36.73,-3.38 53.01,-10.13 16.28,-6.75 30.28,-16.28 41.99,-28.59 11.71,-12.31 20.95,-27.1 27.7,-44.37 6.75,-17.27 10.12,-36.43 10.12,-57.48 0,-21.04 -3.37,-40.2 -10.12,-57.47 -6.75,-17.28 -15.99,-32.07 -27.7,-44.38 -11.71,-12.31 -25.71,-21.84 -41.99,-28.59 -16.28,-6.75 -33.95,-10.12 -53.01,-10.12 -19.06,0 -36.73,3.37 -53.01,10.12 -16.28,6.75 -30.38,16.28 -42.29,28.59 -11.91,12.31 -21.25,27.1 -28,44.38 -6.75,17.27 -10.12,36.43 -10.12,57.47 0,21.05 3.37,40.21 10.12,57.48 6.75,17.27 16.09,32.06 28,44.37 11.91,12.31 26.01,21.84 42.29,28.59 16.28,6.75 33.95,10.13 53.01,10.13zm681.39 67.9l-103.05 0 -196.55 -294.83 -2.38 0 0 294.83 -82.79 0 0 -416.93 102.44 0 197.15 294.83 2.39 0 0 -294.83 82.79 0 0 416.93zm98.87 -416.93l82.79 0 0 416.93 -82.79 0 0 -416.93zm375.24 424.67c-30.97,0 -59.36,-5.16 -85.18,-15.48 -25.81,-10.33 -48.04,-24.92 -66.7,-43.78 -18.67,-18.86 -33.26,-41.6 -43.78,-68.2 -10.53,-26.6 -15.79,-56.19 -15.79,-88.75 0,-32.56 5.26,-62.14 15.79,-88.74 10.52,-26.61 25.11,-49.34 43.78,-68.2 18.66,-18.86 40.89,-33.46 66.7,-43.78 25.82,-10.33 54.21,-15.49 85.18,-15.49 26.6,0 51.32,3.78 74.15,11.32 22.84,7.54 43.09,18.36 60.76,32.46 17.67,14.1 32.66,31.17 44.97,51.22 12.31,20.06 21.04,42.59 26.2,67.61l-86.96 0c-9.13,-27 -23.72,-48.25 -43.78,-63.73 -20.05,-15.49 -45.16,-23.23 -75.34,-23.23 -19.46,0 -37.13,3.37 -53.01,10.12 -15.88,6.75 -29.48,16.28 -40.8,28.59 -11.32,12.31 -20.05,27.1 -26.21,44.38 -6.15,17.27 -9.23,36.43 -9.23,57.47 0,21.05 3.08,40.21 9.23,57.48 6.16,17.27 14.89,32.06 26.21,44.37 11.32,12.31 24.92,21.84 40.8,28.59 15.88,6.75 33.55,10.13 53.01,10.13 30.18,0 55.29,-7.74 75.34,-23.23 20.06,-15.49 34.65,-36.73 43.78,-63.73l86.96 0c-5.16,25.01 -13.89,47.55 -26.2,67.6 -12.31,20.05 -27.3,37.13 -44.97,51.22 -17.67,14.1 -37.92,24.92 -60.76,32.47 -22.83,7.54 -47.55,11.31 -74.15,11.31zm-7858.62 583.96l223.36 0c13.5,0 22.44,-2.28 26.8,-6.85 4.37,-4.57 6.56,-13.4 6.56,-26.51l0 -306.14 82.79 0 0 319.25c0,17.87 -1.69,33.06 -5.07,45.56 -3.37,12.51 -8.93,22.64 -16.67,30.38 -7.75,7.74 -17.87,13.3 -30.38,16.68 -12.51,3.37 -27.7,5.06 -45.56,5.06l-241.83 0 0 -77.43zm633.15 85.17c-30.58,0 -59.07,-5.16 -85.47,-15.48 -26.41,-10.33 -49.24,-24.92 -68.5,-43.78 -19.26,-18.86 -34.35,-41.6 -45.27,-68.2 -10.92,-26.6 -16.38,-56.19 -16.38,-88.75 0,-32.56 5.46,-62.14 16.38,-88.74 10.92,-26.61 26.01,-49.34 45.27,-68.2 19.26,-18.86 42.09,-33.46 68.5,-43.78 26.4,-10.33 54.89,-15.49 85.47,-15.49 30.57,0 59.06,5.16 85.47,15.49 26.41,10.32 49.24,24.92 68.5,43.78 19.25,18.86 34.34,41.59 45.26,68.2 10.92,26.6 16.38,56.18 16.38,88.74 0,32.56 -5.46,62.15 -16.38,88.75 -10.92,26.6 -26.01,49.34 -45.26,68.2 -19.26,18.86 -42.09,33.45 -68.5,43.78 -26.41,10.32 -54.9,15.48 -85.47,15.48zm0 -75.64c19.06,0 36.73,-3.38 53.01,-10.13 16.28,-6.75 30.28,-16.28 41.99,-28.59 11.71,-12.31 20.95,-27.1 27.7,-44.37 6.75,-17.27 10.12,-36.43 10.12,-57.48 0,-21.04 -3.37,-40.2 -10.12,-57.47 -6.75,-17.28 -15.99,-32.07 -27.7,-44.38 -11.71,-12.31 -25.71,-21.84 -41.99,-28.59 -16.28,-6.75 -33.95,-10.12 -53.01,-10.12 -19.06,0 -36.73,3.37 -53.01,10.12 -16.28,6.75 -30.38,16.28 -42.29,28.59 -11.91,12.31 -21.25,27.1 -28,44.38 -6.75,17.27 -10.12,36.43 -10.12,57.47 0,21.05 3.37,40.21 10.12,57.48 6.75,17.27 16.09,32.06 28,44.37 11.91,12.31 26.01,21.84 42.29,28.59 16.28,6.75 33.95,10.13 53.01,10.13zm477.09 75.64c-28.19,0 -53.9,-4.27 -77.13,-12.8 -23.23,-8.54 -43.09,-21.15 -59.57,-37.82 -16.47,-16.68 -29.28,-37.33 -38.41,-61.95 -9.14,-24.62 -13.7,-52.81 -13.7,-84.58l0 -227.52 82.79 0 0 227.52c0,20.65 2.68,38.62 8.04,53.91 5.36,15.28 12.71,27.99 22.04,38.12 9.33,10.12 20.45,17.57 33.35,22.33 12.91,4.77 27.1,7.15 42.59,7.15 15.09,0 29.09,-2.38 41.99,-7.15 12.91,-4.76 24.12,-12.21 33.65,-22.33 9.53,-10.13 16.98,-22.84 22.34,-38.12 5.36,-15.29 8.04,-33.26 8.04,-53.91l0 -227.52 82.2 0 0 227.52c0,31.77 -4.57,59.96 -13.7,84.58 -9.14,24.62 -21.94,45.27 -38.42,61.95 -16.48,16.67 -36.24,29.28 -59.27,37.82 -23.03,8.53 -48.64,12.8 -76.83,12.8zm480.66 -155.45l-119.12 0 0 147.71 -82.79 0 0 -416.93 238.24 0c21.05,0 40.51,2.97 58.38,8.93 17.86,5.96 33.35,14.69 46.45,26.21 13.11,11.51 23.33,25.61 30.68,42.29 7.34,16.67 11.02,35.73 11.02,57.18 0,33.75 -8.74,61.34 -26.21,82.79 -17.47,21.44 -40.5,36.13 -69.09,44.07l91.13 155.46 -92.32 0 -86.37 -147.71zm36.33 -74.46c20.26,0 35.94,-5.36 47.06,-16.08 11.12,-10.72 16.68,-25.41 16.68,-44.07 0,-18.67 -5.56,-33.36 -16.68,-44.08 -11.12,-10.72 -26.8,-16.08 -47.06,-16.08l-155.45 0 0 120.31 155.45 0zm603.37 222.17l-103.05 0 -196.55 -294.83 -2.38 0 0 294.83 -82.79 0 0 -416.93 102.44 0 197.15 294.83 2.39 0 0 -294.83 82.79 0 0 416.93zm413.95 0l-36.93 -88.75 -193.58 0 -36.92 88.75 -88.16 0 173.93 -416.93 95.89 0 173.92 416.93 -88.15 0zm-66.71 -162.6l-66.11 -157.25 -2.39 0 -65.51 157.25 134.01 0zm212.64 -254.33l82.79 0 0 339.5 256.71 0 0 77.43 -339.5 0 0 -416.93z"/>
   <polygon class="fil2" points="-5.77,5888.49 14180.68,14748.02 -5.77,23607.56 -5.77,29700 20991.51,16498.32 20991.51,13166.58 -4.92,4.37 -5.77,4.37 "/>
   <g style="clip-path:url(#id10)">
    <g>
     <image x="-16198.34" y="1911.48" width="51271.29" height="29696.17" xlink:href="oblojka final (17 ver) kriv 2 1_Images\oblojka final (17 ver) kriv 2 1_ImgID4.png"/>
    </g>
    <g style="clip-path:url(#id11)">
     <image x="-16198.34" y="-27784.67" width="51271.29" height="29696.16" xlink:href="oblojka final (17 ver) kriv 2 1_Images\oblojka final (17 ver) kriv 2 1_ImgID5.png"/>
    </g>
    <g style="clip-path:url(#id12)">
    </g>
   </g>
   <polygon class="fil1" points="-5.77,5888.49 14180.68,14748.02 -5.77,23607.56 -5.77,29700 20991.51,16498.32 20991.51,13166.58 -4.92,4.37 -5.77,4.37 "/>
   <path class="fil4" d="M18721.58 3.84l-7908.52 0 0 8060.34 7908.52 4957.67 0 -13018.01zm-7908.52 21681.94l0 8014.75 7908.52 0 0 -12972.42 -7908.52 4957.67z"/>
   <polygon class="fil5" style="mask:url(#id13)" points="18721.58,16728.11 18721.58,17956.92 20991.51,16498.32 20991.51,15308.46 "/>
   <polygon class="fil6" style="mask:url(#id15)" points="-5.77,28471.19 -5.77,29700 10813.06,22875.63 10813.06,21685.78 "/>
   <g style="clip-path:url(#id17)">
   </g>
   <g style="clip-path:url(#id18)">
    <image x="8446.09" y="33.46" width="12289.84" height="24011.96" xlink:href="oblojka final (17 ver) kriv 2 1_Images\oblojka final (17 ver) kriv 2 1_ImgID6.png"/>
   </g>
   <g style="clip-path:url(#id19)">
   </g>
   <g style="clip-path:url(#id20)">
    <image x="8367.25" y="5641.11" width="12447.52" height="24320.02" xlink:href="oblojka final (17 ver) kriv 2 1_Images\oblojka final (17 ver) kriv 2 1_ImgID7.png"/>
   </g>
   <polygon class="fil6" style="mask:url(#id21)" points="18721.58,13021.85 18721.58,11743.61 20991.51,13166.58 20991.51,14441.49 "/>
   <polygon class="fil5" style="mask:url(#id23)" points="-5.77,1229.34 -5.77,0.53 10813.06,6785.93 10813.06,8064.18 "/>
   <path class="fil7" d="M13542.66 3041.38c1.24,674.83 503.41,1232.25 1179.86,1281.22 16.9,-355.63 2.72,-1089.23 2.57,-1483.93l-1182.43 0 0 202.71zm1266.89 -287.16l1182.44 0 0 -1131.77 -1182.44 0 0 1131.77zm484.05 -328.91c18.74,0 34.22,-1.56 46.43,-4.69 12.21,-3.12 22.01,-7.38 29.39,-12.78 7.38,-5.39 12.49,-11.78 15.34,-19.16 2.84,-7.39 4.26,-15.62 4.26,-24.71 0,-19.31 -9.09,-35.35 -27.27,-48.13 -18.17,-12.77 -49.41,-26.55 -93.71,-41.32 -19.31,-6.81 -38.62,-14.62 -57.93,-23.43 -19.31,-8.8 -36.63,-19.87 -51.97,-33.22 -15.33,-13.34 -27.83,-29.53 -37.48,-48.56 -9.66,-19.03 -14.48,-42.18 -14.48,-69.44 0,-27.25 5.11,-51.82 15.33,-73.69 10.22,-21.86 24.7,-40.46 43.45,-55.8 18.75,-15.33 41.46,-27.11 68.15,-35.34 26.7,-8.25 56.8,-12.36 90.3,-12.36 39.76,0 74.12,4.26 103.09,12.77 28.96,8.52 52.82,17.9 71.56,28.12l-38.34 104.79c-16.46,-8.53 -34.78,-16.05 -54.94,-22.58 -20.16,-6.54 -44.45,-9.79 -72.84,-9.79 -31.81,0 -54.67,4.4 -68.59,13.2 -13.91,8.8 -20.86,22.28 -20.86,40.46 0,10.8 2.55,19.88 7.66,27.26 5.11,7.38 12.35,14.06 21.73,20.03 9.37,5.96 20.16,11.35 32.36,16.18 12.22,4.83 25.71,9.8 40.48,14.91 30.66,11.36 57.36,22.57 80.07,33.65 22.73,11.07 41.61,23.99 56.66,38.76 15.05,14.77 26.27,32.09 33.65,51.97 7.39,19.88 11.07,44.02 11.07,72.41 0,55.1 -19.31,97.84 -57.92,128.22 -38.63,30.38 -96.84,45.58 -174.65,45.58 -26.12,0 -49.69,-1.56 -70.71,-4.69 -21.02,-3.12 -39.61,-6.95 -55.8,-11.5 -16.19,-4.54 -30.1,-9.37 -41.75,-14.48 -11.64,-5.12 -21.44,-9.94 -29.38,-14.48l37.48 -105.64c17.6,9.65 39.33,18.31 65.16,25.98 25.85,7.67 57.51,11.5 95,11.5zm-1750.94 328.91l1182.43 0 0 -1131.77 -1182.43 0 0 1131.77zm650.39 -215.6c-41.46,0 -77.23,-5.82 -107.34,-17.46 -30.1,-11.65 -54.94,-27.83 -74.54,-48.57 -19.6,-20.73 -34.08,-45.43 -43.44,-74.12 -9.38,-28.68 -14.07,-60.33 -14.07,-94.99l0 -367.17 132.91 0 0 356.1c0,23.86 2.7,44.16 8.09,60.91 5.39,16.76 12.77,30.39 22.15,40.89 9.37,10.51 20.73,18.04 34.08,22.58 13.35,4.55 27.97,6.81 43.87,6.81 32.37,0 58.64,-9.93 78.8,-29.81 20.16,-19.88 30.25,-53.67 30.25,-101.38l0 -356.1 132.9 0 0 367.17c0,34.66 -4.83,66.46 -14.49,95.42 -9.66,28.96 -24.42,53.81 -44.3,74.54 -19.87,20.73 -45.15,36.78 -75.82,48.13 -30.66,11.37 -67.02,17.05 -109.05,17.05zm616.5 1718.98l2 65.02c676.43,-48.93 1179.76,-606.27 1180.44,-1281.24l0 -202.71 -1182.44 0 0 1418.93zm746.03 -1210.74l0 113.3 -178.06 0 0 477.08 -132.9 0 0 -477.08 -178.05 0 0 -113.3 489.01 0zm-1203.65 590.38c-6.67,-20.59 -13.62,-41.61 -21.29,-63.19 -7.53,-21.58 -15.06,-43.16 -22.58,-64.6l-230.58 0c-7.38,21.57 -14.91,43.16 -22.44,64.74 -7.38,21.72 -14.34,42.6 -20.87,63.05l-138.02 0c22.3,-63.62 43.32,-122.4 63.19,-176.36 20.02,-53.95 39.47,-104.78 58.64,-152.49 19.03,-47.7 37.77,-92.99 56.37,-135.88 18.46,-42.88 37.77,-84.76 57.64,-125.65l125.94 0c19.46,40.89 38.63,82.77 57.37,125.65 18.88,42.89 37.78,88.18 56.94,135.88 19.16,47.71 38.62,98.54 58.64,152.49 20.02,53.96 41.04,112.74 63.32,176.36l-142.27 0zm-159.73 -456.64c-2.99,8.53 -7.24,20.31 -13.06,34.94 -5.68,14.77 -12.21,31.8 -19.46,51.26 -7.24,19.3 -15.47,40.6 -24.42,63.88 -9.09,23.15 -18.17,47.58 -27.54,73.13l168.82 0c-8.94,-25.55 -17.75,-50.13 -26.26,-73.41 -8.39,-23.29 -16.48,-44.58 -24.15,-64.03 -7.52,-19.32 -14.19,-36.35 -20.01,-51.12 -5.68,-14.76 -10.37,-26.27 -13.92,-34.65z"/>
   <path class="fil0" d="M13161.91 5086.25c-29.22,0 -54.43,-4.11 -75.64,-12.31 -21.21,-8.21 -38.72,-19.62 -52.53,-34.23 -13.81,-14.6 -24.01,-32.01 -30.62,-52.23 -6.61,-20.21 -9.91,-42.52 -9.91,-66.94l0 -258.76 93.66 0 0 250.96c0,16.81 1.9,31.11 5.7,42.93 3.8,11.8 9.01,21.4 15.61,28.81 6.6,7.4 14.62,12.71 24.01,15.91 9.41,3.2 19.71,4.8 30.92,4.8 22.82,0 41.34,-7 55.54,-21.01 14.21,-14.01 21.31,-37.82 21.31,-71.44l0 -250.96 93.65 0 0 258.76c0,24.42 -3.39,46.83 -10.19,67.24 -6.81,20.42 -17.22,37.92 -31.22,52.53 -14.01,14.61 -31.83,25.93 -53.43,33.93 -21.62,8 -47.24,12.01 -76.86,12.01zm-133.12 226.63c0,7.51 0.92,14.28 2.77,20.33 1.84,6.03 4.48,11.23 7.95,15.57 3.46,4.34 7.69,7.71 12.7,10.05 5.01,2.37 10.76,3.55 17.25,3.55 6.33,0 12.04,-1.18 17.12,-3.55 5.08,-2.34 9.35,-5.71 12.82,-10.05 3.46,-4.34 6.11,-9.54 7.95,-15.57 1.84,-6.05 2.76,-12.82 2.76,-20.33 0,-7.52 -0.92,-14.34 -2.76,-20.44 -1.84,-6.12 -4.49,-11.36 -7.95,-15.7 -3.47,-4.35 -7.74,-7.7 -12.82,-10.05 -5.08,-2.36 -10.79,-3.54 -17.12,-3.54 -6.49,0 -12.24,1.22 -17.25,3.65 -5.01,2.43 -9.24,5.82 -12.7,10.16 -3.47,4.35 -6.11,9.57 -7.95,15.69 -1.85,6.12 -2.77,12.86 -2.77,20.23zm116.9 0c0,13.1 -1.95,24.63 -5.85,34.58 -3.91,9.94 -9.24,18.27 -16.03,24.97 -6.77,6.7 -14.83,11.74 -24.2,15.13 -9.34,3.39 -19.4,5.08 -30.15,5.08 -10.46,0 -20.34,-1.69 -29.61,-5.08 -9.29,-3.39 -17.39,-8.43 -24.32,-15.13 -6.91,-6.7 -12.38,-15.03 -16.35,-24.97 -3.98,-9.95 -5.96,-21.48 -5.96,-34.58 0,-13.12 2.06,-24.64 6.18,-34.59 4.12,-9.94 9.69,-18.3 16.69,-25.09 6.99,-6.77 15.1,-11.85 24.31,-15.24 9.2,-3.38 18.88,-5.08 29.06,-5.08 10.45,0 20.33,1.7 29.61,5.08 9.27,3.39 17.38,8.47 24.3,15.24 6.93,6.79 12.38,15.15 16.36,25.09 3.97,9.95 5.96,21.47 5.96,34.59zm28.72 76.67l0 -153.14 102.54 0 0 28.96 -68.07 0 0 32.04 60.56 0 0 28.94 -60.56 0 0 63.2 -34.47 0zm221.64 -26.29c4.87,0 8.88,-0.41 12.05,-1.22 3.16,-0.81 5.7,-1.92 7.62,-3.31 1.92,-1.4 3.24,-3.06 3.98,-4.98 0.73,-1.92 1.1,-4.05 1.1,-6.4 0,-5.01 -2.35,-9.17 -7.07,-12.48 -4.71,-3.32 -12.81,-6.9 -24.31,-10.72 -5.01,-1.77 -10.01,-3.8 -15.02,-6.09 -5.01,-2.27 -9.51,-5.15 -13.49,-8.61 -3.97,-3.47 -7.21,-7.66 -9.72,-12.6 -2.5,-4.94 -3.75,-10.94 -3.75,-18.01 0,-7.07 1.32,-13.44 3.98,-19.11 2.65,-5.68 6.4,-10.5 11.27,-14.48 4.85,-3.97 10.75,-7.04 17.67,-9.17 6.93,-2.13 14.74,-3.2 23.42,-3.2 10.32,0 19.24,1.1 26.75,3.31 7.51,2.22 13.7,4.65 18.55,7.3l-9.94 27.17c-4.27,-2.2 -9.02,-4.16 -14.25,-5.85 -5.23,-1.7 -11.53,-2.54 -18.89,-2.54 -8.25,0 -14.18,1.14 -17.79,3.42 -3.62,2.29 -5.42,5.78 -5.42,10.51 0,2.79 0.67,5.15 1.99,7.07 1.33,1.9 3.2,3.63 5.63,5.18 2.44,1.55 5.24,2.95 8.4,4.2 3.17,1.25 6.66,2.54 10.5,3.87 7.96,2.95 14.87,5.86 20.78,8.72 5.89,2.88 10.79,6.23 14.69,10.07 3.9,3.83 6.81,8.32 8.73,13.47 1.92,5.16 2.87,11.42 2.87,18.79 0,14.28 -5.01,25.37 -15.02,33.25 -10.02,7.89 -25.13,11.82 -45.31,11.82 -6.77,0 -12.89,-0.4 -18.34,-1.2 -5.45,-0.81 -10.28,-1.82 -14.47,-3 -4.2,-1.16 -7.81,-2.42 -10.83,-3.75 -3.02,-1.33 -5.56,-2.58 -7.62,-3.76l9.72 -27.4c4.56,2.5 10.2,4.76 16.91,6.75 6.7,1.98 14.9,2.98 24.63,2.98zm156.67 29.38c-24.9,0 -43.86,-6.92 -56.89,-20.76 -13.05,-13.86 -19.56,-33.52 -19.56,-59 0,-12.68 1.98,-23.98 5.96,-33.93 3.97,-9.95 9.44,-18.34 16.35,-25.19 6.93,-6.85 15.18,-12.04 24.76,-15.58 9.57,-3.53 19.96,-5.3 31.16,-5.3 6.47,0 12.36,0.48 17.67,1.44 5.31,0.95 9.95,2.06 13.92,3.31 3.98,1.25 7.29,2.54 9.94,3.86 2.66,1.33 4.57,2.37 5.75,3.1l-9.95 27.85c-4.71,-2.51 -10.19,-4.65 -16.45,-6.42 -6.26,-1.76 -13.37,-2.64 -21.34,-2.64 -5.29,0 -10.49,0.88 -15.57,2.64 -5.08,1.77 -9.57,4.61 -13.47,8.52 -3.92,3.9 -7.04,8.94 -9.4,15.13 -2.36,6.19 -3.53,13.7 -3.53,22.54 0,7.07 0.76,13.66 2.31,19.78 1.55,6.11 4.06,11.38 7.52,15.8 3.47,4.41 7.99,7.92 13.59,10.5 5.59,2.57 12.38,3.86 20.33,3.86 5.01,0 9.51,-0.3 13.48,-0.88 3.98,-0.59 7.51,-1.29 10.61,-2.1 3.09,-0.81 5.82,-1.73 8.17,-2.77 2.36,-1.02 4.49,-1.98 6.41,-2.87l9.5 27.63c-4.86,2.94 -11.71,5.59 -20.55,7.95 -8.84,2.36 -19.08,3.53 -30.72,3.53zm73.36 -156.23l34.48 0 0 153.14 -34.48 0 0 -153.14zm69.83 153.14l0 -153.14 103.43 0 0 28.96 -68.95 0 0 30.05 61.21 0 0 28.28 -61.21 0 0 36.9 74.03 0 0 28.95 -108.51 0zm236.68 0c-9.87,-17.53 -20.55,-34.84 -32.05,-51.93 -11.48,-17.09 -23.71,-33.22 -36.68,-48.39l0 100.32 -34.03 0 0 -153.14 28.07 0c4.87,4.87 10.24,10.83 16.14,17.9 5.89,7.07 11.88,14.62 18,22.65 6.12,8.04 12.19,16.36 18.23,24.97 6.04,8.62 11.71,16.91 17.02,24.86l0 -90.38 34.25 0 0 153.14 -28.95 0zm134.13 3.09c-24.9,0 -43.86,-6.92 -56.9,-20.76 -13.04,-13.86 -19.55,-33.52 -19.55,-59 0,-12.68 1.98,-23.98 5.96,-33.93 3.97,-9.95 9.43,-18.34 16.35,-25.19 6.93,-6.85 15.18,-12.04 24.75,-15.58 9.58,-3.53 19.97,-5.3 31.16,-5.3 6.48,0 12.37,0.48 17.68,1.44 5.3,0.95 9.94,2.06 13.91,3.31 3.98,1.25 7.3,2.54 9.95,3.86 2.66,1.33 4.56,2.37 5.74,3.1l-9.94 27.85c-4.71,-2.51 -10.2,-4.65 -16.46,-6.42 -6.26,-1.76 -13.36,-2.64 -21.33,-2.64 -5.29,0 -10.49,0.88 -15.57,2.64 -5.08,1.77 -9.58,4.61 -13.48,8.52 -3.91,3.9 -7.03,8.94 -9.4,15.13 -2.36,6.19 -3.53,13.7 -3.53,22.54 0,7.07 0.77,13.66 2.32,19.78 1.55,6.11 4.05,11.38 7.51,15.8 3.47,4.41 7.99,7.92 13.59,10.5 5.6,2.57 12.38,3.86 20.34,3.86 5.01,0 9.5,-0.3 13.47,-0.88 3.98,-0.59 7.51,-1.29 10.61,-2.1 3.09,-0.81 5.82,-1.73 8.17,-2.77 2.36,-1.02 4.5,-1.98 6.42,-2.87l9.49 27.63c-4.85,2.94 -11.71,5.59 -20.55,7.95 -8.83,2.36 -19.08,3.53 -30.71,3.53zm73.36 -3.09l0 -153.14 103.42 0 0 28.96 -68.95 0 0 30.05 61.21 0 0 28.28 -61.21 0 0 36.9 74.03 0 0 28.95 -108.5 0zm289.7 0c-1.73,-5.34 -3.53,-10.79 -5.52,-16.38 -1.96,-5.61 -3.9,-11.2 -5.86,-16.77l-59.81 0c-1.91,5.61 -3.87,11.2 -5.82,16.8 -1.91,5.63 -3.72,11.05 -5.42,16.35l-35.79 0c5.78,-16.5 11.23,-31.74 16.39,-45.74 5.19,-14 10.23,-27.18 15.21,-39.56 4.93,-12.37 9.8,-24.12 14.62,-35.25 4.79,-11.11 9.8,-21.97 14.95,-32.59l32.67 0c5.05,10.62 10.02,21.48 14.89,32.59 4.89,11.13 9.79,22.88 14.76,35.25 4.97,12.38 10.02,25.56 15.22,39.56 5.18,14 10.63,29.24 16.42,45.74l-36.91 0zm-41.43 -118.45c-0.77,2.22 -1.88,5.27 -3.38,9.07 -1.48,3.82 -3.18,8.25 -5.05,13.29 -1.88,5.01 -4.02,10.53 -6.34,16.58 -2.35,6 -4.71,12.34 -7.15,18.97l43.79 0c-2.31,-6.63 -4.6,-13.01 -6.81,-19.04 -2.17,-6.05 -4.27,-11.57 -6.26,-16.61 -1.95,-5.01 -3.68,-9.44 -5.18,-13.27 -1.48,-3.82 -2.7,-6.8 -3.62,-8.99zm200.76 118.45c-9.87,-17.53 -20.55,-34.84 -32.05,-51.93 -11.48,-17.09 -23.71,-33.22 -36.68,-48.39l0 100.32 -34.03 0 0 -153.14 28.07 0c4.87,4.87 10.24,10.83 16.14,17.9 5.89,7.07 11.88,14.62 18,22.65 6.12,8.04 12.19,16.36 18.23,24.97 6.04,8.62 11.72,16.91 17.02,24.86l0 -90.38 34.25 0 0 153.14 -28.95 0zm98.77 -28.06c1.62,0.15 3.51,0.25 5.64,0.33 2.13,0.08 4.67,0.11 7.62,0.11 17.24,0 30.01,-4.35 38.34,-13.04 8.32,-8.69 12.48,-20.69 12.48,-36.01 0,-16.07 -3.97,-28.22 -11.92,-36.47 -7.96,-8.25 -20.56,-12.38 -37.79,-12.38 -2.36,0 -4.8,0.04 -7.3,0.12 -2.5,0.07 -4.85,0.25 -7.07,0.55l0 96.79zm99.67 -48.61c0,13.26 -2.07,24.81 -6.19,34.69 -4.13,9.87 -9.98,18.04 -17.57,24.52 -7.59,6.49 -16.84,11.35 -27.73,14.59 -10.9,3.24 -23.14,4.86 -36.69,4.86 -6.18,0 -13.4,-0.26 -21.65,-0.77 -8.25,-0.51 -16.35,-1.59 -24.32,-3.21l0 -149.15c7.97,-1.48 16.26,-2.47 24.87,-2.99 8.62,-0.52 16.02,-0.77 22.21,-0.77 13.11,0 25.01,1.47 35.68,4.41 10.69,2.95 19.86,7.6 27.51,13.93 7.67,6.33 13.56,14.44 17.69,24.3 4.12,9.88 6.19,21.73 6.19,35.59zm195.33 -76.47l0 29.4 -46.19 0 0 123.74 -34.46 0 0 -123.74 -46.19 0 0 -29.4 126.84 0zm22.09 153.14l0 -153.14 103.43 0 0 28.96 -68.95 0 0 30.05 61.21 0 0 28.28 -61.21 0 0 36.9 74.03 0 0 28.95 -108.51 0zm203.75 3.09c-24.9,0 -43.86,-6.92 -56.89,-20.76 -13.05,-13.86 -19.56,-33.52 -19.56,-59 0,-12.68 1.98,-23.98 5.96,-33.93 3.97,-9.95 9.43,-18.34 16.35,-25.19 6.93,-6.85 15.18,-12.04 24.76,-15.58 9.57,-3.53 19.96,-5.3 31.16,-5.3 6.47,0 12.36,0.48 17.67,1.44 5.31,0.95 9.94,2.06 13.91,3.31 3.99,1.25 7.3,2.54 9.95,3.86 2.66,1.33 4.57,2.37 5.75,3.1l-9.95 27.85c-4.71,-2.51 -10.19,-4.65 -16.45,-6.42 -6.26,-1.76 -13.37,-2.64 -21.34,-2.64 -5.29,0 -10.49,0.88 -15.57,2.64 -5.08,1.77 -9.58,4.61 -13.48,8.52 -3.91,3.9 -7.03,8.94 -9.39,15.13 -2.36,6.19 -3.53,13.7 -3.53,22.54 0,7.07 0.76,13.66 2.31,19.78 1.55,6.11 4.06,11.38 7.51,15.8 3.47,4.41 7.99,7.92 13.6,10.5 5.59,2.57 12.38,3.86 20.33,3.86 5.01,0 9.5,-0.3 13.47,-0.88 3.99,-0.59 7.52,-1.29 10.62,-2.1 3.09,-0.81 5.82,-1.73 8.17,-2.77 2.36,-1.02 4.49,-1.98 6.41,-2.87l9.49 27.63c-4.85,2.94 -11.71,5.59 -20.54,7.95 -8.84,2.36 -19.08,3.53 -30.72,3.53zm165.73 -156.23l34.47 0 0 153.14 -34.47 0 0 -64.96 -57.89 0 0 64.96 -34.48 0 0 -153.14 34.48 0 0 58.57 57.89 0 0 -58.57zm172.59 153.14c-9.86,-17.53 -20.55,-34.84 -32.04,-51.93 -11.49,-17.09 -23.72,-33.22 -36.68,-48.39l0 100.32 -34.04 0 0 -153.14 28.07 0c4.87,4.87 10.25,10.83 16.14,17.9 5.89,7.07 11.89,14.62 18,22.65 6.12,8.04 12.19,16.36 18.24,24.97 6.03,8.62 11.71,16.91 17.01,24.86l0 -90.38 34.25 0 0 153.14 -28.95 0zm93.25 -76.67c0,7.51 0.92,14.28 2.77,20.33 1.83,6.03 4.48,11.23 7.95,15.57 3.46,4.34 7.69,7.71 12.7,10.05 5.01,2.37 10.76,3.55 17.24,3.55 6.34,0 12.05,-1.18 17.13,-3.55 5.08,-2.34 9.35,-5.71 12.82,-10.05 3.45,-4.34 6.1,-9.54 7.95,-15.57 1.84,-6.05 2.76,-12.82 2.76,-20.33 0,-7.52 -0.92,-14.34 -2.76,-20.44 -1.85,-6.12 -4.5,-11.36 -7.95,-15.7 -3.47,-4.35 -7.74,-7.7 -12.82,-10.05 -5.08,-2.36 -10.79,-3.54 -17.13,-3.54 -6.48,0 -12.23,1.22 -17.24,3.65 -5.01,2.43 -9.24,5.82 -12.7,10.16 -3.47,4.35 -6.12,9.57 -7.95,15.69 -1.85,6.12 -2.77,12.86 -2.77,20.23zm116.9 0c0,13.1 -1.96,24.63 -5.86,34.58 -3.91,9.94 -9.24,18.27 -16.02,24.97 -6.78,6.7 -14.84,11.74 -24.2,15.13 -9.35,3.39 -19.4,5.08 -30.16,5.08 -10.45,0 -20.33,-1.69 -29.61,-5.08 -9.29,-3.39 -17.38,-8.43 -24.31,-15.13 -6.92,-6.7 -12.38,-15.03 -16.35,-24.97 -3.98,-9.95 -5.96,-21.48 -5.96,-34.58 0,-13.12 2.06,-24.64 6.18,-34.59 4.12,-9.94 9.69,-18.3 16.69,-25.09 6.99,-6.77 15.1,-11.85 24.3,-15.24 9.21,-3.38 18.89,-5.08 29.06,-5.08 10.46,0 20.34,1.7 29.61,5.08 9.28,3.39 17.39,8.47 24.31,15.24 6.92,6.79 12.37,15.15 16.36,25.09 3.97,9.95 5.96,21.47 5.96,34.59zm131.03 47.06l0 29.61 -102.32 0 0 -153.14 34.48 0 0 123.53 67.84 0zm46.62 -47.06c0,7.51 0.92,14.28 2.77,20.33 1.84,6.03 4.48,11.23 7.95,15.57 3.46,4.34 7.7,7.71 12.7,10.05 5.01,2.37 10.76,3.55 17.25,3.55 6.33,0 12.04,-1.18 17.12,-3.55 5.08,-2.34 9.35,-5.71 12.82,-10.05 3.46,-4.34 6.11,-9.54 7.96,-15.57 1.83,-6.05 2.75,-12.82 2.75,-20.33 0,-7.52 -0.92,-14.34 -2.75,-20.44 -1.85,-6.12 -4.5,-11.36 -7.96,-15.7 -3.47,-4.35 -7.74,-7.7 -12.82,-10.05 -5.08,-2.36 -10.79,-3.54 -17.12,-3.54 -6.49,0 -12.24,1.22 -17.25,3.65 -5,2.43 -9.24,5.82 -12.7,10.16 -3.47,4.35 -6.11,9.57 -7.95,15.69 -1.85,6.12 -2.77,12.86 -2.77,20.23zm116.9 0c0,13.1 -1.95,24.63 -5.85,34.58 -3.91,9.94 -9.24,18.27 -16.03,24.97 -6.77,6.7 -14.83,11.74 -24.19,15.13 -9.35,3.39 -19.41,5.08 -30.16,5.08 -10.46,0 -20.33,-1.69 -29.61,-5.08 -9.29,-3.39 -17.39,-8.43 -24.32,-15.13 -6.91,-6.7 -12.37,-15.03 -16.34,-24.97 -3.99,-9.95 -5.97,-21.48 -5.97,-34.58 0,-13.12 2.07,-24.64 6.18,-34.59 4.13,-9.94 9.69,-18.3 16.69,-25.09 6.99,-6.77 15.1,-11.85 24.31,-15.24 9.2,-3.38 18.89,-5.08 29.06,-5.08 10.46,0 20.33,1.7 29.61,5.08 9.27,3.39 17.38,8.47 24.3,15.24 6.93,6.79 12.38,15.15 16.36,25.09 3.97,9.95 5.96,21.47 5.96,34.59zm103.42 -49.94c-16.07,0 -27.67,4.44 -34.81,13.36 -7.15,8.91 -10.71,21.11 -10.71,36.58 0,7.51 0.88,14.32 2.65,20.44 1.76,6.11 4.42,11.37 7.95,15.8 3.54,4.41 7.95,7.84 13.26,10.27 5.31,2.43 11.5,3.64 18.57,3.64 3.82,0 7.1,-0.07 9.82,-0.21 2.73,-0.16 5.12,-0.44 7.18,-0.89l0 -53.25 34.48 0 0 75.79c-4.13,1.62 -10.76,3.35 -19.89,5.19 -9.13,1.85 -20.41,2.77 -33.81,2.77 -11.48,0 -21.91,-1.77 -31.27,-5.31 -9.35,-3.53 -17.35,-8.69 -23.98,-15.47 -6.62,-6.77 -11.74,-15.09 -15.35,-24.97 -3.61,-9.87 -5.41,-21.14 -5.41,-33.8 0,-12.82 1.98,-24.16 5.96,-34.04 3.97,-9.87 9.43,-18.23 16.35,-25.08 6.93,-6.85 15.06,-12.04 24.42,-15.58 9.35,-3.53 19.33,-5.3 29.95,-5.3 7.21,0 13.73,0.48 19.55,1.44 5.82,0.95 10.83,2.06 15.03,3.31 4.2,1.25 7.65,2.54 10.38,3.86 2.72,1.33 4.68,2.37 5.86,3.1l-9.95 27.62c-4.71,-2.5 -10.12,-4.67 -16.24,-6.52 -6.11,-1.84 -12.78,-2.75 -19.99,-2.75zm80.43 -26.53l34.47 0 0 153.14 -34.47 0 0 -153.14zm69.83 153.14l0 -153.14 103.42 0 0 28.96 -68.95 0 0 30.05 61.21 0 0 28.28 -61.21 0 0 36.9 74.03 0 0 28.95 -108.5 0zm175.69 -26.29c4.86,0 8.87,-0.41 12.04,-1.22 3.16,-0.81 5.7,-1.92 7.62,-3.31 1.92,-1.4 3.25,-3.06 3.98,-4.98 0.73,-1.92 1.1,-4.05 1.1,-6.4 0,-5.01 -2.35,-9.17 -7.07,-12.48 -4.71,-3.32 -12.81,-6.9 -24.3,-10.72 -5.01,-1.77 -10.02,-3.8 -15.03,-6.09 -5.01,-2.27 -9.5,-5.15 -13.48,-8.61 -3.98,-3.47 -7.22,-7.66 -9.72,-12.6 -2.51,-4.94 -3.76,-10.94 -3.76,-18.01 0,-7.07 1.32,-13.44 3.98,-19.11 2.65,-5.68 6.41,-10.5 11.27,-14.48 4.86,-3.97 10.76,-7.04 17.67,-9.17 6.93,-2.13 14.74,-3.2 23.43,-3.2 10.31,0 19.23,1.1 26.74,3.31 7.52,2.22 13.7,4.65 18.56,7.3l-9.95 27.17c-4.27,-2.2 -9.01,-4.16 -14.25,-5.85 -5.22,-1.7 -11.53,-2.54 -18.89,-2.54 -8.25,0 -14.18,1.14 -17.79,3.42 -3.61,2.29 -5.41,5.78 -5.41,10.51 0,2.79 0.67,5.15 1.99,7.07 1.32,1.9 3.19,3.63 5.63,5.18 2.43,1.55 5.23,2.95 8.39,4.2 3.17,1.25 6.67,2.54 10.51,3.87 7.95,2.95 14.87,5.86 20.77,8.72 5.89,2.88 10.79,6.23 14.69,10.07 3.9,3.83 6.81,8.32 8.73,13.47 1.92,5.16 2.88,11.42 2.88,18.79 0,14.28 -5.01,25.37 -15.03,33.25 -10.02,7.89 -25.13,11.82 -45.3,11.82 -6.78,0 -12.89,-0.4 -18.34,-1.2 -5.45,-0.81 -10.28,-1.82 -14.48,-3 -4.2,-1.16 -7.81,-2.42 -10.83,-3.75 -3.01,-1.33 -5.55,-2.58 -7.62,-3.76l9.72 -27.4c4.57,2.5 10.21,4.76 16.91,6.75 6.7,1.98 14.91,2.98 24.64,2.98zm-2778.26 -285.42c-26.81,-47.63 -55.84,-94.66 -87.06,-141.08 -31.22,-46.44 -64.43,-90.26 -99.65,-131.49l0 272.57 -92.46 0 0 -416.06 76.25 0c13.2,13.21 27.81,29.42 43.82,48.63 16.01,19.21 32.32,39.72 48.93,61.55 16.61,21.81 33.12,44.41 49.54,67.84 16.41,23.4 31.81,45.92 46.22,67.54l0 -245.56 93.06 0 0 416.06 -78.65 0zm174.71 -416.06l93.66 0 0 416.06 -93.66 0 0 -416.06zm314.09 416.06c-16.61,-34.92 -32.92,-71.24 -49.03,-108.77 -16.11,-37.62 -31.42,-74.84 -45.92,-111.57 -14.42,-36.82 -27.83,-72.05 -39.93,-105.66 -12.21,-33.62 -22.72,-63.64 -31.53,-90.06l103.27 0c7.8,24.11 16.41,50.04 26.02,77.75 9.5,27.82 19.21,55.54 29.11,83.06 9.91,27.6 19.32,54.03 28.42,79.35 9.01,25.2 17.72,47.01 26.02,65.43 7.81,-18.31 16.4,-40.02 25.61,-65.34 9.31,-25.22 18.91,-51.63 28.72,-79.25 9.9,-27.51 19.61,-55.23 29.12,-83.05 9.61,-27.71 18.2,-53.73 26.11,-77.95l99.67 0c-9.31,26.52 -20.02,56.64 -32.22,90.17 -12.12,33.61 -25.32,68.73 -39.72,105.55 -14.42,36.83 -29.63,74.04 -45.64,111.67 -16,37.62 -32.22,73.85 -48.73,108.67l-89.35 0zm309.09 0l0 -416.06 280.98 0 0 78.66 -187.32 0 0 81.65 166.29 0 0 76.84 -166.29 0 0 100.26 201.12 0 0 78.65 -294.78 0zm485.7 -420.86c62.44,0 110.27,11.11 143.49,33.33 33.21,22.2 49.82,56.72 49.82,103.55 0,29.23 -6.7,52.94 -20.1,71.14 -13.42,18.23 -32.72,32.52 -57.94,42.93 8.4,10.41 17.22,22.31 26.42,35.73 9.21,13.4 18.31,27.42 27.31,42.02 9.01,14.61 17.72,29.82 26.11,45.63 8.41,15.81 16.22,31.32 23.42,46.53l-104.66 0c-7.7,-13.61 -15.41,-27.42 -23.22,-41.43 -7.9,-14.01 -15.9,-27.62 -24.11,-40.82 -8.2,-13.21 -16.41,-25.72 -24.41,-37.52 -8.01,-11.81 -16.11,-22.52 -24.12,-32.13l-46.22 0 0 151.9 -93.66 0 0 -410.05c20.4,-4 41.52,-6.81 63.33,-8.41 21.81,-1.59 41.33,-2.4 58.54,-2.4zm5.4 79.84c-6.81,0 -12.9,0.21 -18.31,0.61 -5.41,0.4 -10.51,0.8 -15.3,1.21l0 112.87 26.41 0c35.23,0 60.43,-4.42 75.64,-13.22 15.22,-8.8 22.82,-23.81 22.82,-45.03 0,-20.41 -7.7,-34.91 -23.12,-43.52 -15.41,-8.61 -38.12,-12.92 -68.14,-12.92zm386.64 269.58c13.21,0 24.11,-1.1 32.72,-3.31 8.61,-2.2 15.52,-5.2 20.72,-9 5.19,-3.8 8.8,-8.31 10.8,-13.51 2,-5.2 3,-11.01 3,-17.41 0,-13.61 -6.4,-24.91 -19.21,-33.93 -12.8,-9 -34.82,-18.71 -66.04,-29.11 -13.6,-4.8 -27.22,-10.31 -40.83,-16.51 -13.6,-6.2 -25.81,-14.01 -36.62,-23.41 -10.8,-9.41 -19.61,-20.82 -26.41,-34.22 -6.81,-13.42 -10.21,-29.72 -10.21,-48.93 0,-19.21 3.6,-36.53 10.81,-51.93 7.2,-15.41 17.41,-28.53 30.62,-39.33 13.2,-10.81 29.21,-19.12 48.03,-24.91 18.81,-5.81 40.02,-8.71 63.63,-8.71 28.03,0 52.23,3 72.65,9.01 20.41,5.99 37.23,12.6 50.43,19.8l-27.01 73.85c-11.62,-6.01 -24.52,-11.3 -38.73,-15.9 -14.21,-4.61 -31.32,-6.91 -51.33,-6.91 -22.42,0 -38.53,3.1 -48.33,9.3 -9.81,6.2 -14.71,15.71 -14.71,28.53 0,7.59 1.8,14 5.4,19.21 3.61,5.2 8.7,9.89 15.31,14.1 6.61,4.2 14.21,8.01 22.81,11.4 8.61,3.41 18.12,6.91 28.53,10.51 21.6,8.01 40.42,15.92 56.42,23.72 16.02,7.8 29.33,16.91 39.93,27.32 10.61,10.4 18.52,22.61 23.72,36.62 5.2,14.01 7.81,31.02 7.81,51.03 0,38.82 -13.62,68.94 -40.83,90.35 -27.22,21.42 -68.25,32.13 -123.08,32.13 -18.41,0 -35.02,-1.1 -49.83,-3.31 -14.81,-2.2 -27.92,-4.9 -39.32,-8.11 -11.41,-3.19 -21.21,-6.6 -29.42,-10.2 -8.2,-3.61 -15.11,-7 -20.71,-10.2l26.41 -74.45c12.42,6.8 27.72,12.91 45.92,18.31 18.23,5.4 40.54,8.11 66.95,8.11zm235.94 -344.62l93.66 0 0 416.06 -93.66 0 0 -416.06zm498.31 0l0 79.85 -125.49 0 0 336.21 -93.66 0 0 -336.21 -125.47 0 0 -79.85 344.62 0zm232.83 170.61c16.81,-28.32 32.82,-56.63 48.03,-84.95 15.31,-28.42 29.31,-56.94 42.12,-85.66l103.27 0c-22.81,44.83 -46.42,88.26 -70.85,130.28 -24.41,42.04 -50.22,84.26 -77.44,126.68l0 159.1 -93.65 0 0 -157.9c-27.23,-42.43 -53.14,-84.86 -77.75,-127.27 -24.62,-42.43 -48.33,-86.06 -71.15,-130.89l108.66 0c12.81,28.72 26.62,57.24 41.33,85.66 14.81,28.32 30.61,56.63 47.43,84.95z"/>
   <path class="fil8" d="M13239.1 28580.39l35.71 0c9.37,0 16.04,-1.98 20.01,-5.95 3.97,-3.96 5.95,-10.63 5.95,-20.01l0 -296.97 61.13 0 0 301.84c0,27.77 -6.13,47.79 -18.39,60.05 -12.27,12.25 -32.28,18.39 -60.05,18.39l-44.36 0 0 -57.35zm91.97 -365.66c-11.55,0 -20.92,-3.16 -28.13,-9.47 -7.22,-6.31 -10.83,-14.69 -10.83,-25.15 0,-10.46 3.61,-18.76 10.83,-24.88 7.21,-6.14 16.58,-9.2 28.13,-9.2 11.53,0 20.91,3.06 28.12,9.2 7.22,6.12 10.82,14.42 10.82,24.88 0,10.46 -3.6,18.84 -10.82,25.15 -7.21,6.31 -16.59,9.47 -28.12,9.47zm244.49 321.85c-20.55,0 -39.57,-3.43 -57.07,-10.28 -17.48,-6.85 -32.63,-16.59 -45.43,-29.2 -12.81,-12.63 -22.81,-27.68 -30.02,-45.17 -7.21,-17.5 -10.82,-37.06 -10.82,-58.7 0,-21.27 3.61,-40.75 10.82,-58.42 7.21,-17.67 17.21,-32.73 30.02,-45.17 12.8,-12.44 27.95,-22.08 45.43,-28.93 17.5,-6.86 36.52,-10.28 57.07,-10.28 20.2,0 39.05,3.42 56.53,10.28 17.49,6.85 32.64,16.49 45.44,28.93 12.8,12.44 22.81,27.5 30.03,45.17 7.21,17.67 10.81,37.15 10.81,58.42 0,21.64 -3.6,41.2 -10.81,58.7 -7.22,17.49 -17.23,32.54 -30.03,45.17 -12.8,12.61 -27.95,22.35 -45.44,29.2 -17.48,6.85 -36.33,10.28 -56.53,10.28zm0 -55.72c11.55,0 22.36,-2.06 32.46,-6.21 10.1,-4.15 18.75,-10.01 25.97,-17.58 7.21,-7.58 12.89,-16.78 17.04,-27.59 4.15,-10.82 6.22,-22.9 6.22,-36.25 0,-12.98 -2.07,-24.88 -6.22,-35.7 -4.15,-10.82 -9.83,-20.01 -17.04,-27.58 -7.22,-7.58 -15.87,-13.44 -25.97,-17.58 -10.1,-4.15 -20.91,-6.23 -32.46,-6.23 -11.9,0 -22.81,2.08 -32.72,6.23 -9.92,4.14 -18.57,10 -25.97,17.58 -7.39,7.57 -13.16,16.76 -17.31,27.58 -4.14,10.82 -6.22,22.72 -6.22,35.7 0,13.35 2.08,25.43 6.22,36.25 4.15,10.81 9.92,20.01 17.31,27.59 7.4,7.57 16.05,13.43 25.97,17.58 9.91,4.15 20.82,6.21 32.72,6.21zm463.04 48.69l-61.12 0 0 -35.16 -2.16 0c-9.38,11.18 -21.47,21.01 -36.25,29.48 -14.79,8.48 -33,12.71 -54.64,12.71 -14.42,0 -28.12,-2.34 -41.11,-7.03 -12.98,-4.69 -24.34,-11.81 -34.07,-21.36 -9.74,-9.57 -17.49,-21.55 -23.26,-35.98 -5.78,-14.42 -8.66,-31.2 -8.66,-50.31l0 -164.44 61.67 0 0 155.79c0,12.62 1.89,23.17 5.68,31.64 3.78,8.48 8.84,15.33 15.14,20.56 6.31,5.23 13.26,9.01 20.83,11.36 7.58,2.34 15.15,3.51 22.72,3.51 9.74,0 19.02,-1.8 27.86,-5.41 8.83,-3.6 16.67,-9.01 23.53,-16.22 6.85,-7.22 12.35,-16.14 16.5,-26.78 4.14,-10.64 6.22,-22.99 6.22,-37.05l0 -137.4 61.12 0 0 272.09zm80.06 -272.09l61.13 0 0 35.16 2.16 0c9.38,-10.82 20.38,-19.39 33,-25.69 12.63,-6.31 29.03,-9.47 49.23,-9.47l70.31 0 0 57.34 -71.4 0c-25.96,0 -46.34,6.49 -61.12,19.47 -14.79,12.98 -22.18,32.46 -22.18,58.42l0 136.86 -61.13 0 0 -272.09zm275.34 0l61.13 0 0 35.16 2.16 0c9.38,-11.18 21.46,-21.01 36.25,-29.48 14.78,-8.47 33,-12.71 54.63,-12.71 14.42,0 28.13,2.34 41.11,7.03 12.98,4.68 24.35,11.81 34.08,21.37 9.74,9.55 17.49,21.54 23.26,35.97 5.77,14.42 8.66,31.19 8.66,50.3l0 164.45 -61.67 0 0 -155.79c0,-12.62 -1.89,-23.17 -5.68,-31.65 -3.78,-8.47 -8.84,-15.32 -15.15,-20.55 -6.3,-5.23 -13.25,-9.02 -20.82,-11.36 -7.58,-2.34 -15.15,-3.52 -22.73,-3.52 -9.73,0 -19.02,1.81 -27.85,5.41 -8.84,3.61 -16.68,9.02 -23.53,16.23 -6.86,7.21 -12.35,16.14 -16.5,26.77 -4.15,10.65 -6.22,23 -6.22,37.06l0 137.4 -61.13 0 0 -272.09zm406.79 279.12c-9.01,0 -18.75,-0.9 -29.21,-2.71 -10.46,-1.8 -20.11,-5.4 -28.94,-10.81 -8.84,-5.41 -16.14,-12.98 -21.91,-22.72 -5.77,-9.74 -8.66,-22.36 -8.66,-37.87 0,-14.43 2.53,-26.5 7.58,-36.24 5.05,-9.73 11.72,-17.76 20.01,-24.07 8.3,-6.31 17.58,-11.36 27.86,-15.14 10.28,-3.8 20.83,-7.13 31.64,-10.01l100.08 -27.05 0 -5.41c0,-7.93 -1.53,-14.7 -4.6,-20.29 -3.07,-5.59 -7.03,-10.09 -11.9,-13.52 -4.87,-3.43 -10.36,-5.86 -16.5,-7.3 -6.13,-1.45 -12.44,-2.16 -18.93,-2.16 -15.15,0 -28.4,3.69 -39.76,11.09 -11.36,7.38 -18.3,17.93 -20.83,31.64l-62.75 0c1.81,-15.86 6.14,-29.66 12.98,-41.38 6.86,-11.73 15.69,-21.46 26.51,-29.21 10.82,-7.76 23.44,-13.52 37.87,-17.31 14.42,-3.79 29.75,-5.68 45.98,-5.68 12.26,0 24.97,1.26 38.14,3.78 13.16,2.53 25.24,7.39 36.23,14.61 11.01,7.21 20.02,17.22 27.05,30.02 7.03,12.8 10.55,29.31 10.55,49.5l0 109.81c0,5.41 1.08,9.28 3.25,11.62 2.16,2.35 5.95,3.52 11.36,3.52l15.69 0 0 56.26 -49.23 0c-10.46,0 -18.57,-2.17 -24.34,-6.49 -5.77,-4.33 -9.74,-10.46 -11.9,-18.39l-2.71 -10.28 -2.16 0c-11.54,13.34 -25.51,23.71 -41.92,31.1 -16.41,7.4 -35.26,11.09 -56.53,11.09zm14.06 -49.77c11.18,0 21.82,-1.61 31.92,-4.86 10.09,-3.25 19.02,-8.03 26.78,-14.33 7.75,-6.32 13.97,-14.25 18.65,-23.81 4.69,-9.55 7.04,-20.65 7.04,-33.26l0 -11.37 -90.33 24.35c-11.91,3.24 -20.75,7.3 -26.51,12.16 -5.77,4.88 -8.66,12 -8.66,21.38 0,6.49 1.26,11.72 3.78,15.68 2.54,3.97 5.87,6.94 10.01,8.93 4.15,1.98 8.66,3.33 13.53,4.05 4.87,0.73 9.46,1.08 13.79,1.08zm307.25 42.74c-27.77,0 -47.78,-6.13 -60.04,-18.39 -12.27,-12.26 -18.39,-32.28 -18.39,-60.04l0 -300.23 61.67 0 0 295.35c0,9.38 1.98,16.06 5.95,20.02 3.96,3.97 10.63,5.95 20.01,5.95l28.13 0 0 57.34 -37.33 0zm120.09 4.87c-11.9,0 -21.64,-3.52 -29.2,-10.55 -7.58,-7.04 -11.37,-16.68 -11.37,-28.94 0,-11.9 3.79,-21.37 11.37,-28.4 7.56,-7.03 17.3,-10.55 29.2,-10.55 12.26,0 22.09,3.52 29.48,10.55 7.4,7.03 11.09,16.5 11.09,28.4 0,12.26 -3.69,21.9 -11.09,28.94 -7.39,7.03 -17.22,10.55 -29.48,10.55zm363.51 -4.87l-61.13 0 0 -35.16 -2.15 0c-9.38,11.18 -21.47,21.01 -36.25,29.48 -14.79,8.48 -33,12.71 -54.64,12.71 -14.42,0 -28.13,-2.34 -41.11,-7.03 -12.98,-4.69 -24.34,-11.81 -34.08,-21.36 -9.73,-9.57 -17.48,-21.55 -23.25,-35.98 -5.78,-14.42 -8.66,-31.2 -8.66,-50.31l0 -164.44 61.67 0 0 155.79c0,12.62 1.89,23.17 5.68,31.64 3.78,8.48 8.83,15.33 15.14,20.56 6.31,5.23 13.26,9.01 20.83,11.36 7.57,2.34 15.14,3.51 22.71,3.51 9.75,0 19.03,-1.8 27.87,-5.41 8.83,-3.6 16.67,-9.01 23.53,-16.22 6.84,-7.22 12.35,-16.14 16.5,-26.78 4.14,-10.64 6.21,-22.99 6.21,-37.05l0 -137.4 61.13 0 0 272.09zm192.58 7.03c-16.6,0 -32.73,-1.44 -48.42,-4.32 -15.68,-2.89 -29.75,-7.85 -42.19,-14.88 -12.45,-7.04 -22.72,-16.59 -30.83,-28.67 -8.12,-12.08 -12.9,-27.32 -14.34,-45.71l62.75 0c1.8,8.29 5.23,15.15 10.28,20.56 5.04,5.41 10.9,9.73 17.58,12.98 6.67,3.24 13.97,5.58 21.91,7.03 7.93,1.44 15.69,2.16 23.26,2.16 6.49,0 13.16,-0.53 20.01,-1.62 6.85,-1.08 13.16,-2.88 18.94,-5.41 5.76,-2.53 10.45,-5.95 14.06,-10.28 3.61,-4.32 5.41,-9.92 5.41,-16.76 0,-10.11 -4.6,-17.4 -13.8,-21.92 -9.19,-4.5 -20.73,-7.92 -34.62,-10.27 -13.88,-2.34 -28.85,-4.6 -44.9,-6.77 -16.04,-2.15 -31.01,-6.03 -44.89,-11.62 -13.89,-5.59 -25.42,-13.71 -34.62,-24.35 -9.2,-10.63 -13.79,-25.69 -13.79,-45.17 0,-16.22 3.69,-29.65 11.08,-40.29 7.4,-10.64 16.86,-18.93 28.41,-24.88 11.53,-5.96 24.24,-10.11 38.13,-12.45 13.88,-2.34 27.32,-3.51 40.3,-3.51 14.06,0 28.22,1.35 42.46,4.05 14.24,2.71 27.23,7.31 38.94,13.8 11.73,6.49 21.47,15.33 29.22,26.5 7.75,11.18 12.35,25.25 13.79,42.2l-62.74 0c-1.45,-7.22 -4.33,-13.17 -8.66,-17.86 -4.33,-4.69 -9.47,-8.38 -15.42,-11.09 -5.95,-2.7 -12.26,-4.5 -18.93,-5.4 -6.68,-0.9 -13.07,-1.35 -19.2,-1.35 -5.05,0 -10.82,0.36 -17.31,1.08 -6.49,0.72 -12.54,2.16 -18.12,4.32 -5.6,2.17 -10.37,5.23 -14.34,9.2 -3.96,3.97 -5.95,9.19 -5.95,15.68 0,9.38 4.6,16.06 13.8,20.02 9.19,3.97 20.64,7.13 34.34,9.47 13.71,2.34 28.67,4.59 44.9,6.76 16.23,2.17 31.2,6.13 44.9,11.9 13.7,5.77 25.16,14.24 34.35,25.42 9.2,11.18 13.8,26.69 13.8,46.53 0,17.67 -3.61,32 -10.83,43 -7.21,10.99 -16.59,19.65 -28.12,25.97 -11.54,6.31 -24.44,10.55 -38.68,12.7 -14.24,2.17 -28.22,3.25 -41.92,3.25zm249.36 0c-9.01,0 -18.74,-0.9 -29.2,-2.71 -10.46,-1.8 -20.11,-5.4 -28.94,-10.81 -8.84,-5.41 -16.15,-12.98 -21.92,-22.72 -5.76,-9.74 -8.65,-22.36 -8.65,-37.87 0,-14.43 2.53,-26.5 7.58,-36.24 5.04,-9.73 11.71,-17.76 20.01,-24.07 8.3,-6.31 17.58,-11.36 27.86,-15.14 10.27,-3.8 20.82,-7.13 31.64,-10.01l100.08 -27.05 0 -5.41c0,-7.93 -1.54,-14.7 -4.6,-20.29 -3.07,-5.59 -7.04,-10.09 -11.9,-13.52 -4.87,-3.43 -10.37,-5.86 -16.5,-7.3 -6.14,-1.45 -12.44,-2.16 -18.93,-2.16 -15.15,0 -28.41,3.69 -39.76,11.09 -11.36,7.38 -18.3,17.93 -20.83,31.64l-62.75 0c1.81,-15.86 6.13,-29.66 12.98,-41.38 6.86,-11.73 15.69,-21.46 26.51,-29.21 10.81,-7.76 23.44,-13.52 37.86,-17.31 14.43,-3.79 29.76,-5.68 45.99,-5.68 12.25,0 24.97,1.26 38.13,3.78 13.17,2.53 25.24,7.39 36.24,14.61 11.01,7.21 20.02,17.22 27.05,30.02 7.03,12.8 10.55,29.31 10.55,49.5l0 109.81c0,5.41 1.08,9.28 3.24,11.62 2.17,2.35 5.96,3.52 11.37,3.52l15.68 0 0 56.26 -49.22 0c-10.46,0 -18.58,-2.17 -24.35,-6.49 -5.77,-4.33 -9.73,-10.46 -11.9,-18.39l-2.7 -10.28 -2.16 0c-11.55,13.34 -25.52,23.71 -41.93,31.1 -16.4,7.4 -35.25,11.09 -56.53,11.09zm14.06 -49.77c11.18,0 21.82,-1.61 31.93,-4.86 10.09,-3.25 19.02,-8.03 26.77,-14.33 7.75,-6.32 13.98,-14.25 18.66,-23.81 4.69,-9.55 7.04,-20.65 7.04,-33.26l0 -11.37 -90.34 24.35c-11.9,3.24 -20.74,7.3 -26.51,12.16 -5.77,4.88 -8.65,12 -8.65,21.38 0,6.49 1.26,11.72 3.78,15.68 2.53,3.97 5.87,6.94 10.01,8.93 4.15,1.98 8.66,3.33 13.53,4.05 4.86,0.73 9.46,1.08 13.78,1.08zm346.21 42.74c-29.22,0 -50.85,-6.94 -64.91,-20.82 -14.07,-13.89 -21.1,-35.44 -21.1,-64.64l0 -130.92 -64.92 0 0 -55.71 64.92 0 0 -88.17 61.67 0 0 88.17 137.39 0 0 55.71 -137.39 0 0 126.04c0,12.63 2.43,21.46 7.3,26.51 4.86,5.05 13.61,7.57 26.23,7.57l103.86 0 0 56.26 -113.05 0zm204.47 4.87c-11.9,0 -21.63,-3.52 -29.2,-10.55 -7.58,-7.04 -11.37,-16.68 -11.37,-28.94 0,-11.9 3.79,-21.37 11.37,-28.4 7.57,-7.03 17.3,-10.55 29.2,-10.55 12.26,0 22.09,3.52 29.49,10.55 7.39,7.03 11.08,16.5 11.08,28.4 0,12.26 -3.69,21.9 -11.08,28.94 -7.4,7.03 -17.23,10.55 -29.49,10.55zm363.51 -4.87l-61.13 0 0 -35.16 -2.15 0c-9.38,11.18 -21.47,21.01 -36.25,29.48 -14.79,8.48 -33,12.71 -54.64,12.71 -14.42,0 -28.12,-2.34 -41.11,-7.03 -12.98,-4.69 -24.34,-11.81 -34.08,-21.36 -9.73,-9.57 -17.48,-21.55 -23.25,-35.98 -5.78,-14.42 -8.66,-31.2 -8.66,-50.31l0 -164.44 61.67 0 0 155.79c0,12.62 1.89,23.17 5.68,31.64 3.78,8.48 8.84,15.33 15.14,20.56 6.31,5.23 13.26,9.01 20.83,11.36 7.58,2.34 15.15,3.51 22.72,3.51 9.74,0 19.02,-1.8 27.86,-5.41 8.83,-3.6 16.67,-9.01 23.53,-16.22 6.85,-7.22 12.35,-16.14 16.5,-26.78 4.14,-10.64 6.21,-22.99 6.21,-37.05l0 -137.4 61.13 0 0 272.09zm63.84 -43.28l144.96 -172.01 0 -2.17 -142.8 0 0 -54.63 231.52 0 0 42.73 -144.97 172.02 0 2.16 147.14 0 0 55.18 -235.85 0 0 -43.28z"/>
   <image x="14780.03" y="25151.05" width="2495.54" height="2495.54" xlink:href="oblojka final (17 ver) kriv 2 1_Images\oblojka final (17 ver) kriv 2 1_ImgID8.png"/>
   <path class="fil8" d="M14689.97 23806.77c-14.42,0 -27.67,-2.35 -39.75,-7.03 -12.08,-4.69 -22.54,-11.36 -31.37,-20.02 -8.83,-8.65 -15.68,-18.83 -20.55,-30.55 -4.87,-11.72 -7.3,-24.61 -7.3,-38.67 0,-14.07 2.43,-26.96 7.3,-38.67 4.87,-11.72 11.72,-21.82 20.55,-30.29 8.83,-8.48 19.29,-15.06 31.37,-19.74 12.08,-4.69 25.33,-7.03 39.75,-7.03 14.42,0 27.77,2.34 40.02,7.03 12.26,4.68 22.81,11.26 31.64,19.74 8.84,8.47 15.69,18.57 20.56,30.29 4.86,11.71 7.3,24.6 7.3,38.67 0,14.06 -2.44,26.95 -7.3,38.67 -4.87,11.72 -11.72,21.9 -20.56,30.55 -8.83,8.66 -19.38,15.33 -31.64,20.02 -12.25,4.68 -25.6,7.03 -40.02,7.03zm-157.39 192.54l-81.66 0 -192.55 -282.86 -2.16 0 0 282.86 -65.44 0 0 -378.6 82.21 0 192 282.87 2.16 0 0 -282.87 65.44 0 0 378.6zm206.61 -288.81c0,-13.71 -4.51,-25.06 -13.52,-34.08 -9.02,-9.01 -20.91,-13.52 -35.7,-13.52 -14.78,0 -26.59,4.51 -35.42,13.52 -8.84,9.02 -13.25,20.37 -13.25,34.08 0,14.06 4.41,25.6 13.25,34.61 8.83,9.01 20.64,13.52 35.42,13.52 14.79,0 26.68,-4.51 35.7,-13.52 9.01,-9.01 13.52,-20.55 13.52,-34.61zm-143.33 127.64l188.76 0 0 48.13 -188.76 0 0 -48.13zm2038.46 108.17l168.74 -154.15c11.18,-10.45 21.01,-21.27 29.48,-32.45 8.47,-11.17 12.71,-23.61 12.71,-37.32 0,-9.01 -1.98,-16.76 -5.95,-23.25 -3.96,-6.49 -9.19,-11.81 -15.68,-15.96 -6.49,-4.14 -13.8,-7.21 -21.91,-9.19 -8.11,-1.98 -16.31,-2.98 -24.61,-2.98 -9.01,0 -18.02,1.27 -27.04,3.79 -9.01,2.52 -17.04,6.49 -24.07,11.9 -7.03,5.41 -12.8,12.35 -17.3,20.82 -4.51,8.47 -7.13,18.84 -7.85,31.1l-66.52 0c1.08,-24.16 6.13,-44.26 15.14,-60.3 9.02,-16.05 20.19,-28.85 33.54,-38.4 13.34,-9.56 28.3,-16.32 44.89,-20.29 16.58,-3.96 32.99,-5.95 49.21,-5.95 18.75,0 36.24,2.26 52.47,6.76 16.22,4.51 30.37,11.36 42.45,20.56 12.08,9.19 21.55,20.55 28.4,34.07 6.85,13.52 10.27,29.3 10.27,47.32 0,23.08 -5.86,43.36 -17.57,60.85 -11.72,17.49 -26.96,34.89 -45.71,52.19l-110.33 101.68 0 2.17 173.61 0 0 60.03 -276.37 0 0 -53zm480.81 60.03c-19.11,0 -37.14,-2.52 -54.08,-7.57 -16.95,-5.05 -31.91,-12.26 -44.9,-21.63 -12.98,-9.38 -23.61,-20.83 -31.91,-34.35 -8.29,-13.52 -13.34,-28.75 -15.14,-45.7l66.53 0c4.32,15.5 13.34,28.12 27.04,37.86 13.7,9.73 31.19,14.6 52.46,14.6 12.26,0 23.53,-1.8 33.8,-5.41 10.28,-3.6 19.11,-8.65 26.51,-15.14 7.39,-6.49 13.16,-14.24 17.3,-23.26 4.15,-9.01 6.22,-18.93 6.22,-29.74 0,-10.82 -1.98,-20.74 -5.95,-29.75 -3.96,-9.01 -9.64,-16.77 -17.03,-23.26 -7.4,-6.49 -16.05,-11.54 -25.96,-15.14 -9.92,-3.61 -20.83,-5.41 -32.73,-5.41 -16.22,0 -30.91,3.52 -44.08,10.55 -13.16,7.03 -23.88,17.57 -32.18,31.64l-65.98 0 28.12 -223.92 238.52 0 0 57.88 -182.81 0 -11.36 92.48 2.17 0c22.35,-16.95 49.03,-25.42 80.04,-25.42 18.03,0 35.16,3.07 51.38,9.2 16.23,6.13 30.56,14.78 43,25.96 12.44,11.17 22.27,24.79 29.48,40.83 7.21,16.05 10.82,34.16 10.82,54.36 0,19.83 -3.79,37.86 -11.36,54.08 -7.57,16.23 -18.12,29.93 -31.64,41.11 -13.52,11.17 -29.3,19.83 -47.33,25.96 -18.03,6.13 -37.68,9.19 -58.95,9.19zm-2186.1 -303.42l-76.81 38.95 -24.87 -54.63 130.88 -66.53 36.24 0 0 378.6 -65.44 0 0 -296.39zm347.22 382.93c-17.31,-34.26 -30.92,-70.77 -40.83,-109.53 -9.92,-38.76 -14.88,-79.77 -14.88,-123.04 0,-43.27 4.96,-84.28 14.88,-123.04 9.91,-38.76 23.52,-75.27 40.83,-109.53l64.9 0c-18.39,34.26 -32.81,70.77 -43.26,109.53 -10.46,38.76 -15.69,79.77 -15.69,123.04 0,43.27 5.23,84.28 15.69,123.04 10.45,38.76 24.87,75.27 43.26,109.53l-64.9 0zm193.09 -382.93l-76.81 38.95 -24.87 -54.63 130.88 -66.53 36.24 0 0 378.6 -65.44 0 0 -296.39zm200.11 382.93c17.31,-34.26 30.92,-70.77 40.83,-109.53 9.92,-38.76 14.88,-79.77 14.88,-123.04 0,-43.27 -4.96,-84.28 -14.88,-123.04 -9.91,-38.76 -23.52,-75.27 -40.83,-109.53l-64.9 0c18.39,34.26 32.81,70.77 43.26,109.53 10.46,38.76 15.69,79.77 15.69,123.04 0,43.27 -5.23,84.28 -15.69,123.04 -10.45,38.76 -24.87,75.27 -43.26,109.53l64.9 0zm253.66 -139.54l168.74 -154.15c11.18,-10.45 21.01,-21.27 29.48,-32.45 8.47,-11.17 12.71,-23.61 12.71,-37.32 0,-9.01 -1.98,-16.76 -5.95,-23.25 -3.96,-6.49 -9.19,-11.81 -15.68,-15.96 -6.49,-4.14 -13.8,-7.21 -21.91,-9.19 -8.11,-1.98 -16.31,-2.98 -24.61,-2.98 -9.01,0 -18.02,1.27 -27.04,3.79 -9.01,2.52 -17.04,6.49 -24.07,11.9 -7.03,5.41 -12.8,12.35 -17.3,20.82 -4.51,8.47 -7.13,18.84 -7.85,31.1l-66.52 0c1.08,-24.16 6.13,-44.26 15.14,-60.3 9.02,-16.05 20.19,-28.85 33.54,-38.4 13.34,-9.56 28.3,-16.32 44.89,-20.29 16.58,-3.96 32.99,-5.95 49.21,-5.95 18.75,0 36.24,2.26 52.47,6.76 16.22,4.51 30.37,11.36 42.45,20.56 12.08,9.19 21.55,20.55 28.4,34.07 6.85,13.52 10.27,29.3 10.27,47.32 0,23.08 -5.86,43.36 -17.57,60.85 -11.72,17.49 -26.96,34.89 -45.71,52.19l-110.33 101.68 0 2.17 173.61 0 0 60.03 -276.37 0 0 -53zm494.33 60.03c-23.07,0 -44.35,-4.51 -63.82,-13.52 -19.47,-9.01 -36.24,-21.99 -50.3,-38.94 -14.06,-16.95 -24.97,-37.59 -32.72,-61.93 -7.75,-24.34 -11.63,-51.65 -11.63,-81.94 0,-30.29 3.88,-57.6 11.63,-81.94 7.75,-24.33 18.66,-44.98 32.72,-61.92 14.06,-16.95 30.83,-29.93 50.3,-38.94 19.47,-9.02 40.75,-13.53 63.82,-13.53 23.08,0 44.26,4.51 63.55,13.53 19.29,9.01 35.97,21.99 50.03,38.94 14.06,16.94 24.97,37.59 32.72,61.92 7.75,24.34 11.63,51.65 11.63,81.94 0,30.29 -3.88,57.6 -11.63,81.94 -7.75,24.34 -18.66,44.98 -32.72,61.93 -14.06,16.95 -30.74,29.93 -50.03,38.94 -19.29,9.01 -40.47,13.52 -63.55,13.52zm0 -60.03c13.7,0 26.14,-3.07 37.32,-9.2 11.18,-6.13 20.91,-14.96 29.21,-26.5 8.29,-11.54 14.69,-25.78 19.2,-42.73 4.5,-16.94 6.76,-36.23 6.76,-57.87 0,-21.63 -2.26,-40.92 -6.76,-57.87 -4.51,-16.95 -10.91,-31.19 -19.2,-42.73 -8.3,-11.53 -18.03,-20.37 -29.21,-26.5 -11.18,-6.13 -23.62,-9.19 -37.32,-9.19 -13.34,0 -25.69,3.06 -37.05,9.19 -11.35,6.13 -21.18,14.97 -29.47,26.5 -8.3,11.54 -14.7,25.78 -19.2,42.73 -4.51,16.95 -6.76,36.24 -6.76,57.87 0,21.64 2.25,40.93 6.76,57.87 4.5,16.95 10.9,31.19 19.2,42.73 8.29,11.54 18.12,20.37 29.47,26.5 11.36,6.13 23.71,9.2 37.05,9.2zm-3494.44 256.12l65.44 0 0 378.6 -65.44 0 0 -378.6zm322.89 385.63c-24.88,0 -48.23,-2.16 -70.04,-6.49 -21.82,-4.33 -41.02,-11.45 -57.6,-21.36 -16.59,-9.92 -30.11,-23.17 -40.57,-39.76 -10.45,-16.58 -16.76,-37.13 -18.93,-61.65l68.15 0c2.16,13.34 6.67,24.61 13.52,33.8 6.85,9.2 15.41,16.68 25.69,22.45 10.28,5.77 22.18,9.82 35.7,12.17 13.52,2.34 28.21,3.51 44.08,3.51 11.9,0 23.43,-0.72 34.61,-2.16 11.18,-1.44 21.18,-4.15 30.02,-8.12 8.83,-3.96 15.95,-9.37 21.36,-16.22 5.41,-6.85 8.11,-15.87 8.11,-27.04 0,-12.62 -3.78,-22.45 -11.35,-29.48 -7.58,-7.03 -17.67,-12.62 -30.29,-16.77 -12.62,-4.14 -26.86,-7.3 -42.73,-9.46 -15.86,-2.16 -32.18,-4.42 -48.95,-6.76 -16.76,-2.35 -33.08,-5.59 -48.94,-9.74 -15.87,-4.14 -30.11,-10.18 -42.73,-18.12 -12.62,-7.93 -22.71,-18.38 -30.29,-31.36 -7.57,-12.98 -11.35,-29.75 -11.35,-50.3 0,-23.8 5.31,-42.82 15.95,-57.06 10.64,-14.25 23.8,-25.33 39.48,-33.27 15.69,-7.93 32.54,-13.16 50.57,-15.68 18.03,-2.52 34.44,-3.79 49.22,-3.79 22.71,0 43.81,2.26 63.28,6.76 19.47,4.51 36.51,11.45 51.11,20.83 14.6,9.37 26.5,21.54 35.7,36.5 9.19,14.97 14.87,32.91 17.03,53.82l-67.6 0c-3.61,-20.19 -14.07,-35.34 -31.37,-45.43 -17.31,-10.1 -40.03,-15.15 -68.15,-15.15 -11.18,0 -22.18,0.91 -32.99,2.71 -10.82,1.8 -20.46,4.69 -28.94,8.65 -8.47,3.97 -15.23,9.38 -20.28,16.23 -5.05,6.85 -7.57,15.14 -7.57,24.88 0,11.9 3.78,21.09 11.36,27.58 7.57,6.49 17.66,11.63 30.28,15.41 12.62,3.79 26.87,6.76 42.73,8.93 15.87,2.16 32.18,4.51 48.95,7.03 16.76,2.52 33.08,5.95 48.94,10.28 15.87,4.32 30.11,10.63 42.73,18.93 12.62,8.29 22.72,19.11 30.29,32.45 7.57,13.34 11.36,30.46 11.36,51.38 0,22.71 -4.69,41.28 -14.06,55.7 -9.38,14.43 -21.55,25.69 -36.51,33.81 -14.97,8.11 -32,13.7 -51.11,16.76 -19.11,3.07 -38.4,4.6 -57.87,4.6zm393.2 0c-24.88,0 -48.23,-2.16 -70.04,-6.49 -21.82,-4.33 -41.02,-11.45 -57.6,-21.36 -16.59,-9.92 -30.11,-23.17 -40.57,-39.76 -10.45,-16.58 -16.76,-37.13 -18.93,-61.65l68.15 0c2.16,13.34 6.67,24.61 13.52,33.8 6.85,9.2 15.41,16.68 25.69,22.45 10.28,5.77 22.18,9.82 35.7,12.17 13.52,2.34 28.21,3.51 44.08,3.51 11.9,0 23.43,-0.72 34.61,-2.16 11.18,-1.44 21.18,-4.15 30.02,-8.12 8.83,-3.96 15.95,-9.37 21.36,-16.22 5.41,-6.85 8.11,-15.87 8.11,-27.04 0,-12.62 -3.78,-22.45 -11.35,-29.48 -7.58,-7.03 -17.67,-12.62 -30.29,-16.77 -12.62,-4.14 -26.86,-7.3 -42.73,-9.46 -15.86,-2.16 -32.18,-4.42 -48.95,-6.76 -16.76,-2.35 -33.08,-5.59 -48.94,-9.74 -15.87,-4.14 -30.11,-10.18 -42.73,-18.12 -12.62,-7.93 -22.71,-18.38 -30.29,-31.36 -7.57,-12.98 -11.35,-29.75 -11.35,-50.3 0,-23.8 5.31,-42.82 15.95,-57.06 10.64,-14.25 23.8,-25.33 39.48,-33.27 15.69,-7.93 32.54,-13.16 50.57,-15.68 18.03,-2.52 34.44,-3.79 49.22,-3.79 22.71,0 43.81,2.26 63.28,6.76 19.47,4.51 36.51,11.45 51.11,20.83 14.6,9.37 26.5,21.54 35.7,36.5 9.19,14.97 14.87,32.91 17.03,53.82l-67.6 0c-3.61,-20.19 -14.07,-35.34 -31.37,-45.43 -17.31,-10.1 -40.03,-15.15 -68.15,-15.15 -11.18,0 -22.18,0.91 -32.99,2.71 -10.82,1.8 -20.46,4.69 -28.94,8.65 -8.47,3.97 -15.23,9.38 -20.28,16.23 -5.05,6.85 -7.57,15.14 -7.57,24.88 0,11.9 3.78,21.09 11.36,27.58 7.57,6.49 17.66,11.63 30.28,15.41 12.62,3.79 26.87,6.76 42.73,8.93 15.87,2.16 32.18,4.51 48.95,7.03 16.76,2.52 33.08,5.95 48.94,10.28 15.87,4.32 30.11,10.63 42.73,18.93 12.62,8.29 22.72,19.11 30.29,32.45 7.57,13.34 11.36,30.46 11.36,51.38 0,22.71 -4.69,41.28 -14.06,55.7 -9.38,14.43 -21.55,25.69 -36.51,33.81 -14.97,8.11 -32,13.7 -51.11,16.76 -19.11,3.07 -38.4,4.6 -57.87,4.6zm576.54 -7.03l-81.66 0 -192.55 -282.86 -2.16 0 0 282.86 -65.44 0 0 -378.6 82.21 0 192 282.87 2.16 0 0 -282.87 65.44 0 0 378.6zm219.05 -53l168.74 -154.15c11.18,-10.45 21.01,-21.27 29.48,-32.45 8.47,-11.17 12.71,-23.61 12.71,-37.32 0,-9.01 -1.98,-16.76 -5.95,-23.25 -3.96,-6.49 -9.19,-11.81 -15.68,-15.96 -6.49,-4.14 -13.8,-7.21 -21.91,-9.19 -8.11,-1.98 -16.31,-2.98 -24.61,-2.98 -9.01,0 -18.02,1.27 -27.04,3.79 -9.01,2.52 -17.04,6.49 -24.07,11.9 -7.03,5.41 -12.8,12.35 -17.3,20.82 -4.51,8.47 -7.13,18.84 -7.85,31.1l-66.52 0c1.08,-24.16 6.13,-44.26 15.14,-60.3 9.02,-16.05 20.19,-28.85 33.54,-38.4 13.34,-9.56 28.3,-16.32 44.89,-20.29 16.58,-3.96 32.99,-5.95 49.21,-5.95 18.75,0 36.24,2.26 52.47,6.76 16.22,4.51 30.37,11.36 42.45,20.56 12.08,9.19 21.55,20.55 28.4,34.07 6.85,13.52 10.27,29.3 10.27,47.32 0,23.08 -5.86,43.36 -17.57,60.85 -11.72,17.49 -26.96,34.89 -45.71,52.19l-110.33 101.68 0 2.17 173.61 0 0 60.03 -276.37 0 0 -53zm491.63 60.03c-24.16,0 -45.88,-4.33 -65.17,-12.98 -19.3,-8.65 -35.61,-21.27 -48.95,-37.86 -13.34,-16.58 -23.62,-37.05 -30.83,-61.39 -7.21,-24.33 -10.82,-52.37 -10.82,-84.1 0,-25.6 2.53,-50.21 7.57,-73.82 5.05,-23.62 13.53,-44.44 25.42,-62.47 11.9,-18.03 27.86,-32.54 47.87,-43.54 20.01,-11 44.98,-16.5 74.91,-16.5 40.38,0 72.2,9.74 95.46,29.21 23.25,19.47 37.59,45.43 43,77.88l-67.07 0c-3.97,-14.42 -11.45,-26.32 -22.45,-35.69 -10.99,-9.38 -27.31,-14.07 -48.94,-14.07 -28.13,0 -49.94,9.74 -65.45,29.21 -15.5,19.47 -23.61,50.84 -24.33,94.11l2.16 0c10.82,-12.62 24.25,-22.81 40.29,-30.56 16.05,-7.75 35.43,-11.63 58.14,-11.63 19.48,0 37.5,3.07 54.09,9.2 16.59,6.13 31.01,14.78 43.27,25.96 12.26,11.17 21.81,24.52 28.66,40.02 6.85,15.5 10.28,32.63 10.28,51.38 0,19.47 -3.7,37.05 -11.09,52.73 -7.39,15.69 -17.67,29.03 -30.83,40.03 -13.16,10.99 -28.66,19.56 -46.51,25.69 -17.85,6.13 -37.41,9.19 -58.68,9.19zm0 -57.33c11.18,0 21.72,-1.53 31.64,-4.6 9.91,-3.06 18.57,-7.57 25.96,-13.52 7.39,-5.95 13.25,-13.34 17.58,-22.17 4.32,-8.84 6.49,-18.84 6.49,-30.02 0,-11.18 -2.17,-21.18 -6.49,-30.02 -4.33,-8.83 -10.19,-16.22 -17.58,-22.17 -7.39,-5.95 -16.05,-10.46 -25.96,-13.52 -9.92,-3.07 -20.46,-4.6 -31.64,-4.6 -11.18,0 -21.73,1.53 -31.64,4.6 -9.92,3.06 -18.57,7.57 -25.96,13.52 -7.39,5.95 -13.25,13.34 -17.58,22.17 -4.33,8.84 -6.49,18.84 -6.49,30.02 0,11.18 2.16,21.18 6.49,30.02 4.33,8.83 10.19,16.22 17.58,22.17 7.39,5.95 16.04,10.46 25.96,13.52 9.91,3.07 20.46,4.6 31.64,4.6zm353.17 57.33c-19.11,0 -37.14,-2.52 -54.08,-7.57 -16.95,-5.05 -31.91,-12.26 -44.9,-21.63 -12.98,-9.38 -23.61,-20.83 -31.91,-34.35 -8.29,-13.52 -13.34,-28.75 -15.14,-45.7l66.53 0c4.32,15.5 13.34,28.12 27.04,37.86 13.7,9.73 31.19,14.6 52.46,14.6 12.26,0 23.53,-1.8 33.8,-5.41 10.28,-3.6 19.11,-8.65 26.51,-15.14 7.39,-6.49 13.16,-14.24 17.3,-23.26 4.15,-9.01 6.22,-18.93 6.22,-29.74 0,-10.82 -1.98,-20.74 -5.95,-29.75 -3.96,-9.01 -9.64,-16.77 -17.03,-23.26 -7.4,-6.49 -16.05,-11.54 -25.96,-15.14 -9.92,-3.61 -20.83,-5.41 -32.73,-5.41 -16.22,0 -30.91,3.52 -44.08,10.55 -13.16,7.03 -23.88,17.57 -32.18,31.64l-65.98 0 28.12 -223.92 238.52 0 0 57.88 -182.81 0 -11.36 92.48 2.17 0c22.35,-16.95 49.03,-25.42 80.04,-25.42 18.03,0 35.16,3.07 51.38,9.2 16.23,6.13 30.56,14.78 43,25.96 12.44,11.17 22.27,24.79 29.48,40.83 7.21,16.05 10.82,34.16 10.82,54.36 0,19.83 -3.79,37.86 -11.36,54.08 -7.57,16.23 -18.12,29.93 -31.64,41.11 -13.52,11.17 -29.3,19.83 -47.33,25.96 -18.03,6.13 -37.68,9.19 -58.95,9.19zm362.37 0c-24.16,0 -45.88,-4.33 -65.17,-12.98 -19.3,-8.65 -35.61,-21.27 -48.95,-37.86 -13.34,-16.58 -23.62,-37.05 -30.83,-61.39 -7.21,-24.33 -10.82,-52.37 -10.82,-84.1 0,-25.6 2.53,-50.21 7.57,-73.82 5.05,-23.62 13.53,-44.44 25.42,-62.47 11.9,-18.03 27.86,-32.54 47.87,-43.54 20.01,-11 44.98,-16.5 74.91,-16.5 40.38,0 72.2,9.74 95.46,29.21 23.25,19.47 37.59,45.43 43,77.88l-67.07 0c-3.97,-14.42 -11.45,-26.32 -22.45,-35.69 -10.99,-9.38 -27.31,-14.07 -48.94,-14.07 -28.13,0 -49.94,9.74 -65.45,29.21 -15.5,19.47 -23.61,50.84 -24.33,94.11l2.16 0c10.82,-12.62 24.25,-22.81 40.29,-30.56 16.05,-7.75 35.43,-11.63 58.14,-11.63 19.48,0 37.5,3.07 54.09,9.2 16.59,6.13 31.01,14.78 43.27,25.96 12.26,11.17 21.81,24.52 28.66,40.02 6.85,15.5 10.28,32.63 10.28,51.38 0,19.47 -3.7,37.05 -11.09,52.73 -7.39,15.69 -17.67,29.03 -30.83,40.03 -13.16,10.99 -28.66,19.56 -46.51,25.69 -17.85,6.13 -37.41,9.19 -58.68,9.19zm0 -57.33c11.18,0 21.72,-1.53 31.64,-4.6 9.91,-3.06 18.57,-7.57 25.96,-13.52 7.39,-5.95 13.25,-13.34 17.58,-22.17 4.32,-8.84 6.49,-18.84 6.49,-30.02 0,-11.18 -2.17,-21.18 -6.49,-30.02 -4.33,-8.83 -10.19,-16.22 -17.58,-22.17 -7.39,-5.95 -16.05,-10.46 -25.96,-13.52 -9.92,-3.07 -20.46,-4.6 -31.64,-4.6 -11.18,0 -21.73,1.53 -31.64,4.6 -9.92,3.06 -18.57,7.57 -25.96,13.52 -7.39,5.95 -13.25,13.34 -17.58,22.17 -4.33,8.84 -6.49,18.84 -6.49,30.02 0,11.18 2.16,21.18 6.49,30.02 4.33,8.83 10.19,16.22 17.58,22.17 7.39,5.95 16.04,10.46 25.96,13.52 9.91,3.07 20.46,4.6 31.64,4.6zm209.3 -131.43l189.3 0 0 57.33 -189.3 0 0 -57.33zm396.45 188.76c-20.19,0 -39.03,-2.25 -56.52,-6.76 -17.49,-4.51 -32.9,-11.54 -46.24,-21.09 -13.34,-9.56 -24.07,-21.91 -32.18,-37.05 -8.11,-15.14 -12.71,-33.35 -13.79,-54.63l64.9 0c0.72,10.46 3.51,19.56 8.38,27.32 4.87,7.75 11.09,14.24 18.66,19.47 7.57,5.22 16.23,9.1 25.96,11.62 9.74,2.53 20.01,3.79 30.83,3.79 9.38,0 18.75,-1.08 28.13,-3.24 9.37,-2.17 17.75,-5.59 25.14,-10.28 7.4,-4.69 13.44,-10.82 18.12,-18.39 4.69,-7.57 7.03,-16.77 7.03,-27.58 0,-7.94 -1.44,-15.42 -4.32,-22.45 -2.89,-7.03 -7.3,-13.07 -13.25,-18.12 -5.95,-5.04 -13.7,-9.1 -23.26,-12.17 -9.55,-3.06 -21,-4.59 -34.34,-4.59l-50.84 0 0 -57.87 49.21 0c25.24,0 43.09,-4.69 53.55,-14.07 10.45,-9.37 15.68,-21.27 15.68,-35.69 0,-10.46 -2.25,-19.2 -6.76,-26.23 -4.51,-7.03 -10.27,-12.53 -17.31,-16.5 -7.03,-3.97 -14.87,-6.76 -23.52,-8.38 -8.66,-1.62 -17.13,-2.44 -25.42,-2.44 -23.8,0 -42.46,5.23 -55.98,15.69 -13.52,10.46 -21,24.16 -22.45,41.1l-64.9 0c1.44,-20.19 5.95,-37.41 13.52,-51.65 7.58,-14.24 17.76,-26.05 30.56,-35.42 12.8,-9.38 27.59,-16.23 44.35,-20.56 16.77,-4.32 35.07,-6.49 54.9,-6.49 19.47,0 37.68,2.08 54.62,6.22 16.95,4.15 31.64,10.46 44.08,18.93 12.44,8.48 22.18,19.2 29.21,32.18 7.03,12.98 10.55,28.31 10.55,45.98 0,21.27 -4.6,38.49 -13.8,51.65 -9.19,13.16 -21.18,23.16 -35.96,30.01l0 2.17c19.11,9.01 33.35,21.54 42.72,37.59 9.38,16.04 14.07,34.88 14.07,56.52 0,19.47 -3.79,36.23 -11.36,50.29 -7.57,14.07 -17.85,25.61 -30.83,34.62 -12.98,9.01 -28.12,15.68 -45.43,20.01 -17.31,4.33 -35.88,6.49 -55.71,6.49zm378.6 -321.8l0 -2.17 -195.79 0 0 -61.66 272.59 0 0 50.3 -153.6 328.3 -70.31 0 147.11 -314.77zm210.94 18.38l-76.81 38.95 -24.87 -54.63 130.88 -66.53 36.24 0 0 378.6 -65.44 0 0 -296.39zm148.73 243.39l168.74 -154.15c11.18,-10.45 21.01,-21.27 29.48,-32.45 8.47,-11.17 12.71,-23.61 12.71,-37.32 0,-9.01 -1.98,-16.76 -5.95,-23.25 -3.96,-6.49 -9.19,-11.81 -15.68,-15.96 -6.49,-4.14 -13.8,-7.21 -21.91,-9.19 -8.11,-1.98 -16.31,-2.98 -24.61,-2.98 -9.01,0 -18.02,1.27 -27.04,3.79 -9.01,2.52 -17.04,6.49 -24.07,11.9 -7.03,5.41 -12.8,12.35 -17.3,20.82 -4.51,8.47 -7.13,18.84 -7.85,31.1l-66.52 0c1.08,-24.16 6.13,-44.26 15.14,-60.3 9.02,-16.05 20.19,-28.85 33.54,-38.4 13.34,-9.56 28.3,-16.32 44.89,-20.29 16.58,-3.96 32.99,-5.95 49.21,-5.95 18.75,0 36.24,2.26 52.47,6.76 16.22,4.51 30.37,11.36 42.45,20.56 12.08,9.19 21.55,20.55 28.4,34.07 6.85,13.52 10.27,29.3 10.27,47.32 0,23.08 -5.86,43.36 -17.57,60.85 -11.72,17.49 -26.96,34.89 -45.71,52.19l-110.33 101.68 0 2.17 173.61 0 0 60.03 -276.37 0 0 -53z"/>
  </g>
 </g>
</svg>
