<svg width="994" height="215" viewBox="0 0 994 215" fill="none" xmlns="http://www.w3.org/2000/svg">
<path fill-rule="evenodd" clip-rule="evenodd" d="M0 112.795C0.0986457 166.44 40.0179 210.751 93.7907 214.643C95.1336 186.373 94.0066 128.057 93.9952 96.6811H0V112.795ZM100.71 89.9675H194.705V0H100.71V89.9675ZM139.188 63.8219C140.678 63.8219 141.908 63.6975 142.878 63.4492C143.849 63.2005 144.628 62.8622 145.215 62.4333C145.802 62.005 146.208 61.4967 146.434 60.9097C146.66 60.3228 146.773 59.6685 146.773 58.9459C146.773 57.4106 146.05 56.1354 144.605 55.1195C143.161 54.1043 140.678 53.009 137.156 51.8351C135.621 51.2935 134.085 50.6725 132.551 49.9729C131.016 49.273 129.639 48.3927 128.42 47.3318C127.201 46.2709 126.207 44.9839 125.441 43.4717C124.673 41.9592 124.289 40.1189 124.289 37.9521C124.289 35.7853 124.695 33.8321 125.508 32.0939C126.32 30.3556 127.471 28.8775 128.961 27.6582C130.452 26.4393 132.257 25.5027 134.379 24.8485C136.501 24.1931 138.894 23.8662 141.558 23.8662C144.718 23.8662 147.45 24.2045 149.752 24.8814C152.054 25.5587 153.951 26.304 155.441 27.1166L152.393 35.4467C151.085 34.769 149.628 34.1711 148.025 33.6518C146.423 33.1321 144.492 32.8732 142.236 32.8732C139.707 32.8732 137.89 33.2232 136.783 33.9228C135.677 34.6227 135.125 35.6942 135.125 37.1395C135.125 37.9975 135.327 38.719 135.733 39.306C136.14 39.8929 136.716 40.4239 137.461 40.8983C138.206 41.3722 139.064 41.8008 140.034 42.1848C141.005 42.5681 142.077 42.9634 143.251 43.3701C145.689 44.273 147.811 45.1642 149.617 46.0452C151.423 46.9251 152.924 47.952 154.121 49.1259C155.317 50.2998 156.209 51.6767 156.795 53.2573C157.382 54.8372 157.675 56.7564 157.675 59.0132C157.675 63.3929 156.141 66.7907 153.071 69.2058C150 71.6209 145.373 72.8289 139.188 72.8289C137.111 72.8289 135.237 72.7049 133.567 72.4562C131.896 72.2079 130.418 71.9036 129.131 71.5423C127.844 71.181 126.738 70.797 125.812 70.3911C124.887 69.9844 124.108 69.6011 123.476 69.2398L126.456 60.8425C127.855 61.6093 129.582 62.298 131.636 62.9076C133.691 63.5172 136.208 63.8219 139.188 63.8219ZM0 89.9675H93.9952V0H0V89.9675ZM51.702 72.8289C48.4063 72.8289 45.5622 72.3662 43.169 71.4406C40.7766 70.515 38.8013 69.2285 37.2434 67.5806C35.6855 65.9323 34.5342 63.9685 33.79 61.6883C33.0447 59.4085 32.6721 56.8921 32.6721 54.1372V24.9498H43.2369V53.2573C43.2369 55.1539 43.4517 56.7677 43.8799 58.0993C44.3088 59.4316 44.8958 60.5151 45.6407 61.3497C46.3861 62.1849 47.289 62.7833 48.3499 63.1446C49.4112 63.5059 50.5738 63.6862 51.8377 63.6862C54.4112 63.6862 56.4989 62.8963 58.1018 61.3164C59.704 59.7358 60.5064 57.0493 60.5064 53.2573V24.9498H71.0706V54.1372C71.0706 56.8921 70.6866 59.4202 69.9193 61.7223C69.1513 64.0248 67.9773 66 66.3979 67.6479C64.818 69.2958 62.8085 70.5713 60.3707 71.4739C57.9329 72.3776 55.0427 72.8289 51.702 72.8289ZM100.71 209.476L100.868 214.645C154.639 210.755 194.651 166.451 194.705 112.795V96.6811H100.71V209.476ZM160.013 113.23V122.237H145.859V160.161H135.295V122.237H121.14V113.23H160.013ZM64.3317 160.161C63.8014 158.525 63.2489 156.854 62.6389 155.139C62.0406 153.423 61.4422 151.708 60.8439 150.003H42.5147C41.9277 151.718 41.3295 153.434 40.7312 155.15C40.1442 156.876 39.5913 158.536 39.0716 160.161H28.1003C29.8726 155.105 31.5434 150.432 33.1233 146.143C34.7145 141.854 36.261 137.813 37.7849 134.021C39.2971 130.229 40.7871 126.628 42.266 123.219C43.7333 119.81 45.2681 116.481 46.8483 113.23H56.8596C58.4062 116.481 59.93 119.81 61.4195 123.219C62.9208 126.628 64.4227 130.229 65.9463 134.021C67.4694 137.813 69.016 141.854 70.6079 146.143C72.1991 150.432 73.8701 155.105 75.6412 160.161H64.3317ZM51.634 123.862C51.3966 124.54 51.0583 125.477 50.5953 126.639C50.1441 127.813 49.6256 129.167 49.0488 130.714C48.4736 132.248 47.8193 133.942 47.108 135.793C46.3853 137.632 45.6634 139.574 44.9185 141.606H58.3385C57.6276 139.574 56.9279 137.621 56.2506 135.77C55.5843 133.919 54.9415 132.226 54.3314 130.68C53.7331 129.145 53.2032 127.791 52.7402 126.617C52.2889 125.443 51.9163 124.529 51.634 123.862Z" fill="#FFC82A"/>
<path d="M282.656 114.682C276.519 114.682 271.223 113.842 266.768 112.16C262.312 110.395 258.613 107.999 255.671 104.973C252.813 101.862 250.669 98.2055 249.24 94.0023C247.895 89.7149 247.222 85.0072 247.222 79.8792V25.5309H266.894V78.24C266.894 81.7707 267.272 84.7971 268.029 87.319C268.869 89.7569 269.962 91.7745 271.307 93.3718C272.736 94.8849 274.418 95.9778 276.351 96.6503C278.369 97.3228 280.554 97.6591 282.908 97.6591C287.7 97.6591 291.567 96.188 294.509 93.2457C297.536 90.3034 299.049 85.3015 299.049 78.24V25.5309H318.72V79.8792C318.72 85.0072 318.006 89.7149 316.576 94.0023C315.147 98.2896 312.962 101.988 310.019 105.099C307.077 108.125 303.336 110.479 298.797 112.16C294.257 113.842 288.877 114.682 282.656 114.682ZM396.274 112.917C390.642 102.913 384.547 93.0355 377.99 83.2839C371.433 73.5323 364.456 64.3271 357.058 55.6684V112.917H337.639V25.5309H353.653C356.427 28.305 359.496 31.7097 362.858 35.7448C366.221 39.78 369.626 44.1094 373.072 48.733C376.603 53.2725 380.092 58.0222 383.539 62.9821C386.985 67.8579 390.222 72.5655 393.248 77.1051V25.5309H412.793V112.917H396.274ZM432.951 25.5309H452.623V112.917H432.951V25.5309ZM498.826 112.917C495.379 105.603 491.975 97.9954 488.612 90.0932C485.249 82.191 482.055 74.373 479.028 66.6389C476.002 58.9049 473.186 51.5071 470.58 44.4456C468.058 37.3841 465.872 31.0792 464.023 25.5309H485.712C487.393 30.5748 489.2 36.0391 491.134 41.9237C493.151 47.7242 495.169 53.5247 497.187 59.3252C499.288 65.1257 501.306 70.6741 503.239 75.9702C505.173 81.2663 506.98 85.8479 508.662 89.7149C510.259 85.8479 512.024 81.2663 513.958 75.9702C515.975 70.6741 517.993 65.1257 520.01 59.3252C522.112 53.5247 524.13 47.7242 526.063 41.9237C528.081 36.0391 529.93 30.5748 531.611 25.5309H552.544C550.61 31.0792 548.382 37.3841 545.861 44.4456C543.339 51.5071 540.564 58.9049 537.538 66.6389C534.512 74.373 531.317 82.191 527.955 90.0932C524.592 97.9954 521.187 105.603 517.741 112.917H498.826ZM563.852 112.917V25.5309H622.866V42.0498H583.524V59.1991H618.453V75.3397H583.524V96.3981H625.766V112.917H563.852ZM665.922 24.5221C679.036 24.5221 689.082 26.8759 696.059 31.5836C703.037 36.2072 706.526 43.4368 706.526 53.2725C706.526 59.4093 705.096 64.4112 702.238 68.2782C699.464 72.0611 695.429 75.0455 690.133 77.2312C691.898 79.4169 693.748 81.9388 695.681 84.7971C697.615 87.5712 699.506 90.5135 701.355 93.624C703.289 96.6503 705.138 99.8448 706.904 103.207C708.669 106.486 710.308 109.723 711.822 112.917H689.754C688.157 110.059 686.518 107.159 684.837 104.216C683.239 101.274 681.558 98.4157 679.793 95.6415C678.111 92.8674 676.43 90.2613 674.749 87.8234C673.067 85.3015 671.386 83.0317 669.705 81.0141H659.995V112.917H640.324V26.7919C644.611 25.9512 649.025 25.3628 653.564 25.0265C658.188 24.6902 662.307 24.5221 665.922 24.5221ZM667.057 41.2932C665.628 41.2932 664.325 41.3352 663.148 41.4193C662.055 41.5033 661.004 41.5874 659.995 41.6715V65.3779H665.544C672.941 65.3779 678.237 64.4532 681.432 62.6038C684.626 60.7543 686.224 57.6019 686.224 53.1464C686.224 48.8591 684.584 45.8327 681.306 44.0673C678.111 42.2179 673.362 41.2932 667.057 41.2932ZM748.263 97.9113C751.037 97.9113 753.307 97.7011 755.072 97.2808C756.922 96.7764 758.393 96.1459 759.486 95.3893C760.579 94.5487 761.335 93.5819 761.756 92.4891C762.176 91.3962 762.386 90.1773 762.386 88.8322C762.386 85.974 761.041 83.6202 758.351 81.7707C755.661 79.8372 751.037 77.7776 744.48 75.5919C741.622 74.5831 738.764 73.4482 735.905 72.1872C733.047 70.8422 730.483 69.2029 728.213 67.2694C725.944 65.2518 724.094 62.856 722.665 60.0818C721.236 57.2236 720.521 53.7769 720.521 49.7418C720.521 45.7066 721.278 42.0918 722.791 38.8973C724.304 35.6187 726.448 32.8446 729.222 30.5748C731.996 28.305 735.359 26.5817 739.31 25.4048C743.261 24.1438 747.717 23.5133 752.676 23.5133C758.561 23.5133 763.647 24.1438 767.934 25.4048C772.222 26.6658 775.752 28.0529 778.527 29.566L772.852 45.0761C770.414 43.8151 767.682 42.7223 764.656 41.7976C761.714 40.7888 758.141 40.2844 753.937 40.2844C749.23 40.2844 745.825 40.9569 743.724 42.302C741.706 43.5629 740.697 45.5385 740.697 48.2286C740.697 49.8258 741.075 51.1709 741.832 52.2637C742.589 53.3566 743.639 54.3654 744.985 55.2901C746.414 56.1307 748.011 56.9294 749.776 57.6859C751.626 58.3585 753.643 59.073 755.829 59.8296C760.368 61.5109 764.32 63.1922 767.682 64.8735C771.045 66.4708 773.819 68.3623 776.005 70.548C778.274 72.7337 779.956 75.2977 781.049 78.24C782.141 81.1823 782.688 84.755 782.688 88.9583C782.688 97.1127 779.83 103.46 774.113 107.999C768.397 112.455 759.78 114.682 748.263 114.682C744.396 114.682 740.907 114.43 737.797 113.926C734.686 113.505 731.912 112.959 729.474 112.287C727.121 111.614 725.061 110.899 723.296 110.143C721.614 109.386 720.185 108.672 719.008 107.999L724.557 92.363C727.163 93.7921 730.357 95.0951 734.14 96.272C738.007 97.3649 742.715 97.9113 748.263 97.9113ZM797.824 25.5309H817.495V112.917H797.824V25.5309ZM902.536 25.5309V42.302H876.182V112.917H856.511V42.302H830.156V25.5309H902.536ZM951.518 61.4689C955.048 55.5002 958.411 49.5316 961.606 43.5629C964.8 37.5943 967.742 31.5836 970.432 25.5309H992.121C987.33 34.9462 982.37 44.0673 977.242 52.8942C972.114 61.7211 966.692 70.59 960.975 79.5009V112.917H941.304V79.7531C935.587 70.8422 930.123 61.9313 924.911 53.0203C919.783 44.1094 914.823 34.9462 910.031 25.5309H932.855C935.545 31.5836 938.446 37.5943 941.556 43.5629C944.666 49.5316 947.987 55.5002 951.518 61.4689Z" fill="#FFC82A"/>
<path d="M253.762 148.955C253.762 150.519 253.946 151.93 254.314 153.187C254.712 154.444 255.264 155.533 255.97 156.453C256.706 157.342 257.595 158.032 258.638 158.523C259.68 159.014 260.876 159.259 262.226 159.259C263.544 159.259 264.725 159.014 265.768 158.523C266.841 158.032 267.73 157.342 268.436 156.453C269.172 155.533 269.724 154.444 270.092 153.187C270.49 151.93 270.69 150.519 270.69 148.955C270.69 147.391 270.49 145.98 270.092 144.723C269.724 143.435 269.172 142.346 268.436 141.457C267.73 140.537 266.841 139.832 265.768 139.341C264.725 138.85 263.544 138.605 262.226 138.605C260.876 138.605 259.68 138.866 258.638 139.387C257.595 139.878 256.706 140.583 255.97 141.503C255.264 142.392 254.712 143.481 254.314 144.769C253.946 146.026 253.762 147.422 253.762 148.955ZM278.096 148.955C278.096 151.684 277.682 154.092 276.854 156.177C276.056 158.232 274.952 159.964 273.542 161.375C272.131 162.755 270.444 163.798 268.482 164.503C266.55 165.208 264.464 165.561 262.226 165.561C260.048 165.561 257.994 165.208 256.062 164.503C254.13 163.798 252.443 162.755 251.002 161.375C249.56 159.964 248.426 158.232 247.598 156.177C246.77 154.092 246.356 151.684 246.356 148.955C246.356 146.226 246.785 143.834 247.644 141.779C248.502 139.694 249.652 137.946 251.094 136.535C252.566 135.124 254.252 134.066 256.154 133.361C258.086 132.656 260.11 132.303 262.226 132.303C264.403 132.303 266.458 132.656 268.39 133.361C270.322 134.066 272.008 135.124 273.45 136.535C274.891 137.946 276.026 139.694 276.854 141.779C277.682 143.834 278.096 146.226 278.096 148.955ZM284.077 164.917V133.039H305.421V139.065H291.253V145.735H303.857V151.761H291.253V164.917H284.077ZM330.236 159.443C331.248 159.443 332.076 159.366 332.72 159.213C333.395 159.029 333.932 158.799 334.33 158.523C334.729 158.216 335.005 157.864 335.158 157.465C335.312 157.066 335.388 156.622 335.388 156.131C335.388 155.088 334.898 154.23 333.916 153.555C332.935 152.85 331.248 152.098 328.856 151.301C327.814 150.933 326.771 150.519 325.728 150.059C324.686 149.568 323.75 148.97 322.922 148.265C322.094 147.529 321.42 146.655 320.898 145.643C320.377 144.6 320.116 143.343 320.116 141.871C320.116 140.399 320.392 139.08 320.944 137.915C321.496 136.719 322.278 135.707 323.29 134.879C324.302 134.051 325.529 133.422 326.97 132.993C328.412 132.533 330.037 132.303 331.846 132.303C333.993 132.303 335.848 132.533 337.412 132.993C338.976 133.453 340.264 133.959 341.276 134.511L339.206 140.169C338.317 139.709 337.32 139.31 336.216 138.973C335.143 138.605 333.84 138.421 332.306 138.421C330.589 138.421 329.347 138.666 328.58 139.157C327.844 139.617 327.476 140.338 327.476 141.319C327.476 141.902 327.614 142.392 327.89 142.791C328.166 143.19 328.55 143.558 329.04 143.895C329.562 144.202 330.144 144.493 330.788 144.769C331.463 145.014 332.199 145.275 332.996 145.551C334.652 146.164 336.094 146.778 337.32 147.391C338.547 147.974 339.559 148.664 340.356 149.461C341.184 150.258 341.798 151.194 342.196 152.267C342.595 153.34 342.794 154.644 342.794 156.177C342.794 159.152 341.752 161.467 339.666 163.123C337.581 164.748 334.438 165.561 330.236 165.561C328.826 165.561 327.553 165.469 326.418 165.285C325.284 165.132 324.272 164.932 323.382 164.687C322.524 164.442 321.772 164.181 321.128 163.905C320.515 163.629 319.994 163.368 319.564 163.123L321.588 157.419C322.539 157.94 323.704 158.416 325.084 158.845C326.495 159.244 328.212 159.443 330.236 159.443ZM362.852 165.561C357.669 165.561 353.713 164.12 350.984 161.237C348.285 158.354 346.936 154.26 346.936 148.955C346.936 146.318 347.35 143.972 348.178 141.917C349.006 139.832 350.14 138.084 351.582 136.673C353.023 135.232 354.74 134.143 356.734 133.407C358.727 132.671 360.889 132.303 363.22 132.303C364.569 132.303 365.796 132.41 366.9 132.625C368.004 132.809 368.97 133.039 369.798 133.315C370.626 133.56 371.316 133.821 371.868 134.097C372.42 134.373 372.818 134.588 373.064 134.741L370.994 140.537C370.012 140.016 368.862 139.571 367.544 139.203C366.256 138.835 364.784 138.651 363.128 138.651C362.024 138.651 360.935 138.835 359.862 139.203C358.819 139.571 357.884 140.169 357.056 140.997C356.258 141.794 355.614 142.837 355.124 144.125C354.633 145.413 354.388 146.977 354.388 148.817C354.388 150.289 354.541 151.669 354.848 152.957C355.185 154.214 355.706 155.303 356.412 156.223C357.148 157.143 358.098 157.879 359.264 158.431C360.429 158.952 361.84 159.213 363.496 159.213C364.538 159.213 365.474 159.152 366.302 159.029C367.13 158.906 367.866 158.768 368.51 158.615C369.154 158.431 369.721 158.232 370.212 158.017C370.702 157.802 371.147 157.603 371.546 157.419L373.524 163.169C372.512 163.782 371.086 164.334 369.246 164.825C367.406 165.316 365.274 165.561 362.852 165.561ZM378.144 133.039H385.32V164.917H378.144V133.039ZM392.699 164.917V133.039H414.227V139.065H399.875V145.321H412.617V151.209H399.875V158.891H415.285V164.917H392.699ZM441.985 164.917C439.93 161.268 437.707 157.664 435.315 154.107C432.923 150.55 430.378 147.192 427.679 144.033V164.917H420.595V133.039H426.437C427.449 134.051 428.568 135.293 429.795 136.765C431.022 138.237 432.264 139.816 433.521 141.503C434.809 143.159 436.082 144.892 437.339 146.701C438.596 148.48 439.777 150.197 440.881 151.853V133.039H448.011V164.917H441.985ZM469.901 165.561C464.718 165.561 460.762 164.12 458.033 161.237C455.334 158.354 453.985 154.26 453.985 148.955C453.985 146.318 454.399 143.972 455.227 141.917C456.055 139.832 457.189 138.084 458.631 136.673C460.072 135.232 461.789 134.143 463.783 133.407C465.776 132.671 467.938 132.303 470.269 132.303C471.618 132.303 472.845 132.41 473.949 132.625C475.053 132.809 476.019 133.039 476.847 133.315C477.675 133.56 478.365 133.821 478.917 134.097C479.469 134.373 479.867 134.588 480.113 134.741L478.043 140.537C477.061 140.016 475.911 139.571 474.593 139.203C473.305 138.835 471.833 138.651 470.177 138.651C469.073 138.651 467.984 138.835 466.911 139.203C465.868 139.571 464.933 140.169 464.105 140.997C463.307 141.794 462.663 142.837 462.173 144.125C461.682 145.413 461.437 146.977 461.437 148.817C461.437 150.289 461.59 151.669 461.897 152.957C462.234 154.214 462.755 155.303 463.461 156.223C464.197 157.143 465.147 157.879 466.313 158.431C467.478 158.952 468.889 159.213 470.545 159.213C471.587 159.213 472.523 159.152 473.351 159.029C474.179 158.906 474.915 158.768 475.559 158.615C476.203 158.431 476.77 158.232 477.261 158.017C477.751 157.802 478.196 157.603 478.595 157.419L480.573 163.169C479.561 163.782 478.135 164.334 476.295 164.825C474.455 165.316 472.323 165.561 469.901 165.561ZM485.193 164.917V133.039H506.721V139.065H492.369V145.321H505.111V151.209H492.369V158.891H507.779V164.917H485.193ZM545.484 164.917C545.147 163.813 544.763 162.678 544.334 161.513C543.935 160.348 543.537 159.182 543.138 158.017H530.718C530.319 159.182 529.905 160.348 529.476 161.513C529.077 162.678 528.709 163.813 528.372 164.917H520.92C522.116 161.482 523.251 158.308 524.324 155.395C525.397 152.482 526.44 149.737 527.452 147.161C528.495 144.585 529.507 142.147 530.488 139.847C531.5 137.516 532.543 135.247 533.616 133.039H540.47C541.513 135.247 542.54 137.516 543.552 139.847C544.564 142.147 545.576 144.585 546.588 147.161C547.631 149.737 548.689 152.482 549.762 155.395C550.835 158.308 551.97 161.482 553.166 164.917H545.484ZM536.882 140.261C536.729 140.721 536.499 141.35 536.192 142.147C535.885 142.944 535.533 143.864 535.134 144.907C534.735 145.95 534.291 147.1 533.8 148.357C533.34 149.614 532.865 150.933 532.374 152.313H541.436C540.945 150.933 540.47 149.614 540.01 148.357C539.55 147.1 539.105 145.95 538.676 144.907C538.277 143.864 537.925 142.944 537.618 142.147C537.311 141.35 537.066 140.721 536.882 140.261ZM578.682 164.917C576.628 161.268 574.404 157.664 572.012 154.107C569.62 150.55 567.075 147.192 564.376 144.033V164.917H557.292V133.039H563.134C564.146 134.051 565.266 135.293 566.492 136.765C567.719 138.237 568.961 139.816 570.218 141.503C571.506 143.159 572.779 144.892 574.036 146.701C575.294 148.48 576.474 150.197 577.578 151.853V133.039H584.708V164.917H578.682ZM599.238 159.075C599.575 159.106 599.959 159.136 600.388 159.167C600.848 159.167 601.385 159.167 601.998 159.167C605.586 159.167 608.239 158.262 609.956 156.453C611.704 154.644 612.578 152.144 612.578 148.955C612.578 145.612 611.75 143.082 610.094 141.365C608.438 139.648 605.816 138.789 602.228 138.789C601.737 138.789 601.231 138.804 600.71 138.835C600.189 138.835 599.698 138.866 599.238 138.927V159.075ZM619.984 148.955C619.984 151.715 619.555 154.122 618.696 156.177C617.837 158.232 616.611 159.934 615.016 161.283C613.452 162.632 611.535 163.644 609.266 164.319C606.997 164.994 604.451 165.331 601.63 165.331C600.342 165.331 598.839 165.27 597.122 165.147C595.405 165.055 593.718 164.84 592.062 164.503V133.453C593.718 133.146 595.435 132.947 597.214 132.855C599.023 132.732 600.572 132.671 601.86 132.671C604.589 132.671 607.058 132.978 609.266 133.591C611.505 134.204 613.421 135.17 615.016 136.489C616.611 137.808 617.837 139.494 618.696 141.549C619.555 143.604 619.984 146.072 619.984 148.955ZM660.673 133.039V139.157H651.059V164.917H643.883V139.157H634.269V133.039H660.673ZM665.284 164.917V133.039H686.812V139.065H672.46V145.321H685.202V151.209H672.46V158.891H687.87V164.917H665.284ZM707.717 165.561C702.534 165.561 698.578 164.12 695.849 161.237C693.15 158.354 691.801 154.26 691.801 148.955C691.801 146.318 692.215 143.972 693.043 141.917C693.871 139.832 695.006 138.084 696.447 136.673C697.888 135.232 699.606 134.143 701.599 133.407C703.592 132.671 705.754 132.303 708.085 132.303C709.434 132.303 710.661 132.41 711.765 132.625C712.869 132.809 713.835 133.039 714.663 133.315C715.491 133.56 716.181 133.821 716.733 134.097C717.285 134.373 717.684 134.588 717.929 134.741L715.859 140.537C714.878 140.016 713.728 139.571 712.409 139.203C711.121 138.835 709.649 138.651 707.993 138.651C706.889 138.651 705.8 138.835 704.727 139.203C703.684 139.571 702.749 140.169 701.921 140.997C701.124 141.794 700.48 142.837 699.989 144.125C699.498 145.413 699.253 146.977 699.253 148.817C699.253 150.289 699.406 151.669 699.713 152.957C700.05 154.214 700.572 155.303 701.277 156.223C702.013 157.143 702.964 157.879 704.129 158.431C705.294 158.952 706.705 159.213 708.361 159.213C709.404 159.213 710.339 159.152 711.167 159.029C711.995 158.906 712.731 158.768 713.375 158.615C714.019 158.431 714.586 158.232 715.077 158.017C715.568 157.802 716.012 157.603 716.411 157.419L718.389 163.169C717.377 163.782 715.951 164.334 714.111 164.825C712.271 165.316 710.14 165.561 707.717 165.561ZM742.237 133.039H749.413V164.917H742.237V151.393H730.185V164.917H723.009V133.039H730.185V145.229H742.237V133.039ZM778.18 164.917C776.126 161.268 773.902 157.664 771.51 154.107C769.118 150.55 766.573 147.192 763.874 144.033V164.917H756.79V133.039H762.632C763.644 134.051 764.764 135.293 765.99 136.765C767.217 138.237 768.459 139.816 769.716 141.503C771.004 143.159 772.277 144.892 773.534 146.701C774.792 148.48 775.972 150.197 777.076 151.853V133.039H784.206V164.917H778.18ZM797.586 148.955C797.586 150.519 797.77 151.93 798.138 153.187C798.537 154.444 799.089 155.533 799.794 156.453C800.53 157.342 801.419 158.032 802.462 158.523C803.505 159.014 804.701 159.259 806.05 159.259C807.369 159.259 808.549 159.014 809.592 158.523C810.665 158.032 811.555 157.342 812.26 156.453C812.996 155.533 813.548 154.444 813.916 153.187C814.315 151.93 814.514 150.519 814.514 148.955C814.514 147.391 814.315 145.98 813.916 144.723C813.548 143.435 812.996 142.346 812.26 141.457C811.555 140.537 810.665 139.832 809.592 139.341C808.549 138.85 807.369 138.605 806.05 138.605C804.701 138.605 803.505 138.866 802.462 139.387C801.419 139.878 800.53 140.583 799.794 141.503C799.089 142.392 798.537 143.481 798.138 144.769C797.77 146.026 797.586 147.422 797.586 148.955ZM821.92 148.955C821.92 151.684 821.506 154.092 820.678 156.177C819.881 158.232 818.777 159.964 817.366 161.375C815.955 162.755 814.269 163.798 812.306 164.503C810.374 165.208 808.289 165.561 806.05 165.561C803.873 165.561 801.818 165.208 799.886 164.503C797.954 163.798 796.267 162.755 794.826 161.375C793.385 159.964 792.25 158.232 791.422 156.177C790.594 154.092 790.18 151.684 790.18 148.955C790.18 146.226 790.609 143.834 791.468 141.779C792.327 139.694 793.477 137.946 794.918 136.535C796.39 135.124 798.077 134.066 799.978 133.361C801.91 132.656 803.934 132.303 806.05 132.303C808.227 132.303 810.282 132.656 812.214 133.361C814.146 134.066 815.833 135.124 817.274 136.535C818.715 137.946 819.85 139.694 820.678 141.779C821.506 143.834 821.92 146.226 821.92 148.955ZM849.2 158.753V164.917H827.902V133.039H835.078V158.753H849.2ZM858.949 148.955C858.949 150.519 859.133 151.93 859.501 153.187C859.9 154.444 860.452 155.533 861.157 156.453C861.893 157.342 862.782 158.032 863.825 158.523C864.868 159.014 866.064 159.259 867.413 159.259C868.732 159.259 869.912 159.014 870.955 158.523C872.028 158.032 872.918 157.342 873.623 156.453C874.359 155.533 874.911 154.444 875.279 153.187C875.678 151.93 875.877 150.519 875.877 148.955C875.877 147.391 875.678 145.98 875.279 144.723C874.911 143.435 874.359 142.346 873.623 141.457C872.918 140.537 872.028 139.832 870.955 139.341C869.912 138.85 868.732 138.605 867.413 138.605C866.064 138.605 864.868 138.866 863.825 139.387C862.782 139.878 861.893 140.583 861.157 141.503C860.452 142.392 859.9 143.481 859.501 144.769C859.133 146.026 858.949 147.422 858.949 148.955ZM883.283 148.955C883.283 151.684 882.869 154.092 882.041 156.177C881.244 158.232 880.14 159.964 878.729 161.375C877.318 162.755 875.632 163.798 873.669 164.503C871.737 165.208 869.652 165.561 867.413 165.561C865.236 165.561 863.181 165.208 861.249 164.503C859.317 163.798 857.63 162.755 856.189 161.375C854.748 159.964 853.613 158.232 852.785 156.177C851.957 154.092 851.543 151.684 851.543 148.955C851.543 146.226 851.972 143.834 852.831 141.779C853.69 139.694 854.84 137.946 856.281 136.535C857.753 135.124 859.44 134.066 861.341 133.361C863.273 132.656 865.297 132.303 867.413 132.303C869.59 132.303 871.645 132.656 873.577 133.361C875.509 134.066 877.196 135.124 878.637 136.535C880.078 137.946 881.213 139.694 882.041 141.779C882.869 143.834 883.283 146.226 883.283 148.955ZM904.813 138.559C901.47 138.559 899.048 139.494 897.545 141.365C896.073 143.205 895.337 145.735 895.337 148.955C895.337 150.519 895.521 151.945 895.889 153.233C896.257 154.49 896.809 155.579 897.545 156.499C898.281 157.419 899.201 158.14 900.305 158.661C901.409 159.152 902.697 159.397 904.169 159.397C904.966 159.397 905.641 159.382 906.193 159.351C906.776 159.32 907.282 159.259 907.711 159.167V148.081H914.887V163.859C914.028 164.196 912.648 164.549 910.747 164.917C908.846 165.316 906.5 165.515 903.709 165.515C901.317 165.515 899.14 165.147 897.177 164.411C895.245 163.675 893.589 162.602 892.209 161.191C890.829 159.78 889.756 158.048 888.989 155.993C888.253 153.938 887.885 151.592 887.885 148.955C887.885 146.287 888.299 143.926 889.127 141.871C889.955 139.816 891.09 138.084 892.531 136.673C893.972 135.232 895.659 134.143 897.591 133.407C899.554 132.671 901.639 132.303 903.847 132.303C905.35 132.303 906.699 132.41 907.895 132.625C909.122 132.809 910.164 133.039 911.023 133.315C911.912 133.56 912.633 133.821 913.185 134.097C913.768 134.373 914.182 134.588 914.427 134.741L912.357 140.491C911.376 139.97 910.241 139.525 908.953 139.157C907.696 138.758 906.316 138.559 904.813 138.559ZM921.564 133.039H928.74V164.917H921.564V133.039ZM936.118 164.917V133.039H957.646V139.065H943.294V145.321H956.036V151.209H943.294V158.891H958.704V164.917H936.118ZM972.709 159.443C973.721 159.443 974.549 159.366 975.193 159.213C975.868 159.029 976.404 158.799 976.803 158.523C977.202 158.216 977.478 157.864 977.631 157.465C977.784 157.066 977.861 156.622 977.861 156.131C977.861 155.088 977.37 154.23 976.389 153.555C975.408 152.85 973.721 152.098 971.329 151.301C970.286 150.933 969.244 150.519 968.201 150.059C967.158 149.568 966.223 148.97 965.395 148.265C964.567 147.529 963.892 146.655 963.371 145.643C962.85 144.6 962.589 143.343 962.589 141.871C962.589 140.399 962.865 139.08 963.417 137.915C963.969 136.719 964.751 135.707 965.763 134.879C966.775 134.051 968.002 133.422 969.443 132.993C970.884 132.533 972.51 132.303 974.319 132.303C976.466 132.303 978.321 132.533 979.885 132.993C981.449 133.453 982.737 133.959 983.749 134.511L981.679 140.169C980.79 139.709 979.793 139.31 978.689 138.973C977.616 138.605 976.312 138.421 974.779 138.421C973.062 138.421 971.82 138.666 971.053 139.157C970.317 139.617 969.949 140.338 969.949 141.319C969.949 141.902 970.087 142.392 970.363 142.791C970.639 143.19 971.022 143.558 971.513 143.895C972.034 144.202 972.617 144.493 973.261 144.769C973.936 145.014 974.672 145.275 975.469 145.551C977.125 146.164 978.566 146.778 979.793 147.391C981.02 147.974 982.032 148.664 982.829 149.461C983.657 150.258 984.27 151.194 984.669 152.267C985.068 153.34 985.267 154.644 985.267 156.177C985.267 159.152 984.224 161.467 982.139 163.123C980.054 164.748 976.91 165.561 972.709 165.561C971.298 165.561 970.026 165.469 968.891 165.285C967.756 165.132 966.744 164.932 965.855 164.687C964.996 164.442 964.245 164.181 963.601 163.905C962.988 163.629 962.466 163.368 962.037 163.123L964.061 157.419C965.012 157.94 966.177 158.416 967.557 158.845C968.968 159.244 970.685 159.443 972.709 159.443Z" fill="#FFC82A"/>
</svg>
