<svg width="1100" height="216" viewBox="0 0 1100 216" fill="none" xmlns="http://www.w3.org/2000/svg">
<path fill-rule="evenodd" clip-rule="evenodd" d="M0.550781 113.72C0.649427 167.365 40.5687 211.675 94.3415 215.568C95.6844 187.297 94.5573 128.982 94.546 97.6059H0.550781V113.72ZM101.26 90.8923H195.256V0.924805H101.26V90.8923ZM139.739 64.7467C141.229 64.7467 142.458 64.6223 143.429 64.374C144.4 64.1253 145.178 63.787 145.765 63.3581C146.352 62.9298 146.759 62.4215 146.985 61.8345C147.211 61.2476 147.323 60.5933 147.323 59.8707C147.323 58.3354 146.601 57.0602 145.156 56.0443C143.712 55.0291 141.229 53.9338 137.707 52.7599C136.171 52.2183 134.636 51.5973 133.102 50.8977C131.567 50.1978 130.19 49.3175 128.97 48.2566C127.752 47.1957 126.758 45.9087 125.991 44.3965C125.223 42.884 124.84 41.0437 124.84 38.8769C124.84 36.7101 125.246 34.7569 126.059 33.0187C126.871 31.2805 128.022 29.8023 129.512 28.583C131.003 27.3641 132.808 26.4276 134.93 25.7733C137.052 25.1179 139.445 24.791 142.108 24.791C145.269 24.791 148.001 25.1293 150.303 25.8062C152.605 26.4835 154.502 27.2288 155.991 28.0414L152.944 36.3715C151.636 35.6938 150.179 35.0959 148.576 34.5766C146.974 34.0569 145.043 33.798 142.787 33.798C140.258 33.798 138.44 34.148 137.334 34.8476C136.228 35.5475 135.676 36.619 135.676 38.0643C135.676 38.9223 135.878 39.6438 136.284 40.2308C136.691 40.8177 137.266 41.3487 138.012 41.8231C138.756 42.297 139.614 42.7256 140.584 43.1096C141.555 43.4929 142.628 43.8882 143.802 44.2949C146.24 45.1978 148.362 46.089 150.168 46.97C151.974 47.8499 153.475 48.8768 154.671 50.0507C155.867 51.2246 156.759 52.6015 157.346 54.1821C157.933 55.762 158.226 57.6812 158.226 59.938C158.226 64.3177 156.691 67.7155 153.622 70.1306C150.551 72.5457 145.924 73.7537 139.739 73.7537C137.662 73.7537 135.788 73.6297 134.118 73.381C132.447 73.1327 130.969 72.8284 129.682 72.4671C128.395 72.1058 127.289 71.7218 126.363 71.3159C125.438 70.9092 124.659 70.5259 124.027 70.1646L127.007 61.7673C128.406 62.5341 130.133 63.2228 132.187 63.8324C134.242 64.442 136.759 64.7467 139.739 64.7467ZM0.550781 90.8923H94.546V0.924805H0.550781V90.8923ZM52.2528 73.7537C48.9571 73.7537 46.113 73.291 43.7198 72.3654C41.3273 71.4398 39.3521 70.1533 37.7942 68.5054C36.2363 66.8571 35.085 64.8933 34.3408 62.6131C33.5955 60.3333 33.2229 57.8169 33.2229 55.062V25.8746H43.7877V54.1821C43.7877 56.0787 44.0024 57.6926 44.4307 59.0241C44.8596 60.3564 45.4466 61.44 46.1915 62.2745C46.9369 63.1097 47.8398 63.7081 48.9007 64.0694C49.962 64.4307 51.1246 64.611 52.3885 64.611C54.962 64.611 57.0497 63.8211 58.6526 62.2412C60.2547 60.6606 61.0572 57.9741 61.0572 54.1821V25.8746H71.6214V55.062C71.6214 57.8169 71.2374 60.345 70.4701 62.6471C69.7021 64.9496 68.5281 66.9248 66.9487 68.5727C65.3688 70.2206 63.3593 71.4961 60.9215 72.3987C58.4837 73.3024 55.5935 73.7537 52.2528 73.7537ZM101.26 210.401L101.419 215.57C155.19 211.68 195.202 167.376 195.256 113.72V97.6059H101.26V210.401ZM160.564 114.155V123.162H146.41V161.086H135.845V123.162H121.691V114.155H160.564ZM64.8825 161.086C64.3522 159.45 63.7997 157.779 63.1897 156.063C62.5914 154.348 61.993 152.632 61.3947 150.928H43.0654C42.4785 152.643 41.8803 154.359 41.282 156.075C40.695 157.801 40.1421 159.461 39.6224 161.086H28.6511C30.4233 156.029 32.0942 151.356 33.6741 147.067C35.2652 142.779 36.8118 138.738 38.3357 134.945C39.8479 131.153 41.3379 127.553 42.8168 124.144C44.284 120.735 45.8188 117.406 47.3991 114.155H57.4104C58.957 117.406 60.4808 120.735 61.9703 124.144C63.4715 127.553 64.9735 131.153 66.497 134.945C68.0202 138.738 69.5668 142.779 71.1587 147.067C72.7499 151.356 74.4209 156.029 76.192 161.086H64.8825ZM52.1847 124.787C51.9474 125.465 51.6091 126.402 51.1461 127.564C50.6948 128.738 50.1764 130.092 49.5996 131.639C49.0244 133.173 48.3701 134.867 47.6588 136.718C46.9361 138.557 46.2142 140.499 45.4693 142.53H58.8893C58.1783 140.499 57.4787 138.546 56.8014 136.695C56.135 134.844 55.4922 133.151 54.8822 131.605C54.2839 130.069 53.754 128.716 53.291 127.542C52.8397 126.368 52.4671 125.453 52.1847 124.787Z" fill="#FFC82A"/>
<path d="M248.275 71.8418V26.5153H278.624V35.0835H258.479V44.5674H276.4V53.1356H258.479V71.8418H248.275ZM313.052 71.8418C312.572 70.272 312.027 68.6587 311.417 67.0017C310.85 65.3448 310.283 63.6878 309.716 62.0309H292.056C291.489 63.6878 290.901 65.3448 290.29 67.0017C289.723 68.6587 289.2 70.272 288.721 71.8418H278.125C279.825 66.9581 281.439 62.4451 282.965 58.3027C284.491 54.1603 285.973 50.2577 287.412 46.595C288.895 42.9322 290.334 39.4657 291.729 36.1954C293.168 32.8815 294.651 29.6548 296.177 26.5153H305.922C307.405 29.6548 308.866 32.8815 310.305 36.1954C311.744 39.4657 313.182 42.9322 314.621 46.595C316.104 50.2577 317.608 54.1603 319.134 58.3027C320.661 62.4451 322.274 66.9581 323.974 71.8418H313.052ZM300.821 36.7841C300.603 37.4381 300.276 38.332 299.84 39.4657C299.404 40.5994 298.902 41.9075 298.335 43.3901C297.768 44.8726 297.136 46.5078 296.438 48.2956C295.784 50.0833 295.109 51.9583 294.411 53.9205H307.296C306.598 51.9583 305.922 50.0833 305.268 48.2956C304.614 46.5078 303.982 44.8726 303.372 43.3901C302.805 41.9075 302.303 40.5994 301.867 39.4657C301.431 38.332 301.082 37.4381 300.821 36.7841ZM360.256 71.8418C357.334 66.6529 354.173 61.5294 350.772 56.4713C347.371 51.4132 343.751 46.6386 339.914 42.1474V71.8418H329.842V26.5153H338.148C339.587 27.9542 341.179 29.7202 342.923 31.8132C344.667 33.9062 346.433 36.1518 348.221 38.55C350.052 40.9046 351.862 43.3683 353.65 45.9409C355.437 48.47 357.116 50.9118 358.686 53.2664V26.5153H368.824V71.8418H360.256ZM408.466 71.8418C406.678 68.0482 404.912 64.1021 403.168 60.0033C401.424 55.9045 399.767 51.8493 398.197 47.8377C396.628 43.8261 395.167 39.989 393.815 36.3262C392.507 32.6635 391.373 29.3931 390.414 26.5153H401.664C402.536 29.1315 403.473 31.9658 404.476 35.0181C405.523 38.0268 406.569 41.0355 407.616 44.0441C408.706 47.0528 409.752 49.9307 410.755 52.6778C411.758 55.4248 412.696 57.8013 413.568 59.807C414.396 57.8013 415.312 55.4248 416.315 52.6778C417.361 49.9307 418.408 47.0528 419.454 44.0441C420.544 41.0355 421.591 38.0268 422.594 35.0181C423.64 31.9658 424.6 29.1315 425.472 26.5153H436.329C435.326 29.3931 434.171 32.6635 432.863 36.3262C431.554 39.989 430.116 43.8261 428.546 47.8377C426.976 51.8493 425.319 55.9045 423.575 60.0033C421.831 64.1021 420.065 68.0482 418.277 71.8418H408.466ZM468.264 71.8418C467.784 70.272 467.239 68.6587 466.629 67.0017C466.062 65.3448 465.495 63.6878 464.928 62.0309H447.268C446.701 63.6878 446.113 65.3448 445.502 67.0017C444.935 68.6587 444.412 70.272 443.933 71.8418H433.337C435.037 66.9581 436.651 62.4451 438.177 58.3027C439.703 54.1603 441.186 50.2577 442.624 46.595C444.107 42.9322 445.546 39.4657 446.941 36.1954C448.38 32.8815 449.863 29.6548 451.389 26.5153H461.134C462.617 29.6548 464.078 32.8815 465.517 36.1954C466.956 39.4657 468.395 42.9322 469.833 46.595C471.316 50.2577 472.82 54.1603 474.346 58.3027C475.873 62.4451 477.486 66.9581 479.187 71.8418H468.264ZM456.033 36.7841C455.815 37.4381 455.488 38.332 455.052 39.4657C454.616 40.5994 454.114 41.9075 453.547 43.3901C452.98 44.8726 452.348 46.5078 451.651 48.2956C450.996 50.0833 450.321 51.9583 449.623 53.9205H462.508C461.81 51.9583 461.134 50.0833 460.48 48.2956C459.826 46.5078 459.194 44.8726 458.584 43.3901C458.017 41.9075 457.515 40.5994 457.079 39.4657C456.643 38.332 456.294 37.4381 456.033 36.7841ZM534.385 26.5153V35.2143H520.715V71.8418H510.512V35.2143H496.842V26.5153H534.385ZM540.943 71.8418V26.5153H571.553V35.0835H551.146V43.9787H569.264V52.3507H551.146V63.2736H573.057V71.8418H540.943ZM607.917 71.8418C606.653 69.3128 605.257 66.7619 603.731 64.1893C602.249 61.573 600.526 58.9132 598.564 56.2097C597.954 56.9946 597.169 58.0847 596.21 59.48C595.294 60.8754 594.356 62.3579 593.397 63.9276C592.481 65.4974 591.609 67.0017 590.781 68.4407C589.952 69.8796 589.342 71.0133 588.949 71.8418H577.307C579.226 68.3099 581.45 64.6035 583.979 60.7227C586.551 56.842 589.407 52.7214 592.547 48.361L577.961 26.5153H590.323L599.153 40.643L607.786 26.5153H619.429L605.039 48.4918C608.702 53.2446 611.776 57.6486 614.262 61.7038C616.747 65.7154 618.709 69.0947 620.148 71.8418H607.917ZM656.436 71.8418C653.514 66.6529 650.353 61.5294 646.952 56.4713C643.551 51.4132 639.932 46.6386 636.095 42.1474V71.8418H626.022V26.5153H634.329C635.768 27.9542 637.359 29.7202 639.103 31.8132C640.847 33.9062 642.613 36.1518 644.401 38.55C646.233 40.9046 648.042 43.3683 649.83 45.9409C651.618 48.47 653.296 50.9118 654.866 53.2664V26.5153H665.004V71.8418H656.436ZM684.028 49.1458C684.028 51.3696 684.29 53.3754 684.813 55.1632C685.38 56.951 686.165 58.4989 687.168 59.807C688.214 61.0716 689.479 62.0527 690.961 62.7503C692.444 63.448 694.144 63.7968 696.063 63.7968C697.938 63.7968 699.617 63.448 701.099 62.7503C702.625 62.0527 703.89 61.0716 704.893 59.807C705.939 58.4989 706.724 56.951 707.247 55.1632C707.814 53.3754 708.098 51.3696 708.098 49.1458C708.098 46.922 707.814 44.9162 707.247 43.1285C706.724 41.2971 705.939 39.7491 704.893 38.4846C703.89 37.1765 702.625 36.1736 701.099 35.4759C699.617 34.7783 697.938 34.4294 696.063 34.4294C694.144 34.4294 692.444 34.8001 690.961 35.5413C689.479 36.239 688.214 37.2419 687.168 38.55C686.165 39.8145 685.38 41.3625 684.813 43.1939C684.29 44.9816 684.028 46.9656 684.028 49.1458ZM718.628 49.1458C718.628 53.0266 718.039 56.4495 716.862 59.4146C715.728 62.3361 714.159 64.7997 712.153 66.8055C710.147 68.7677 707.749 70.2502 704.958 71.2531C702.211 72.256 699.246 72.7575 696.063 72.7575C692.967 72.7575 690.046 72.256 687.298 71.2531C684.551 70.2502 682.153 68.7677 680.104 66.8055C678.054 64.7997 676.441 62.3361 675.264 59.4146C674.086 56.4495 673.498 53.0266 673.498 49.1458C673.498 45.2651 674.108 41.8639 675.329 38.9425C676.55 35.9774 678.185 33.4919 680.235 31.4861C682.328 29.4804 684.726 27.976 687.429 26.9731C690.176 25.9702 693.054 25.4688 696.063 25.4688C699.159 25.4688 702.08 25.9702 704.827 26.9731C707.574 27.976 709.973 29.4804 712.022 31.4861C714.071 33.4919 715.685 35.9774 716.862 38.9425C718.039 41.8639 718.628 45.2651 718.628 49.1458ZM757.416 63.0774V71.8418H727.133V26.5153H737.337V63.0774H757.416ZM771.279 49.1458C771.279 51.3696 771.541 53.3754 772.064 55.1632C772.631 56.951 773.416 58.4989 774.419 59.807C775.465 61.0716 776.73 62.0527 778.212 62.7503C779.695 63.448 781.395 63.7968 783.314 63.7968C785.189 63.7968 786.868 63.448 788.35 62.7503C789.876 62.0527 791.141 61.0716 792.144 59.807C793.19 58.4989 793.975 56.951 794.498 55.1632C795.065 53.3754 795.349 51.3696 795.349 49.1458C795.349 46.922 795.065 44.9162 794.498 43.1285C793.975 41.2971 793.19 39.7491 792.144 38.4846C791.141 37.1765 789.876 36.1736 788.35 35.4759C786.868 34.7783 785.189 34.4294 783.314 34.4294C781.395 34.4294 779.695 34.8001 778.212 35.5413C776.73 36.239 775.465 37.2419 774.419 38.55C773.416 39.8145 772.631 41.3625 772.064 43.1939C771.541 44.9816 771.279 46.9656 771.279 49.1458ZM805.879 49.1458C805.879 53.0266 805.29 56.4495 804.113 59.4146C802.979 62.3361 801.41 64.7997 799.404 66.8055C797.398 68.7677 795 70.2502 792.209 71.2531C789.462 72.256 786.497 72.7575 783.314 72.7575C780.218 72.7575 777.296 72.256 774.549 71.2531C771.802 70.2502 769.404 68.7677 767.355 66.8055C765.305 64.7997 763.692 62.3361 762.515 59.4146C761.337 56.4495 760.749 53.0266 760.749 49.1458C760.749 45.2651 761.359 41.8639 762.58 38.9425C763.801 35.9774 765.436 33.4919 767.485 31.4861C769.578 29.4804 771.977 27.976 774.68 26.9731C777.427 25.9702 780.305 25.4688 783.314 25.4688C786.41 25.4688 789.331 25.9702 792.078 26.9731C794.825 27.976 797.224 29.4804 799.273 31.4861C801.322 33.4919 802.936 35.9774 804.113 38.9425C805.29 41.8639 805.879 45.2651 805.879 49.1458ZM836.492 34.364C831.739 34.364 828.294 35.694 826.157 38.3538C824.064 40.9701 823.018 44.5674 823.018 49.1458C823.018 51.3696 823.28 53.3972 823.803 55.2286C824.326 57.0164 825.111 58.5643 826.157 59.8725C827.204 61.1806 828.512 62.2053 830.082 62.9465C831.652 63.6442 833.483 63.993 835.576 63.993C836.71 63.993 837.669 63.9712 838.454 63.9276C839.282 63.884 840.002 63.7968 840.612 63.666V47.9031H850.816V70.3375C849.595 70.8171 847.632 71.3185 844.929 71.8418C842.226 72.4087 838.89 72.6921 834.922 72.6921C831.521 72.6921 828.425 72.1688 825.634 71.1223C822.887 70.0758 820.532 68.5497 818.57 66.5439C816.608 64.5381 815.082 62.0745 813.992 59.153C812.945 56.2315 812.422 52.8958 812.422 49.1458C812.422 45.3523 813.011 41.9948 814.188 39.0733C815.365 36.1518 816.979 33.6882 819.028 31.6824C821.078 29.633 823.476 28.085 826.223 27.0385C829.013 25.992 831.979 25.4688 835.118 25.4688C837.255 25.4688 839.173 25.6214 840.874 25.9266C842.618 26.1882 844.101 26.5153 845.321 26.9077C846.586 27.2565 847.611 27.6272 848.396 28.0196C849.224 28.4121 849.813 28.7173 850.162 28.9353L847.218 37.1111C845.823 36.3698 844.21 35.7376 842.378 35.2143C840.59 34.6475 838.628 34.364 836.492 34.364ZM860.309 26.5153H870.513V71.8418H860.309V26.5153ZM897.617 45.1561C899.449 42.0602 901.193 38.9643 902.85 35.8684C904.507 32.7725 906.033 29.6548 907.428 26.5153H918.678C916.193 31.3989 913.62 36.13 910.96 40.7084C908.3 45.2869 905.488 49.8871 902.523 54.5091V71.8418H892.319V54.64C889.354 50.0179 886.52 45.3959 883.817 40.7738C881.157 36.1518 878.584 31.3989 876.099 26.5153H887.937C889.333 29.6548 890.837 32.7725 892.45 35.8684C894.064 38.9643 895.786 42.0602 897.617 45.1561ZM948.08 71.8418C947.6 70.272 947.055 68.6587 946.445 67.0017C945.878 65.3448 945.311 63.6878 944.744 62.0309H927.084C926.518 63.6878 925.929 65.3448 925.318 67.0017C924.752 68.6587 924.228 70.272 923.749 71.8418H913.153C914.853 66.9581 916.467 62.4451 917.993 58.3027C919.519 54.1603 921.002 50.2577 922.441 46.595C923.923 42.9322 925.362 39.4657 926.757 36.1954C928.196 32.8815 929.679 29.6548 931.205 26.5153H940.95C942.433 29.6548 943.894 32.8815 945.333 36.1954C946.772 39.4657 948.211 42.9322 949.65 46.595C951.132 50.2577 952.636 54.1603 954.163 58.3027C955.689 62.4451 957.302 66.9581 959.003 71.8418H948.08ZM935.849 36.7841C935.631 37.4381 935.304 38.332 934.868 39.4657C934.432 40.5994 933.93 41.9075 933.363 43.3901C932.797 44.8726 932.164 46.5078 931.467 48.2956C930.813 50.0833 930.137 51.9583 929.439 53.9205H942.324C941.626 51.9583 940.95 50.0833 940.296 48.2956C939.642 46.5078 939.01 44.8726 938.4 43.3901C937.833 41.9075 937.331 40.5994 936.895 39.4657C936.459 38.332 936.11 37.4381 935.849 36.7841ZM995.153 63.0774V71.8418H964.87V26.5153H975.073V63.0774H995.153ZM1034.12 71.8418C1033.64 70.272 1033.09 68.6587 1032.48 67.0017C1031.92 65.3448 1031.35 63.6878 1030.78 62.0309H1013.12C1012.55 63.6878 1011.97 65.3448 1011.36 67.0017C1010.79 68.6587 1010.27 70.272 1009.79 71.8418H999.19C1000.89 66.9581 1002.5 62.4451 1004.03 58.3027C1005.56 54.1603 1007.04 50.2577 1008.48 46.595C1009.96 42.9322 1011.4 39.4657 1012.79 36.1954C1014.23 32.8815 1015.72 29.6548 1017.24 26.5153H1026.99C1028.47 29.6548 1029.93 32.8815 1031.37 36.1954C1032.81 39.4657 1034.25 42.9322 1035.69 46.595C1037.17 50.2577 1038.67 54.1603 1040.2 58.3027C1041.73 62.4451 1043.34 66.9581 1045.04 71.8418H1034.12ZM1021.89 36.7841C1021.67 37.4381 1021.34 38.332 1020.91 39.4657C1020.47 40.5994 1019.97 41.9075 1019.4 43.3901C1018.83 44.8726 1018.2 46.5078 1017.5 48.2956C1016.85 50.0833 1016.17 51.9583 1015.48 53.9205H1028.36C1027.66 51.9583 1026.99 50.0833 1026.33 48.2956C1025.68 46.5078 1025.05 44.8726 1024.44 43.3901C1023.87 41.9075 1023.37 40.5994 1022.93 39.4657C1022.5 38.332 1022.15 37.4381 1021.89 36.7841ZM1064.18 25.992C1070.99 25.992 1076.2 27.2129 1079.82 29.6548C1083.44 32.053 1085.25 35.803 1085.25 40.9046C1085.25 44.0878 1084.5 46.6822 1083.02 48.688C1081.58 50.6502 1079.49 52.1981 1076.74 53.3318C1077.66 54.4655 1078.62 55.7737 1079.62 57.2562C1080.62 58.6951 1081.6 60.2213 1082.56 61.8346C1083.57 63.4044 1084.53 65.0614 1085.44 66.8055C1086.36 68.5061 1087.21 70.1848 1087.99 71.8418H1076.55C1075.72 70.3593 1074.87 68.8549 1074 67.3288C1073.17 65.8026 1072.29 64.3201 1071.38 62.8811C1070.51 61.4422 1069.64 60.0905 1068.76 58.826C1067.89 57.5178 1067.02 56.3405 1066.15 55.294H1061.11V71.8418H1050.91V27.1693C1053.13 26.7333 1055.42 26.4281 1057.77 26.2536C1060.17 26.0792 1062.31 25.992 1064.18 25.992ZM1064.77 34.6911C1064.03 34.6911 1063.36 34.7129 1062.75 34.7565C1062.18 34.8001 1061.63 34.8437 1061.11 34.8873V47.1836H1063.99C1067.83 47.1836 1070.57 46.704 1072.23 45.7447C1073.89 44.7854 1074.71 43.1503 1074.71 40.8392C1074.71 38.6154 1073.86 37.0457 1072.16 36.13C1070.51 35.1707 1068.04 34.6911 1064.77 34.6911Z" fill="#FFC82A"/>
<path d="M282.893 180.521C276.757 180.521 271.46 179.681 267.005 177.999C262.549 176.234 258.851 173.838 255.908 170.812C253.05 167.701 250.906 164.044 249.477 159.841C248.132 155.554 247.46 150.846 247.46 145.718V91.3698H267.131V144.079C267.131 147.61 267.509 150.636 268.266 153.158C269.107 155.596 270.199 157.613 271.544 159.211C272.974 160.724 274.655 161.817 276.588 162.489C278.606 163.162 280.792 163.498 283.146 163.498C287.937 163.498 291.804 162.027 294.747 159.085C297.773 156.142 299.286 151.14 299.286 144.079V91.3698H318.957V145.718C318.957 150.846 318.243 155.554 316.814 159.841C315.385 164.128 313.199 167.827 310.257 170.938C307.314 173.964 303.573 176.318 299.034 177.999C294.494 179.681 289.114 180.521 282.893 180.521ZM396.512 178.756C390.879 168.752 384.785 158.874 378.228 149.123C371.67 139.371 364.693 130.166 357.295 121.507V178.756H337.876V91.3698H353.891C356.665 94.1439 359.733 97.5486 363.096 101.584C366.458 105.619 369.863 109.948 373.31 114.572C376.84 119.111 380.329 123.861 383.776 128.821C387.223 133.697 390.459 138.404 393.485 142.944V91.3698H413.031V178.756H396.512ZM433.189 91.3698H452.86V178.756H433.189V91.3698ZM499.063 178.756C495.616 171.442 492.212 163.834 488.849 155.932C485.487 148.03 482.292 140.212 479.266 132.478C476.239 124.744 473.423 117.346 470.817 110.284C468.295 103.223 466.109 96.9181 464.26 91.3698H485.949C487.63 96.4137 489.438 101.878 491.371 107.763C493.389 113.563 495.406 119.364 497.424 125.164C499.526 130.965 501.543 136.513 503.477 141.809C505.41 147.105 507.218 151.687 508.899 155.554C510.496 151.687 512.261 147.105 514.195 141.809C516.213 136.513 518.23 130.965 520.248 125.164C522.349 119.364 524.367 113.563 526.3 107.763C528.318 101.878 530.167 96.4137 531.849 91.3698H552.781C550.848 96.9181 548.62 103.223 546.098 110.284C543.576 117.346 540.802 124.744 537.775 132.478C534.749 140.212 531.555 148.03 528.192 155.932C524.829 163.834 521.425 171.442 517.978 178.756H499.063ZM564.09 178.756V91.3698H623.104V107.889H583.761V125.038H618.69V141.179H583.761V162.237H626.004V178.756H564.09ZM666.159 90.361C679.273 90.361 689.319 92.7148 696.297 97.4225C703.274 102.046 706.763 109.276 706.763 119.111C706.763 125.248 705.334 130.25 702.475 134.117C699.701 137.9 695.666 140.884 690.37 143.07C692.135 145.256 693.985 147.778 695.918 150.636C697.852 153.41 699.743 156.352 701.593 159.463C703.526 162.489 705.376 165.684 707.141 169.046C708.906 172.325 710.546 175.561 712.059 178.756H689.992C688.395 175.898 686.755 172.997 685.074 170.055C683.477 167.113 681.795 164.255 680.03 161.48C678.349 158.706 676.667 156.1 674.986 153.662C673.305 151.14 671.623 148.871 669.942 146.853H660.233V178.756H640.561V92.6307C644.849 91.7901 649.262 91.2016 653.802 90.8654C658.425 90.5291 662.544 90.361 666.159 90.361ZM667.294 107.132C665.865 107.132 664.562 107.174 663.385 107.258C662.292 107.342 661.241 107.426 660.233 107.51V131.217H665.781C673.179 131.217 678.475 130.292 681.669 128.443C684.864 126.593 686.461 123.441 686.461 118.985C686.461 114.698 684.822 111.672 681.543 109.906C678.349 108.057 673.599 107.132 667.294 107.132ZM748.5 163.75C751.275 163.75 753.544 163.54 755.31 163.12C757.159 162.615 758.63 161.985 759.723 161.228C760.816 160.388 761.573 159.421 761.993 158.328C762.413 157.235 762.623 156.016 762.623 154.671C762.623 151.813 761.278 149.459 758.588 147.61C755.898 145.676 751.275 143.616 744.717 141.431C741.859 140.422 739.001 139.287 736.143 138.026C733.285 136.681 730.721 135.042 728.451 133.108C726.181 131.091 724.332 128.695 722.902 125.921C721.473 123.062 720.759 119.616 720.759 115.581C720.759 111.545 721.515 107.931 723.029 104.736C724.542 101.458 726.685 98.6834 729.46 96.4137C732.234 94.1439 735.596 92.4206 739.547 91.2437C743.498 89.9827 747.954 89.3522 752.914 89.3522C758.798 89.3522 763.884 89.9827 768.172 91.2437C772.459 92.5046 775.99 93.8917 778.764 95.4049L773.09 110.915C770.652 109.654 767.919 108.561 764.893 107.636C761.951 106.628 758.378 106.123 754.175 106.123C749.467 106.123 746.062 106.796 743.961 108.141C741.943 109.402 740.934 111.377 740.934 114.067C740.934 115.665 741.313 117.01 742.069 118.103C742.826 119.195 743.877 120.204 745.222 121.129C746.651 121.97 748.248 122.768 750.014 123.525C751.863 124.197 753.881 124.912 756.066 125.668C760.606 127.35 764.557 129.031 767.919 130.712C771.282 132.31 774.056 134.201 776.242 136.387C778.512 138.573 780.193 141.137 781.286 144.079C782.379 147.021 782.925 150.594 782.925 154.797C782.925 162.952 780.067 169.298 774.351 173.838C768.634 178.293 760.017 180.521 748.5 180.521C744.633 180.521 741.145 180.269 738.034 179.765C734.924 179.344 732.15 178.798 729.712 178.125C727.358 177.453 725.298 176.738 723.533 175.982C721.852 175.225 720.422 174.511 719.246 173.838L724.794 158.202C727.4 159.631 730.594 160.934 734.377 162.111C738.244 163.204 742.952 163.75 748.5 163.75ZM798.061 91.3698H817.732V178.756H798.061V91.3698ZM902.774 91.3698V108.141H876.419V178.756H856.748V108.141H830.393V91.3698H902.774ZM915.416 178.756V91.3698H974.43V107.889H935.087V125.038H970.017V141.179H935.087V162.237H977.33V178.756H915.416ZM1056.7 91.3698V108.141H1030.35V178.756H1010.68V108.141H984.322V91.3698H1056.7ZM1069.34 91.3698H1089.02V178.756H1069.34V91.3698Z" fill="#FFC82A"/>
</svg>
